<svg width="80" height="80" viewBox="0 0 80 80" fill="none" xmlns="http://www.w3.org/2000/svg">
<g clip-path="url(#clip0_17_9258)">
<path d="M66.4385 80H13.5615C10.4102 80 7.8457 77.4347 7.8457 74.2826C7.8457 71.1304 10.4102 68.5869 13.5615 68.5869H66.4385C69.5898 68.5869 72.1543 71.1521 72.1543 74.2826C72.1543 77.413 69.5898 80 66.4385 80ZM13.5615 71.2173C11.8663 71.2173 10.4972 72.5869 10.4972 74.2826C10.4972 75.9782 11.8663 77.3478 13.5615 77.3478H66.4385C68.1337 77.3478 69.5029 75.9782 69.5029 74.2826C69.5029 72.5869 68.1337 71.2173 66.4385 71.2173H13.5615Z" fill="#1A2E50"/>
<path d="M40.011 15.4783C35.7512 15.4783 32.2739 12 32.2739 7.73913C32.2739 3.47826 35.7512 0 40.011 0C44.2707 0 47.748 3.47826 47.748 7.73913C47.748 12 44.2707 15.4783 40.011 15.4783ZM40.011 2.63043C37.2074 2.63043 34.9036 4.91304 34.9036 7.73913C34.9036 10.5652 37.1856 12.8478 40.011 12.8478C42.8363 12.8478 45.1183 10.5652 45.1183 7.73913C45.1183 4.91304 42.8363 2.63043 40.011 2.63043Z" fill="#1A2E50"/>
<path d="M43.0754 71.2174H36.9248C36.2077 71.2174 35.5991 70.6305 35.5991 69.8914V13.3479C35.5991 12.8913 35.8382 12.4566 36.2511 12.2174C36.6423 11.9783 37.1422 11.9783 37.5551 12.2174C39.1416 13.087 40.8586 13.087 42.4234 12.2174C42.8363 12 43.3362 12 43.7274 12.2174C44.1185 12.4566 44.3793 12.8913 44.3793 13.3479V29.3696C44.3793 30.087 43.7925 30.6957 43.0536 30.6957C42.3147 30.6957 41.7279 30.1087 41.7279 29.3696V15.2609C40.576 15.5435 39.359 15.5435 38.2071 15.2609V68.587H41.7279V58.3261C41.7279 57.6087 42.3147 57 43.0536 57C43.7925 57 44.3793 57.587 44.3793 58.3261V69.8914C44.3793 70.6087 43.7925 71.2174 43.0536 71.2174H43.0754Z" fill="#1A2E50"/>
<path d="M43.0752 59.6522C42.358 59.6522 41.7495 59.0652 41.7495 58.3261V54.3695C41.7495 53.6522 42.3363 53.0435 43.0752 53.0435C43.8142 53.0435 44.401 53.6304 44.401 54.3695V58.3261C44.401 59.0435 43.8142 59.6522 43.0752 59.6522Z" fill="#1A2E50"/>
<path d="M43.0752 48.6739C42.358 48.6739 41.7495 48.087 41.7495 47.3478V40.3261C41.7495 39.6087 42.3363 39 43.0752 39C43.8142 39 44.401 39.587 44.401 40.3261V47.3478C44.401 48.0652 43.8142 48.6739 43.0752 48.6739Z" fill="#1A2E50"/>
<path d="M43.0752 34.6304C42.358 34.6304 41.7495 34.0435 41.7495 33.3043V29.3478C41.7495 28.6304 42.3363 28.0217 43.0752 28.0217C43.8142 28.0217 44.401 28.6087 44.401 29.3478V33.3043C44.401 34.0217 43.8142 34.6304 43.0752 34.6304Z" fill="#1A2E50"/>
<path d="M69.0466 13.3913C65.9388 13.3913 63.396 10.8478 63.396 7.73909C63.396 4.63039 65.9388 2.08691 69.0466 2.08691C72.1545 2.08691 74.6973 4.63039 74.6973 7.73909C74.6973 10.8478 72.1545 13.3913 69.0466 13.3913ZM69.0466 4.71735C67.3732 4.71735 66.0257 6.06518 66.0257 7.73909C66.0257 9.413 67.3732 10.7608 69.0466 10.7608C70.7201 10.7608 72.0676 9.413 72.0676 7.73909C72.0676 6.06518 70.7201 4.71735 69.0466 4.71735Z" fill="#1A2E50"/>
<path d="M66.069 12.1739H45.5746C45.0964 12.1739 44.6835 11.9348 44.4444 11.5217C44.2054 11.1087 44.2054 10.6087 44.4444 10.2174C44.9008 9.41302 45.1182 8.58693 45.1182 7.7391C45.1182 6.89128 44.9008 6.06519 44.4444 5.26084C44.2054 4.8478 44.2271 4.3478 44.4444 3.9565C44.6835 3.54345 45.1182 3.30432 45.5746 3.30432H66.069C66.6123 3.30432 67.0905 3.63041 67.2861 4.13041C67.4817 4.63041 67.373 5.19563 66.9818 5.56519C66.3733 6.15215 66.0473 6.91302 66.0473 7.7391C66.0473 8.56519 66.3733 9.32606 66.9818 9.91302C67.373 10.2826 67.5034 10.8478 67.2861 11.3478C67.0905 11.8478 66.6123 12.1739 66.069 12.1739ZM47.5088 9.54345H63.7001C63.5045 8.97823 63.3958 8.36954 63.3958 7.7391C63.3958 7.10867 63.5045 6.49997 63.7001 5.93476H47.5088C47.661 6.52171 47.7261 7.13041 47.7261 7.7391C47.7261 8.3478 47.661 8.95649 47.5088 9.54345Z" fill="#1A2E50"/>
<path d="M10.9534 13.3913C7.84552 13.3913 5.30273 10.8478 5.30273 7.73909C5.30273 4.63039 7.84552 2.08691 10.9534 2.08691C14.0612 2.08691 16.604 4.63039 16.604 7.73909C16.604 10.8478 14.0612 13.3913 10.9534 13.3913ZM10.9534 4.71735C9.27991 4.71735 7.93245 6.06518 7.93245 7.73909C7.93245 9.413 9.27991 10.7608 10.9534 10.7608C12.6268 10.7608 13.9743 9.413 13.9743 7.73909C13.9743 6.06518 12.6268 4.71735 10.9534 4.71735Z" fill="#1A2E50"/>
<path d="M34.4253 12.1739H13.9526C13.4093 12.1739 12.9312 11.8478 12.7356 11.3478C12.54 10.8478 12.6486 10.2826 13.0398 9.91302C13.6484 9.32606 13.9743 8.56519 13.9743 7.7391C13.9743 6.91302 13.6484 6.15215 13.0398 5.56519C12.6486 5.19563 12.5182 4.63041 12.7356 4.13041C12.9312 3.63041 13.4093 3.30432 13.9526 3.30432H34.447C34.9252 3.30432 35.3381 3.54345 35.5772 3.9565C35.8162 4.36954 35.8162 4.86954 35.5772 5.26084C35.1208 6.06519 34.9034 6.89128 34.9034 7.7391C34.9034 8.58693 35.1208 9.41302 35.5772 10.2174C35.8162 10.6304 35.7945 11.1304 35.5772 11.5217C35.3381 11.9348 34.9034 12.1739 34.447 12.1739H34.4253ZM16.2998 9.54345H32.4911C32.3389 8.95649 32.2737 8.3478 32.2737 7.7391C32.2737 7.13041 32.3389 6.52171 32.4911 5.93476H16.2998C16.4954 6.49997 16.6041 7.10867 16.6041 7.7391C16.6041 8.36954 16.4954 8.97823 16.2998 9.54345Z" fill="#1A2E50"/>
<path d="M69.0463 44.1304C63.0045 44.1304 58.0928 39.2173 58.0928 33.1739C58.0928 32.4565 58.6796 31.8478 59.4185 31.8478H78.6959C79.4131 31.8478 80.0216 32.4347 80.0216 33.1739C80.0216 39.2173 75.1099 44.1304 69.0681 44.1304H69.0463ZM60.8312 34.5C61.4614 38.4565 64.917 41.5 69.0463 41.5C73.1756 41.5 76.6312 38.4565 77.2615 34.5H60.8312Z" fill="#FFA502"/>
<path d="M78.696 34.5C78.1961 34.5 77.718 34.2174 77.5006 33.7391L69.0682 15.2609L60.6357 33.7391C60.3314 34.3913 59.549 34.6956 58.897 34.3913C58.245 34.0869 57.9407 33.3043 58.245 32.6522L67.8728 11.5435C68.0902 11.0652 68.5466 10.7826 69.0682 10.7826C69.5898 10.7826 70.0462 11.0869 70.2635 11.5435L79.8913 32.6522C80.1956 33.3043 79.8913 34.0869 79.2393 34.3913C79.0654 34.4782 78.8698 34.5217 78.696 34.5217V34.5Z" fill="#FFA502"/>
<path d="M10.9535 44.1304C4.91171 44.1304 0 39.2173 0 33.1739C0 32.4565 0.586797 31.8478 1.32573 31.8478H20.6031C21.3203 31.8478 21.9288 32.4347 21.9288 33.1739C21.9288 39.2173 17.0171 44.1304 10.9753 44.1304H10.9535ZM2.73839 34.5C3.36865 38.4565 6.82423 41.5 10.9535 41.5C15.0829 41.5 18.5384 38.4565 19.1687 34.5H2.73839Z" fill="#FFA502"/>
<path d="M20.5812 34.5C20.0814 34.5 19.6032 34.2174 19.3859 33.7391L10.9534 15.2609L2.52092 33.7174C2.21665 34.3696 1.43425 34.6739 0.782257 34.3696C0.130261 34.0652 -0.174004 33.2826 0.130261 32.6304L9.75808 11.5217C9.97541 11.0435 10.4318 10.7609 10.9534 10.7609C11.475 10.7609 11.9314 11.0652 12.1487 11.5217L21.7766 32.6304C22.0808 33.2826 21.7766 34.0652 21.1246 34.3696C20.9507 34.4565 20.7551 34.5 20.5812 34.5Z" fill="#FFA502"/>
</g>
<defs>
<clipPath id="clip0_17_9258">
<rect width="80" height="80" fill="white"/>
</clipPath>
</defs>
</svg>
