<svg width="80" height="80" viewBox="0 0 80 80" fill="none" xmlns="http://www.w3.org/2000/svg">
<g clip-path="url(#clip0_17_9174)">
<path d="M33.952 80H26.6045C24.2687 80 22.3605 78.0339 22.3605 75.6272V74.3503C22.3605 73.3786 21.8012 72.5085 20.9239 72.1356C20.0027 71.7402 19.0158 71.9435 18.3468 72.6328L17.4695 73.5368C16.669 74.3616 15.6052 74.8136 14.4647 74.8136C13.3242 74.8136 12.2605 74.3616 11.4599 73.5368L6.26182 68.1808C5.46128 67.356 5.02262 66.2599 5.02262 65.0848C5.02262 63.9096 5.46128 62.8136 6.26182 61.9887L7.13914 61.0848C7.80809 60.3955 8.00548 59.3786 7.64359 58.4746C7.25977 57.5255 6.42632 56.9492 5.48321 56.9492H4.244C1.90816 56.9492 0 54.9831 0 52.5763V45.0057C0 42.5989 1.90816 40.6328 4.244 40.6328H5.48321C6.42632 40.6328 7.27073 40.0565 7.63263 39.1526C8.01645 38.2034 7.81905 37.1752 7.1501 36.4972L6.27279 35.5933C5.47224 34.7684 5.03359 33.6724 5.03359 32.4972C5.03359 31.3221 5.47224 30.226 6.27279 29.4012L11.4709 24.0452C12.2714 23.2204 13.3352 22.7684 14.4757 22.7684C15.6162 22.7684 16.6799 23.2204 17.4805 24.0452L18.3578 24.9492C19.0267 25.6385 20.0137 25.8419 20.891 25.469C21.8122 25.0735 22.3715 24.2147 22.3715 23.243V21.9661C22.3715 19.5594 24.2796 17.5933 26.6155 17.5933H31.3968C32.1206 17.5933 32.7019 18.1921 32.7019 18.9379C32.7019 19.6837 32.1206 20.2825 31.3968 20.2825H26.6155C25.7162 20.2825 24.9815 21.0396 24.9815 21.9661V23.243C24.9815 25.3108 23.7862 27.1526 21.9219 27.9435C20.0356 28.7458 17.9191 28.3164 16.5045 26.8588L15.6271 25.9548C15.013 25.3221 13.9383 25.3221 13.3132 25.9548L8.11515 31.3108C7.80809 31.6272 7.63263 32.0565 7.63263 32.4972C7.63263 32.9379 7.80809 33.3673 8.11515 33.6837L8.99246 34.5876C10.4071 36.0452 10.8239 38.2147 10.0562 40.1243C9.27759 42.0791 7.49006 43.3108 5.48321 43.3108H4.244C3.34476 43.3108 2.61001 44.0678 2.61001 44.9944V52.565C2.61001 53.4916 3.34476 54.2486 4.244 54.2486H5.48321C7.49006 54.2486 9.27759 55.4803 10.0452 57.4012C10.8239 59.356 10.4071 61.5255 8.99246 62.9831L8.11515 63.887C7.80809 64.2034 7.63263 64.6328 7.63263 65.0735C7.63263 65.5142 7.80809 65.9435 8.11515 66.2599L13.3132 71.6159C13.9273 72.2486 15.0021 72.2486 15.6271 71.6159L16.5045 70.7119C17.9191 69.2543 20.0247 68.8249 21.878 69.6159C23.7752 70.4181 24.9705 72.2599 24.9705 74.3277V75.6046C24.9705 76.5311 25.7053 77.2882 26.6045 77.2882H33.952C34.8513 77.2882 35.586 76.5311 35.586 75.6046V74.3277C35.586 72.2599 36.7814 70.4181 38.6456 69.6272C40.5428 68.8136 42.6484 69.2543 44.0631 70.7119L44.9404 71.6159C45.5545 72.2486 46.6402 72.2486 47.2543 71.6159L52.4524 66.2599C52.7594 65.9435 52.9349 65.5142 52.9349 65.0735C52.9349 64.6328 52.7594 64.2034 52.4524 63.887L51.5751 62.9831C50.1604 61.5255 49.7437 59.356 50.5113 57.4464C51.2899 55.4916 53.0774 54.2599 55.0843 54.2599H56.3235C57.2228 54.2599 57.9575 53.5029 57.9575 52.5763V51.3899C57.9575 50.6441 58.5387 50.0452 59.2625 50.0452C59.9863 50.0452 60.5675 50.6441 60.5675 51.3899V52.5763C60.5675 54.9831 58.6594 56.9492 56.3235 56.9492H55.0843C54.1412 56.9492 53.2968 57.5255 52.9349 58.4294C52.5511 59.3786 52.7485 60.3955 53.4174 61.0848L54.2947 61.9887C55.0953 62.8136 55.5339 63.9096 55.5339 65.0848C55.5339 66.2599 55.0953 67.356 54.2947 68.1808L49.0966 73.5368C48.2961 74.3616 47.2323 74.8136 46.0918 74.8136C44.9513 74.8136 43.8876 74.3616 43.087 73.5368L42.2097 72.6328C41.5408 71.9435 40.5538 71.7402 39.6765 72.113C38.7553 72.5085 38.1851 73.3673 38.1851 74.339V75.6159C38.1851 78.0226 36.2769 79.9887 33.9411 79.9887L33.952 80Z" fill="#1A2E50"/>
<path d="M30.2785 68.3954C19.7946 68.3954 11.2627 59.6045 11.2627 48.8022C11.2627 37.9999 19.7946 29.209 30.2785 29.209C30.6404 29.209 31.0132 29.209 31.3751 29.2429C32.0989 29.2881 32.6472 29.9208 32.6033 30.6666C32.5595 31.4124 31.9454 31.966 31.2216 31.9321C30.9145 31.9095 30.5965 31.9095 30.2785 31.9095C21.2312 31.9095 13.8727 39.4915 13.8727 48.8135C13.8727 58.1355 21.2312 65.7175 30.2785 65.7175C39.3258 65.7175 46.6842 58.1355 46.6842 48.8135C46.6842 48.0677 47.2654 47.4689 47.9892 47.4689C48.713 47.4689 49.2942 48.0677 49.2942 48.8135C49.2942 59.6158 40.7624 68.4067 30.2785 68.4067V68.3954Z" fill="#1A2E50"/>
<path d="M30.2783 62.5423C22.9308 62.5423 16.9541 56.3842 16.9541 48.8135C16.9541 41.2429 22.9308 35.0847 30.2783 35.0847C30.8157 35.0847 31.353 35.1186 31.8904 35.1864C32.6032 35.2768 33.1186 35.9435 33.0309 36.6779C32.9431 37.4124 32.2961 37.9435 31.5833 37.8531C31.1556 37.7966 30.717 37.774 30.2893 37.774C24.3784 37.774 19.5641 42.7344 19.5641 48.8248C19.5641 54.9152 24.3784 59.8757 30.2893 59.8757C36.2002 59.8757 41.0144 54.9152 41.0144 48.8248C41.0144 48.0791 41.5956 47.4802 42.3194 47.4802C43.0432 47.4802 43.6244 48.0791 43.6244 48.8248C43.6244 56.3954 37.6477 62.5536 30.3002 62.5536L30.2783 62.5423Z" fill="#1A2E50"/>
<path d="M60.2716 46.1808H54.92C53.0228 46.1808 51.4765 44.5875 51.4765 42.6327V41.7062C51.4765 41.1525 51.1475 40.644 50.6431 40.4294C50.1057 40.2034 49.5355 40.3164 49.1517 40.7118L48.5156 41.3672C47.2216 42.7118 44.9405 42.7118 43.6465 41.3672L39.8631 37.4689C39.2161 36.8022 38.8542 35.9096 38.8542 34.9604C38.8542 34.0113 39.2161 33.1186 39.8631 32.452L40.4992 31.7966C40.883 31.4011 40.9926 30.8135 40.7843 30.2938C40.5649 29.7401 40.0824 29.4011 39.5341 29.4011H38.6349C36.7377 29.4011 35.1914 27.8079 35.1914 25.8531V20.339C35.1914 18.3842 36.7377 16.7909 38.6349 16.7909H39.5341C40.0824 16.7909 40.565 16.452 40.7733 15.9435C40.9926 15.3898 40.883 14.8022 40.4992 14.4068L39.8631 13.7514C39.2161 13.0847 38.8542 12.1921 38.8542 11.2429C38.8542 10.2938 39.2161 9.40111 39.8631 8.73445L43.6465 4.83614C44.9954 3.45761 47.1777 3.45761 48.5156 4.83614L49.1517 5.49151C49.5355 5.88699 50.1057 5.99998 50.6102 5.78529C51.1475 5.55931 51.4765 5.06213 51.4765 4.49716V3.57061C51.4765 1.6158 53.0228 0.022583 54.92 0.022583H60.2716C62.1688 0.022583 63.7151 1.6158 63.7151 3.57061V4.49716C63.7151 5.06213 64.044 5.55931 64.5485 5.77399C65.0859 5.99998 65.6561 5.88699 66.0399 5.49151L66.676 4.83614C68.0249 3.45761 70.2072 3.45761 71.5451 4.83614L75.3285 8.73445C75.9755 9.40111 76.3374 10.2938 76.3374 11.2429C76.3374 12.1921 75.9755 13.0847 75.3285 13.7514L74.6924 14.4068C74.3086 14.8022 74.1989 15.3898 74.4073 15.9096C74.6266 16.4633 75.1092 16.8022 75.6575 16.8022H76.5567C78.4539 16.8022 80.0002 18.3955 80.0002 20.3503V25.8644C80.0002 27.8192 78.4539 29.4124 76.5567 29.4124H75.6575C75.1092 29.4124 74.6266 29.7514 74.4183 30.2712C74.199 30.8248 74.3086 31.4124 74.6924 31.8079L75.3285 32.4633C75.9755 33.1299 76.3374 34.0226 76.3374 34.9717C76.3374 35.9209 75.9755 36.8135 75.3285 37.4802L71.5451 41.3785C70.2401 42.7231 67.97 42.7231 66.676 41.3785L66.0399 40.7231C65.6561 40.3277 65.0859 40.2147 64.5814 40.4294C64.044 40.6553 63.7151 41.1525 63.7151 41.7175V42.644C63.7151 44.5989 62.1688 46.1921 60.2716 46.1921V46.1808ZM50.0948 37.6158C50.6102 37.6158 51.1146 37.7175 51.6081 37.9322C53.1215 38.5762 54.0865 40.0452 54.0865 41.7062V42.6327C54.0865 43.1073 54.4594 43.4915 54.92 43.4915H60.2716C60.7322 43.4915 61.105 43.1073 61.105 42.6327V41.7062C61.105 40.0565 62.0591 38.5763 63.5506 37.9435C65.0639 37.2994 66.7528 37.6384 67.8823 38.8135L68.5183 39.4689C68.8364 39.7966 69.3847 39.7966 69.7027 39.4689L73.4861 35.5706C73.6397 35.4124 73.7274 35.1864 73.7274 34.9604C73.7274 34.7344 73.6397 34.5198 73.4861 34.3503L72.8501 33.6949C71.7205 32.5311 71.3806 30.7909 71.9947 29.2655C72.6198 27.7062 74.0454 26.7118 75.6575 26.7118H76.5567C77.0173 26.7118 77.3902 26.3277 77.3902 25.8531V20.339C77.3902 19.8644 77.0173 19.4802 76.5567 19.4802H75.6575C74.0564 19.4802 72.6198 18.4972 72.0057 16.9604C71.3806 15.4011 71.7096 13.661 72.8501 12.4972L73.4861 11.8418C73.6397 11.6836 73.7274 11.4576 73.7274 11.2316C73.7274 11.0056 73.6397 10.7796 73.4861 10.6215L69.7027 6.72315C69.3737 6.38416 68.8473 6.38416 68.5183 6.72315L67.8823 7.37851C66.7528 8.54236 65.0639 8.89264 63.5835 8.25987C62.0701 7.6158 61.105 6.14688 61.105 4.48586V3.55931C61.105 3.08473 60.7322 2.70055 60.2716 2.70055H54.92C54.4594 2.70055 54.0865 3.08473 54.0865 3.55931V4.48586C54.0865 6.13558 53.1325 7.6158 51.641 8.24857C50.1277 8.89264 48.4388 8.55366 47.3093 7.37851L46.6732 6.72315C46.3443 6.38416 45.8179 6.38416 45.4889 6.72315L41.7055 10.6215C41.5519 10.7796 41.4642 11.0056 41.4642 11.2316C41.4642 11.4576 41.5519 11.6836 41.7055 11.8418L42.3415 12.4972C43.4711 13.661 43.811 15.4011 43.1969 16.9265C42.5718 18.4859 41.1462 19.4802 39.5341 19.4802H38.6349C38.1743 19.4802 37.8014 19.8644 37.8014 20.339V25.8531C37.8014 26.3277 38.1743 26.7118 38.6349 26.7118H39.5341C41.1352 26.7118 42.5718 27.6949 43.1859 29.2316C43.811 30.7909 43.4711 32.5311 42.3415 33.6949L41.7055 34.3503C41.5519 34.5085 41.4642 34.7344 41.4642 34.9604C41.4642 35.1864 41.5519 35.4124 41.7055 35.5706L45.4889 39.4689C45.8069 39.7966 46.3552 39.7966 46.6732 39.4689L47.3093 38.8135C48.066 38.0339 49.0639 37.6271 50.0948 37.6271V37.6158Z" fill="#FFA502"/>
<path d="M57.5956 37.7288C49.7655 37.7288 43.394 31.1638 43.394 23.096C43.394 15.0282 49.7655 8.46326 57.5956 8.46326C65.4256 8.46326 71.7971 15.0282 71.7971 23.096C71.7971 31.1638 65.4256 37.7288 57.5956 37.7288ZM57.5956 11.1525C51.2021 11.1525 46.0041 16.5085 46.0041 23.096C46.0041 29.6836 51.2021 35.0395 57.5956 35.0395C63.989 35.0395 69.1871 29.6836 69.1871 23.096C69.1871 16.5085 63.989 11.1525 57.5956 11.1525Z" fill="#FFA502"/>
<path d="M57.5954 32.5197C52.5509 32.5197 48.4385 28.2824 48.4385 23.0847C48.4385 17.8869 52.5509 13.6497 57.5954 13.6497C62.64 13.6497 66.7524 17.8869 66.7524 23.0847C66.7524 28.2824 62.64 32.5197 57.5954 32.5197ZM57.5954 16.3389C53.9875 16.3389 51.0485 19.3672 51.0485 23.0847C51.0485 26.8022 53.9875 29.8305 57.5954 29.8305C61.2034 29.8305 64.1424 26.8022 64.1424 23.0847C64.1424 19.3672 61.2034 16.3389 57.5954 16.3389Z" fill="#FFA502"/>
</g>
<defs>
<clipPath id="clip0_17_9174">
<rect width="80" height="80" fill="white"/>
</clipPath>
</defs>
</svg>
