<svg width="80" height="80" viewBox="0 0 80 80" fill="none" xmlns="http://www.w3.org/2000/svg">
<g clip-path="url(#clip0_17_9216)">
<path d="M29.1206 70.1718C28.7759 70.1718 28.4514 70.0238 28.2081 69.7702L18.454 59.6038C18.1498 59.2867 18.0281 58.864 18.0889 58.4201C19.4679 50.325 23.1586 42.9485 28.7759 37.115C36.9483 28.5971 48.2233 24.3911 59.7214 25.5536C60.3298 25.617 60.8164 26.1242 60.8773 26.7583C61.9926 38.7425 57.9368 50.5152 49.7848 59.0119C44.1878 64.8455 37.1105 68.6923 29.3437 70.1507C29.2626 70.1507 29.2017 70.1507 29.1206 70.1507V70.1718ZM20.7657 58.2299L29.5668 67.403C36.563 65.9657 42.9305 62.436 48.0002 57.152C55.3614 49.4796 59.1536 38.9538 58.4438 28.1533C48.0813 27.4347 37.9825 31.366 30.6213 39.0384C25.5516 44.3224 22.165 50.9591 20.786 58.251L20.7657 58.2299Z" fill="#FFA502"/>
<path d="M23.4219 73.7649C23.0772 73.7649 22.7527 73.6169 22.5094 73.3633L15.0062 65.5429C14.4992 65.0145 14.4992 64.1691 15.0062 63.6618L19.5892 58.8851C20.0759 58.3778 20.9276 58.3778 21.394 58.8851L28.8972 66.7054C29.4042 67.2338 29.4042 68.0793 28.8972 68.5865L24.3142 73.3633C24.0708 73.6169 23.7464 73.7649 23.4016 73.7649H23.4219ZM17.7236 64.5918L23.4219 70.5311L26.1798 67.6565L20.4815 61.7173L17.7236 64.5918Z" fill="#FFA502"/>
<path d="M32.5272 56.4544C32.2027 56.4544 31.8782 56.3276 31.6146 56.0528C31.1076 55.5244 31.1076 54.679 31.6146 54.1717L43.9644 41.2999C44.4714 40.7715 45.2825 40.7715 45.7692 41.2999C46.2559 41.8283 46.2762 42.6737 45.7692 43.181L33.4194 56.0528C33.1761 56.3065 32.8313 56.4544 32.5069 56.4544H32.5272Z" fill="#FFA502"/>
<path d="M45.6681 80C45.3234 80 44.9989 79.8521 44.7556 79.5985L33.8456 68.2273C33.3386 67.6989 33.3386 66.8534 33.8456 66.3461C34.3525 65.8177 35.1637 65.8177 35.6504 66.3461L45.5262 76.6605C47.696 73.5747 53.151 64.5284 51.4273 53.6011C51.3056 52.8825 51.7923 52.185 52.4818 52.0582C53.1713 51.9313 53.8405 52.4386 53.9622 53.1572C56.274 67.9102 47.0065 79.0701 46.6009 79.5562C46.3576 79.831 46.0331 80 45.6884 80C45.6884 80 45.6681 80 45.6478 80H45.6681Z" fill="#FFA502"/>
<path d="M20.8467 54.1295C20.5223 54.1295 20.1978 54.0027 19.9342 53.7279L9.02416 42.3567C8.78082 42.1031 8.63886 41.7437 8.65914 41.3633C8.65914 41.004 8.82137 40.6447 9.085 40.4122C9.53113 39.9895 20.2586 30.3303 34.4133 32.7398C35.1027 32.8666 35.5894 33.543 35.4678 34.2827C35.3461 35.0013 34.6972 35.5086 33.9874 35.3818C23.4627 33.5852 14.8036 39.2708 11.8632 41.5324L21.7593 51.8468C22.2662 52.3752 22.2662 53.2206 21.7593 53.7279C21.5159 53.9815 21.1712 54.1295 20.8467 54.1295Z" fill="#FFA502"/>
<path d="M14.5604 79.4716C12.2487 79.4716 10.6669 78.5838 10.5655 78.5204C10.3627 78.3936 10.1802 78.2245 10.0788 78.0132C9.97743 77.8229 7.6048 73.2787 10.9508 67.9524C11.3361 67.3395 12.127 67.1704 12.7353 67.5719C13.3234 67.9735 13.4857 68.7978 13.1004 69.4319C11.0725 72.6657 11.8025 75.4346 12.1675 76.3857C13.0801 76.7661 15.7366 77.527 18.8393 75.4134C19.4274 75.0118 20.2182 75.1809 20.6238 75.7939C21.0091 76.4068 20.8469 77.2311 20.2588 77.6539C18.1701 79.07 16.203 79.5138 14.601 79.5138L14.5604 79.4716Z" fill="#FFA502"/>
<path d="M30.2764 26.0396C30.1548 26.0396 30.0128 26.0396 29.8709 25.9762C29.2017 25.7437 28.8366 25.004 29.0394 24.2854L29.9317 21.432C30.1953 20.5865 29.9114 19.6777 29.2219 19.1493L26.2004 16.8666C24.5984 15.6407 23.9494 13.5694 24.5578 11.6037C25.1662 9.63806 26.8493 8.34876 28.8569 8.34876H32.5882C33.4399 8.34876 34.1903 7.77809 34.4539 6.93265L35.6098 3.23384C36.2181 1.26818 37.9013 -0.0211182 39.9089 -0.0211182C41.9165 -0.0211182 43.5794 1.24705 44.208 3.23384L45.3639 6.93265C45.6275 7.77809 46.3778 8.34876 47.2295 8.34876H50.9608C52.9482 8.34876 54.6313 9.61693 55.26 11.6037C55.8683 13.5694 55.2397 15.6407 53.6174 16.8666L50.5958 19.1493C49.9063 19.6777 49.6224 20.5865 49.8861 21.432C50.1091 22.1295 49.7441 22.8904 49.0546 23.1229C48.3854 23.3554 47.6554 22.9749 47.4323 22.2563C46.824 20.3118 47.4932 18.1982 49.0749 16.9934L52.0965 14.7107C52.9482 14.0766 53.009 13.1255 52.8062 12.428C52.6034 11.7517 51.9951 11.0119 50.9406 11.0119H47.2093C45.2422 11.0119 43.5185 9.70147 42.9102 7.75695L41.7543 4.05814C41.4298 3.02248 40.5781 2.64203 39.9089 2.64203C39.2397 2.64203 38.3677 3.00134 38.0432 4.03701L36.8873 7.73582C36.279 9.68034 34.5553 10.9908 32.5882 10.9908H28.8569C27.8024 10.9908 27.2143 11.7094 27.0115 12.4069C26.8088 13.0832 26.8696 14.0344 27.7213 14.6896L30.7429 16.9723C32.3246 18.177 32.9938 20.2906 32.3854 22.2352L31.4932 25.0885C31.3107 25.6592 30.824 26.0185 30.2764 26.0185V26.0396Z" fill="#1A2E50"/>
<path d="M69.0901 77.7596C68.1573 77.7596 67.2448 77.4637 66.4336 76.8508L63.4121 74.5681C62.7226 74.0397 61.81 74.0397 61.1206 74.5681L58.099 76.8508C57.6732 77.1678 57.227 77.4003 56.7403 77.5694C56.0711 77.7808 55.3411 77.4003 55.1383 76.6817C54.9355 75.9842 55.3005 75.2233 55.99 75.0119C56.1928 74.9485 56.3956 74.8428 56.5984 74.6949L59.6199 72.4122C61.2017 71.2074 63.331 71.2074 64.933 72.4122L67.9545 74.6949C68.8062 75.329 69.6985 75.1176 70.246 74.6949C70.7936 74.2722 71.2803 73.4479 70.9558 72.4122L69.7999 68.7134C69.1915 66.7689 69.8607 64.6553 71.4425 63.4505L74.464 61.1678C75.3157 60.5337 75.3766 59.5826 75.1738 58.8851C74.971 58.2088 74.3626 57.469 73.3081 57.469H69.5768C67.6098 57.469 65.8861 56.1586 65.2777 54.214L64.1218 50.5152C63.8988 49.8177 63.4729 49.4796 63.1484 49.3105C62.5198 48.9934 62.2359 48.1903 62.5401 47.535C62.8443 46.8798 63.6149 46.5839 64.2435 46.901C65.3386 47.4505 66.1497 48.4439 66.535 49.6698L67.6909 53.3686C67.9545 54.214 68.7048 54.7847 69.5363 54.7847H73.2676C75.2549 54.7847 76.9381 56.0529 77.5667 58.0397C78.1953 60.0265 77.5464 62.0767 75.9241 63.3026L72.9026 65.5852C72.2131 66.1136 71.9292 67.0225 72.1928 67.8679L73.3487 71.5668C73.9571 73.5324 73.3284 75.6037 71.7061 76.8296C70.895 77.4426 69.9824 77.7385 69.0496 77.7385L69.0901 77.7596Z" fill="#1A2E50"/>
<path d="M6.00266 53.8759C5.29291 53.8759 4.7251 53.284 4.7251 52.5443V51.3184C4.7251 50.5786 5.29291 49.9868 6.00266 49.9868C6.71242 49.9868 7.28023 50.5786 7.28023 51.3184V52.5443C7.28023 53.284 6.71242 53.8759 6.00266 53.8759Z" fill="#1A2E50"/>
<path d="M6.00266 62.4994C5.29291 62.4994 4.7251 61.9076 4.7251 61.1678V59.9419C4.7251 59.2022 5.29291 58.6104 6.00266 58.6104C6.71242 58.6104 7.28023 59.2022 7.28023 59.9419V61.1678C7.28023 61.9076 6.71242 62.4994 6.00266 62.4994Z" fill="#1A2E50"/>
<path d="M10.7277 57.5746H9.55149C8.84173 57.5746 8.27393 56.9828 8.27393 56.2431C8.27393 55.5033 8.84173 54.9115 9.55149 54.9115H10.7277C11.4374 54.9115 12.0052 55.5033 12.0052 56.2431C12.0052 56.9828 11.4374 57.5746 10.7277 57.5746Z" fill="#1A2E50"/>
<path d="M2.45374 57.5746H1.27757C0.567807 57.5746 0 56.9828 0 56.2431C0 55.5033 0.567807 54.9115 1.27757 54.9115H2.45374C3.1635 54.9115 3.73131 55.5033 3.73131 56.2431C3.73131 56.9828 3.1635 57.5746 2.45374 57.5746Z" fill="#1A2E50"/>
<path d="M18.1496 22.3408C17.4399 22.3408 16.8721 21.749 16.8721 21.0092V19.7834C16.8721 19.0436 17.4399 18.4518 18.1496 18.4518C18.8594 18.4518 19.4272 19.0436 19.4272 19.7834V21.0092C19.4272 21.749 18.8594 22.3408 18.1496 22.3408Z" fill="#1A2E50"/>
<path d="M18.1496 30.9643C17.4399 30.9643 16.8721 30.3725 16.8721 29.6328V28.4069C16.8721 27.6671 17.4399 27.0753 18.1496 27.0753C18.8594 27.0753 19.4272 27.6671 19.4272 28.4069V29.6328C19.4272 30.3725 18.8594 30.9643 18.1496 30.9643Z" fill="#1A2E50"/>
<path d="M22.8746 26.0396H21.6985C20.9887 26.0396 20.4209 25.4478 20.4209 24.708C20.4209 23.9683 20.9887 23.3765 21.6985 23.3765H22.8746C23.5844 23.3765 24.1522 23.9683 24.1522 24.708C24.1522 25.4478 23.5844 26.0396 22.8746 26.0396Z" fill="#1A2E50"/>
<path d="M14.5807 26.0396H13.4045C12.6948 26.0396 12.127 25.4478 12.127 24.708C12.127 23.9683 12.6948 23.3765 13.4045 23.3765H14.5807C15.2905 23.3765 15.8583 23.9683 15.8583 24.708C15.8583 25.4478 15.2905 26.0396 14.5807 26.0396Z" fill="#1A2E50"/>
<path d="M73.9973 37.432C73.2875 37.432 72.7197 36.8402 72.7197 36.1004V34.8745C72.7197 34.1348 73.2875 33.543 73.9973 33.543C74.7071 33.543 75.2749 34.1348 75.2749 34.8745V36.1004C75.2749 36.8402 74.7071 37.432 73.9973 37.432Z" fill="#1A2E50"/>
<path d="M73.9973 46.0555C73.2875 46.0555 72.7197 45.4637 72.7197 44.724V43.4981C72.7197 42.7583 73.2875 42.1665 73.9973 42.1665C74.7071 42.1665 75.2749 42.7583 75.2749 43.4981V44.724C75.2749 45.4637 74.7071 46.0555 73.9973 46.0555Z" fill="#1A2E50"/>
<path d="M78.7223 41.1308H77.5461C76.8364 41.1308 76.2686 40.539 76.2686 39.7992C76.2686 39.0595 76.8364 38.4677 77.5461 38.4677H78.7223C79.4321 38.4677 79.9999 39.0595 79.9999 39.7992C79.9999 40.539 79.4321 41.1308 78.7223 41.1308Z" fill="#1A2E50"/>
<path d="M70.4489 41.1308H69.2727C68.5629 41.1308 67.9951 40.539 67.9951 39.7992C67.9951 39.0595 68.5629 38.4677 69.2727 38.4677H70.4489C71.1586 38.4677 71.7264 39.0595 71.7264 39.7992C71.7264 40.539 71.1586 41.1308 70.4489 41.1308Z" fill="#1A2E50"/>
<path d="M66.4538 11.2655C65.7441 11.2655 65.1763 10.6737 65.1763 9.93393V8.70804C65.1763 7.96827 65.7441 7.37646 66.4538 7.37646C67.1636 7.37646 67.7314 7.96827 67.7314 8.70804V9.93393C67.7314 10.6737 67.1636 11.2655 66.4538 11.2655Z" fill="#1A2E50"/>
<path d="M66.4538 19.9102C65.7441 19.9102 65.1763 19.3183 65.1763 18.5786V17.3527C65.1763 16.6129 65.7441 16.0211 66.4538 16.0211C67.1636 16.0211 67.7314 16.6129 67.7314 17.3527V18.5786C67.7314 19.3183 67.1636 19.9102 66.4538 19.9102Z" fill="#1A2E50"/>
<path d="M71.1788 14.9854H70.0027C69.2929 14.9854 68.7251 14.3936 68.7251 13.6538C68.7251 12.9141 69.2929 12.3223 70.0027 12.3223H71.1788C71.8886 12.3223 72.4564 12.9141 72.4564 13.6538C72.4564 14.3936 71.8886 14.9854 71.1788 14.9854Z" fill="#1A2E50"/>
<path d="M62.9049 14.9854H61.7287C61.019 14.9854 60.4512 14.3936 60.4512 13.6538C60.4512 12.9141 61.019 12.3223 61.7287 12.3223H62.9049C63.6147 12.3223 64.1825 12.9141 64.1825 13.6538C64.1825 14.3936 63.6147 14.9854 62.9049 14.9854Z" fill="#1A2E50"/>
</g>
<defs>
<clipPath id="clip0_17_9216">
<rect width="80" height="80" fill="white"/>
</clipPath>
</defs>
</svg>
