<svg width="890" height="470" viewBox="0 0 890 470" fill="none" xmlns="http://www.w3.org/2000/svg">
<g filter="url(#filter0_d_10_8571)">
<path fill-rule="evenodd" clip-rule="evenodd" d="M100.868 138.366L216.189 71L331.85 138.135L331.85 138.135L331.477 271.736L216.157 339.11L216.157 339.11L100.496 271.975L100.868 138.366L100.868 138.366Z" fill="white"/>
</g>
<path d="M216.68 203.901L335.869 134.644L335.476 271.996L216.287 341.262L216.68 203.901Z" fill="#DFE1E2"/>
<mask id="mask0_10_8571" style="mask-type:luminance" maskUnits="userSpaceOnUse" x="97" y="134" width="121" height="208">
<path d="M217.065 203.786L216.672 341.139L97.1309 272.119L97.5237 134.766L217.065 203.786Z" fill="white"/>
</mask>
<g mask="url(#mask0_10_8571)">
<path d="M217.065 203.786L216.672 341.139L97.1309 272.119L97.5237 134.766L217.065 203.786Z" fill="#FCF300"/>
<path d="M94.3315 228.873L127.726 171.033C128.094 171.598 128.52 172.121 128.987 172.563L95.6329 230.363L95.1173 229.773L94.3315 228.873Z" fill="white"/>
<path d="M130.206 164.624C132.318 165.844 134.037 168.815 134.029 171.262C134.029 171.573 133.996 171.86 133.947 172.113C133.848 172.613 133.652 173.022 133.382 173.333C132.694 174.135 131.508 174.241 130.173 173.472C129.756 173.235 129.363 172.924 128.987 172.572C128.52 172.13 128.094 171.606 127.726 171.041C126.875 169.74 126.335 168.201 126.343 166.826C126.343 164.379 128.078 163.397 130.206 164.624Z" fill="white"/>
<path d="M133.382 173.333C133.644 173.022 133.84 172.621 133.947 172.113L165.786 209.517C165.45 209.729 165.188 210.057 165.008 210.482L133.382 173.325V173.333Z" fill="white"/>
<path d="M168.602 209.738C170.018 210.556 171.254 212.152 171.916 213.846C172.154 214.46 172.326 215.09 172.399 215.696C172.424 215.925 172.44 216.154 172.44 216.383C172.44 218.814 170.705 219.796 168.577 218.569C166.449 217.341 164.73 214.37 164.738 211.939C164.738 211.374 164.837 210.883 165 210.491C165.18 210.065 165.45 209.738 165.778 209.525C166.482 209.066 167.48 209.099 168.593 209.746L168.602 209.738Z" fill="white"/>
<path d="M171.917 213.838L200.441 221.949C200.441 222.53 200.547 223.136 200.727 223.741L172.399 215.688C172.326 215.074 172.162 214.452 171.917 213.838Z" fill="white"/>
<g opacity="0.2">
<path d="M133.382 173.333L165.008 210.491C164.836 210.892 164.746 211.374 164.746 211.939C164.746 214.37 166.457 217.341 168.585 218.569C170.713 219.796 172.44 218.814 172.448 216.383C172.448 216.162 172.432 215.925 172.407 215.696L200.735 223.749C201.308 225.689 202.683 227.613 204.288 228.537C205.368 229.159 206.342 229.217 207.046 228.791L218.89 245.479L219.143 245.217L218.996 355.774L218.906 387.514L94.7324 315.834L94.937 243.016L94.978 230.019L95.6328 230.363L128.986 172.563C129.363 172.915 129.756 173.226 130.173 173.464C131.507 174.233 132.686 174.127 133.382 173.325V173.333Z" fill="#FF5403"/>
</g>
<path d="M207.84 227.866L219.725 244.612L219.135 245.217L218.882 245.479L207.038 228.791C207.374 228.586 207.652 228.275 207.84 227.866Z" fill="white"/>
<path d="M204.304 219.69C206.432 220.918 208.151 223.889 208.143 226.336C208.143 226.941 208.037 227.457 207.84 227.866C207.652 228.275 207.374 228.587 207.038 228.791C206.334 229.209 205.36 229.159 204.28 228.537C202.675 227.613 201.3 225.689 200.727 223.749C200.547 223.144 200.449 222.538 200.441 221.957C200.441 221.932 200.441 221.916 200.441 221.892C200.441 219.444 202.176 218.462 204.304 219.69Z" fill="white"/>
<path opacity="0.3" d="M198.886 261.521C199.23 263.755 200.785 266.178 202.651 267.258C203.789 267.913 204.812 267.938 205.516 267.447L217.859 288.276L218.366 287.965L218.137 370.744L218.047 402.483L93.8813 330.795L94.086 257.977L94.1842 224.682L94.6262 225.583L120.024 217.136C120.654 218.937 121.947 220.656 123.445 221.523C125.287 222.587 126.842 221.973 127.21 220.181L159.279 251.56C159.271 254.065 160.99 257.052 163.109 258.28C165.221 259.499 166.948 258.501 166.956 256.07C166.956 255.563 166.883 255.031 166.752 254.499L198.894 261.505L198.886 261.521Z" fill="#FF5403"/>
<path d="M127.219 218.421C126.883 216.187 125.328 213.748 123.462 212.676C121.334 211.448 119.607 212.43 119.599 214.877C119.599 214.967 119.599 215.057 119.599 215.148C119.623 215.663 119.738 216.203 119.901 216.743C119.738 216.203 119.623 215.671 119.599 215.148L93.7261 223.758L94.1844 224.682L94.6264 225.583L120.024 217.136C120.654 218.937 121.948 220.656 123.446 221.523C125.287 222.587 126.842 221.973 127.211 220.181L159.279 251.56C159.287 250.979 159.394 250.488 159.582 250.087L127.227 218.421H127.219Z" fill="white"/>
<path d="M206.285 266.415C206.433 266.031 206.515 265.572 206.515 265.049C206.515 262.601 204.804 259.63 202.676 258.403C200.81 257.322 199.246 257.953 198.894 259.778L166.007 252.6C165.303 251.274 164.28 250.095 163.134 249.432C161.538 248.516 160.171 248.835 159.582 250.087C159.394 250.488 159.287 250.979 159.279 251.56C159.279 251.585 159.279 251.61 159.279 251.642C159.279 254.073 160.99 257.06 163.118 258.288C165.23 259.508 166.957 258.509 166.965 256.078C166.965 255.571 166.891 255.039 166.76 254.507L198.903 261.513C199.246 263.747 200.801 266.17 202.668 267.25C203.805 267.905 204.828 267.93 205.532 267.438L217.875 288.268L218.383 287.957L218.882 287.646L206.302 266.415H206.285Z" fill="white"/>
<g opacity="0.4">
<path d="M210.656 252.076L218.563 262.831L218.89 262.462L219.504 381.973L219.414 413.712L95.2568 342.032L95.4615 269.214L96.4764 220.828L97.0002 221.515L126.335 204.041C126.965 204.917 127.735 205.67 128.561 206.145C129.232 206.537 129.871 206.701 130.419 206.668L158.281 281.057C158.281 281.057 161.178 285.24 160.352 283.979L205.925 250.267C206.474 250.938 207.104 251.495 207.783 251.888C208.921 252.543 209.944 252.567 210.648 252.076H210.656Z" fill="#FF5403"/>
</g>
<path d="M204.812 248.565C205.123 249.171 205.5 249.752 205.926 250.275L162.807 283.988C162.423 283.398 161.972 282.858 161.473 282.4L204.804 248.565H204.812Z" fill="white"/>
<path d="M211.401 251.086L219.373 261.914L218.89 262.462L218.563 262.831L210.656 252.076C210.975 251.847 211.237 251.52 211.409 251.086H211.401Z" fill="white"/>
<path d="M207.808 243.049C209.936 244.276 211.655 247.247 211.646 249.694C211.646 250.235 211.556 250.701 211.401 251.094C211.229 251.528 210.975 251.855 210.648 252.084C209.944 252.575 208.921 252.559 207.783 251.896C207.112 251.503 206.473 250.938 205.925 250.275C205.499 249.76 205.123 249.179 204.812 248.565C204.264 247.485 203.944 246.314 203.944 245.25C203.944 242.803 205.68 241.821 207.808 243.049Z" fill="white"/>
<path d="M128.586 197.305C130.714 198.533 132.433 201.504 132.425 203.951C132.425 205.015 132.089 205.809 131.541 206.251C131.23 206.505 130.853 206.644 130.419 206.668C129.871 206.701 129.232 206.537 128.561 206.145C127.726 205.662 126.965 204.917 126.335 204.041C125.942 203.485 125.598 202.879 125.336 202.257C124.952 201.34 124.722 200.391 124.731 199.499C124.731 197.052 126.466 196.069 128.594 197.297L128.586 197.305Z" fill="white"/>
<path d="M130.419 206.677C130.845 206.652 131.23 206.505 131.541 206.259L159.247 282.392C158.903 282.613 158.625 282.94 158.436 283.382L130.419 206.677Z" fill="white"/>
<path d="M125.328 202.265C125.59 202.887 125.934 203.493 126.327 204.049L96.9921 221.523L96.5583 220.778L95.9526 219.747L125.328 202.265Z" fill="white"/>
<path d="M160.36 279.961C160.745 280.182 161.113 280.46 161.465 280.787C161.956 281.246 162.406 281.786 162.799 282.375C163.658 283.685 164.199 285.232 164.199 286.607C164.199 289.054 162.463 290.036 160.335 288.808C158.207 287.581 156.488 284.61 156.497 282.162C156.497 281.598 156.595 281.115 156.759 280.714C156.947 280.272 157.217 279.944 157.569 279.723C158.273 279.281 159.263 279.322 160.36 279.961Z" fill="white"/>
</g>
<mask id="mask1_10_8571" style="mask-type:luminance" maskUnits="userSpaceOnUse" x="216" y="134" width="121" height="208">
<path d="M216.107 203.786L216.5 341.139L336.041 272.119L335.656 134.766L216.107 203.786Z" fill="white"/>
</mask>
<g mask="url(#mask1_10_8571)">
<path d="M216.107 203.786L216.5 341.139L336.041 272.119L335.656 134.766L216.107 203.786Z" fill="#FCF300"/>
<path opacity="0.2" d="M234.294 210.362C233.95 212.596 232.395 215.019 230.529 216.099C229.391 216.754 228.368 216.778 227.664 216.287L215.534 241.316L215.027 241.005L215.051 319.576L215.141 351.316L339.299 279.635L339.094 206.818L338.996 173.523L338.554 174.423L313.156 165.977C312.526 167.778 311.233 169.496 309.735 170.364C307.893 171.428 306.338 170.814 305.97 169.022L273.901 200.401C273.909 202.906 272.19 205.893 270.071 207.121C267.959 208.34 266.232 207.342 266.224 204.911C266.224 204.403 266.297 203.871 266.428 203.339L234.286 210.345L234.294 210.362Z" fill="#FF5403"/>
<path d="M305.961 167.27C306.297 165.036 307.852 162.597 309.718 161.525C311.846 160.297 313.573 161.279 313.582 163.726C313.582 163.816 313.582 163.906 313.582 163.996C313.557 164.512 313.442 165.052 313.279 165.592C313.442 165.052 313.557 164.52 313.582 163.996L339.462 172.598L339.004 173.523L338.562 174.423L313.164 165.977C312.534 167.778 311.241 169.496 309.743 170.364C307.901 171.428 306.346 170.814 305.978 169.022L273.909 200.401C273.901 199.82 273.795 199.329 273.606 198.928L305.961 167.262V167.27Z" fill="white"/>
<path d="M226.895 215.264C226.748 214.88 226.666 214.421 226.666 213.897C226.666 211.45 228.376 208.479 230.504 207.252C232.371 206.171 233.934 206.801 234.286 208.627L267.173 201.449C267.877 200.123 268.9 198.944 270.046 198.281C271.642 197.365 273.009 197.684 273.598 198.936C273.786 199.337 273.893 199.828 273.901 200.409C273.901 200.434 273.901 200.458 273.901 200.491C273.901 202.922 272.19 205.909 270.062 207.137C267.951 208.356 266.224 207.358 266.215 204.927C266.215 204.42 266.289 203.888 266.42 203.356L234.278 210.362C233.934 212.596 232.379 215.019 230.513 216.099C229.375 216.754 228.352 216.778 227.648 216.287L216.271 241.16L215.763 240.849L215.264 240.538L226.879 215.256L226.895 215.264Z" fill="white"/>
<path d="M355.488 228.965L305.454 210.19C305.085 210.755 304.66 211.278 304.193 211.72L354.187 230.455L354.703 229.865L355.488 228.965Z" fill="white"/>
<path d="M302.974 203.773C300.862 204.993 299.143 207.964 299.151 210.411C299.151 210.722 299.184 211.008 299.233 211.262C299.331 211.761 299.528 212.17 299.798 212.481C300.486 213.284 301.672 213.39 303.007 212.621C303.424 212.383 303.817 212.072 304.193 211.72C304.66 211.278 305.085 210.755 305.454 210.19C306.305 208.888 306.845 207.35 306.837 205.975C306.837 203.528 305.102 202.545 302.974 203.773Z" fill="white"/>
<path d="M299.798 212.481C299.536 212.17 299.34 211.769 299.233 211.262L267.394 248.665C267.73 248.878 267.992 249.205 268.172 249.631L299.798 212.473V212.481Z" fill="white"/>
<path d="M264.578 248.894C263.162 249.713 261.926 251.309 261.263 253.003C261.026 253.617 260.854 254.247 260.78 254.853C260.756 255.082 260.739 255.311 260.739 255.54C260.739 257.971 262.474 258.953 264.603 257.726C266.731 256.498 268.449 253.527 268.441 251.096C268.441 250.531 268.343 250.04 268.179 249.647C267.999 249.222 267.729 248.894 267.402 248.682C266.698 248.223 265.699 248.256 264.586 248.903L264.578 248.894Z" fill="white"/>
<path d="M261.263 252.995L232.739 261.106C232.739 261.687 232.632 262.292 232.452 262.898L260.78 254.845C260.854 254.231 261.018 253.609 261.263 252.995Z" fill="white"/>
<g opacity="0.3">
<path d="M299.798 212.481L268.171 249.639C268.343 250.04 268.433 250.523 268.433 251.088C268.433 253.519 266.723 256.49 264.595 257.717C262.467 258.945 260.739 257.963 260.731 255.532C260.731 255.311 260.748 255.074 260.772 254.845L232.444 262.898C231.871 264.838 230.496 266.761 228.892 267.686C227.812 268.308 226.838 268.365 226.134 267.94L215.518 285.062L215.264 284.8L214.184 394.923L214.274 426.662L338.431 354.982L362.593 284.628L359.139 230.275L358.484 230.618L304.177 211.712C303.8 212.064 303.408 212.375 302.99 212.612C301.656 213.382 300.477 213.275 299.782 212.473L299.798 212.481Z" fill="#FF5403"/>
</g>
<path d="M225.339 267.023L215.272 284.202L215.861 284.808L216.115 285.07L226.15 267.948C225.814 267.743 225.536 267.432 225.348 267.023H225.339Z" fill="white"/>
<path d="M228.875 258.839C226.747 260.066 225.028 263.037 225.037 265.484C225.037 266.09 225.143 266.606 225.34 267.015C225.528 267.424 225.806 267.735 226.142 267.94C226.846 268.357 227.82 268.308 228.9 267.686C230.504 266.761 231.879 264.838 232.452 262.898C232.632 262.292 232.73 261.687 232.739 261.106C232.739 261.081 232.739 261.065 232.739 261.04C232.739 258.593 231.003 257.611 228.875 258.839Z" fill="white"/>
<g opacity="0.4">
<path d="M262.237 238.435L237.24 291.176L214.724 255.049L215.935 340.839L216.025 371.425L335.697 302.339L335.877 234.228L335.697 171.281C335.697 171.281 310.716 239.646 311.519 238.426C311.519 238.426 262.925 238.901 262.237 238.426V238.435Z" fill="#FF5403"/>
</g>
<path d="M311.797 232.73C309.669 233.958 307.95 236.929 307.958 239.376C307.958 240.44 308.294 241.234 308.842 241.676C309.153 241.929 309.53 242.068 309.963 242.093C310.512 242.126 311.15 241.962 311.821 241.569C312.656 241.086 313.417 240.342 314.048 239.466C314.441 238.909 314.784 238.304 315.046 237.682C315.431 236.765 315.66 235.816 315.652 234.923C315.652 232.476 313.917 231.494 311.789 232.722L311.797 232.73Z" fill="white"/>
<path d="M237.65 287.877C235.522 289.105 233.803 292.076 233.811 294.523C233.811 295.587 234.147 296.381 234.695 296.823C235.006 297.077 235.383 297.216 235.816 297.24C236.365 297.273 237.003 297.109 237.674 296.717C238.509 296.234 239.27 295.489 239.901 294.613C240.294 294.057 240.637 293.451 240.899 292.829C241.284 291.912 241.513 290.963 241.505 290.071C241.505 287.624 239.77 286.641 237.642 287.869L237.65 287.877Z" fill="white"/>
<path d="M262.27 233.933C261.885 234.154 261.517 234.432 261.165 234.76C260.674 235.218 260.224 235.758 259.831 236.348C258.971 237.657 258.431 239.204 258.431 240.579C258.431 243.026 260.166 244.008 262.294 242.781C264.423 241.553 266.141 238.582 266.133 236.135C266.133 235.57 266.035 235.087 265.871 234.686C265.683 234.244 265.413 233.917 265.061 233.696C264.357 233.254 263.367 233.295 262.27 233.933Z" fill="white"/>
<path d="M214.732 255.049L237.24 291.176L262.237 238.435H311.519L335.877 169.357" stroke="white" stroke-width="1.5" stroke-miterlimit="10"/>
</g>
<path d="M99.6968 133.392L216.324 65.6235L333.303 133.16L216.676 200.929L99.6968 133.392Z" fill="#FCF300"/>
<g filter="url(#filter1_d_10_8571)">
<path fill-rule="evenodd" clip-rule="evenodd" d="M439.868 137.782L555.189 70.4161L670.85 137.551L670.85 137.552L670.477 271.152L555.157 338.526L555.157 338.526L439.496 271.391L439.868 137.782L439.868 137.782Z" fill="white"/>
</g>
<path d="M439.546 133.359L556.179 65.5839L673.156 133.127L556.532 200.903L439.546 133.359Z" fill="#FCF300"/>
<mask id="mask2_10_8571" style="mask-type:luminance" maskUnits="userSpaceOnUse" x="436" y="134" width="121" height="208">
<path d="M556.351 203.754L555.958 341.113L436.417 272.09L436.802 134.73L556.351 203.754Z" fill="white"/>
</mask>
<g mask="url(#mask2_10_8571)">
<path d="M556.351 203.754L555.958 341.113L436.417 272.09L436.802 134.73L556.351 203.754Z" fill="#FCF300"/>
<g opacity="0.2">
<path d="M526.157 197.098L556.769 224.566L556.368 366.256L435.673 296.561L435.91 211.462L441.885 218.501C441.828 218.788 441.795 219.099 441.795 219.442C441.795 222.225 443.735 225.606 446.158 227.005C448.58 228.405 450.545 227.284 450.553 224.501C450.553 223.15 450.095 221.661 449.342 220.318L478.816 205.315C479.585 206.527 480.584 207.574 481.68 208.213C484.103 209.612 486.076 208.499 486.084 205.716C486.084 204.759 485.855 203.727 485.454 202.729L518.995 194.151C519.789 195.616 520.943 196.909 522.22 197.646C523.947 198.644 525.437 198.358 526.157 197.114V197.098Z" fill="#FF5403"/>
</g>
<path d="M526.575 195.763L557.186 223.224L556.793 224.583L526.157 197.089C526.37 196.729 526.509 196.279 526.575 195.755V195.763Z" fill="white"/>
<path d="M522.253 187.562C524.676 188.962 526.624 192.342 526.616 195.125C526.616 195.346 526.599 195.559 526.575 195.763C526.509 196.287 526.37 196.729 526.157 197.098C525.437 198.35 523.947 198.628 522.22 197.63C520.943 196.893 519.798 195.6 518.995 194.135C518.676 193.545 518.414 192.931 518.218 192.309C517.981 191.556 517.85 190.795 517.858 190.075C517.858 187.292 519.83 186.171 522.253 187.57V187.562Z" fill="white"/>
<path d="M484.52 200.92L518.218 192.309C518.414 192.931 518.676 193.545 518.995 194.135L485.453 202.712C485.2 202.09 484.881 201.485 484.512 200.92H484.52Z" fill="white"/>
<path d="M435.787 211.315L436.459 210.234L442.401 217.249C442.155 217.584 441.983 218.002 441.885 218.501L435.91 211.462L435.779 211.307L435.787 211.315Z" fill="white"/>
<path d="M446.191 216.938C446.911 217.355 447.582 217.945 448.18 218.64C448.613 219.148 449.006 219.713 449.342 220.31C450.095 221.652 450.553 223.15 450.553 224.493C450.553 227.275 448.581 228.397 446.158 226.997C443.735 225.597 441.787 222.217 441.795 219.434C441.795 219.099 441.828 218.788 441.885 218.493C441.984 217.994 442.164 217.576 442.401 217.241C443.162 216.193 444.578 215.997 446.191 216.93V216.938Z" fill="white"/>
<path d="M477.907 203.506C478.152 204.128 478.455 204.734 478.815 205.307L449.341 220.31C449.006 219.713 448.613 219.148 448.179 218.64L477.907 203.506Z" fill="white"/>
<path d="M481.721 198.137C482.785 198.751 483.768 199.758 484.529 200.92C484.897 201.485 485.216 202.09 485.47 202.712C485.871 203.711 486.109 204.742 486.1 205.7C486.1 208.483 484.12 209.596 481.697 208.196C480.6 207.566 479.593 206.518 478.832 205.299C478.472 204.726 478.161 204.12 477.924 203.498C477.547 202.541 477.334 201.55 477.343 200.633C477.343 197.851 479.323 196.737 481.738 198.129L481.721 198.137Z" fill="white"/>
<g opacity="0.3">
<path d="M505.998 233.267L537.239 263.052C537.223 266.121 539.171 269.501 541.594 270.901C542.961 271.687 544.18 271.679 544.982 271.016L556.024 282.589L556.916 283.964L558.479 394.428L427.136 317.784L427.365 237.376L427.61 238.104L462.38 239.193C463.051 241.37 464.598 243.522 466.391 244.562C468.813 245.962 470.778 244.84 470.786 242.057C470.786 240.879 470.442 239.594 469.853 238.399L499.04 230.492C499.826 231.843 500.915 233.021 502.11 233.717C503.796 234.691 505.253 234.445 505.989 233.267H505.998Z" fill="#FF5403"/>
</g>
<path d="M545.711 270.001L558.283 283.481L558.021 284.062L557.735 284.693L544.982 271.024C545.293 270.77 545.539 270.426 545.711 270.001Z" fill="white"/>
<path d="M541.627 260.842C544.05 262.241 545.998 265.622 545.989 268.405C545.989 269.019 545.891 269.559 545.711 270.001C545.539 270.435 545.294 270.778 544.983 271.024C544.18 271.679 542.961 271.695 541.594 270.909C539.171 269.51 537.223 266.129 537.231 263.346C537.231 263.248 537.231 263.15 537.24 263.06C537.272 262.503 537.379 262.029 537.567 261.628C538.23 260.171 539.793 259.786 541.627 260.85V260.842Z" fill="white"/>
<path d="M505.998 233.267C506.219 232.915 506.374 232.473 506.456 231.957L537.567 261.619C537.387 262.02 537.272 262.495 537.239 263.052L505.998 233.267Z" fill="white"/>
<path d="M502.143 223.658C504.565 225.057 506.513 228.438 506.505 231.221C506.505 231.482 506.489 231.736 506.448 231.965C506.374 232.481 506.211 232.915 505.99 233.275C505.253 234.445 503.788 234.691 502.11 233.725C500.907 233.029 499.826 231.851 499.041 230.5C498.697 229.919 498.419 229.297 498.198 228.675C497.903 227.832 497.739 226.973 497.747 226.162C497.747 223.379 499.72 222.258 502.143 223.658Z" fill="white"/>
<path d="M426.997 236.271L462.044 237.384C462.077 237.973 462.2 238.587 462.38 239.201L427.61 238.112L427.365 237.384L426.997 236.271Z" fill="white"/>
<path d="M466.423 234.503C467.299 235.01 468.109 235.771 468.789 236.663C469.198 237.204 469.558 237.793 469.861 238.407C470.442 239.602 470.794 240.887 470.794 242.066C470.794 244.848 468.822 245.97 466.399 244.57C464.598 243.531 463.051 241.386 462.388 239.201C462.2 238.587 462.085 237.973 462.053 237.384C462.053 237.261 462.044 237.13 462.044 237.007C462.044 234.224 464.025 233.111 466.44 234.503H466.423Z" fill="white"/>
<path d="M468.789 236.663L498.206 228.675C498.419 229.297 498.705 229.911 499.049 230.5L469.861 238.407C469.558 237.793 469.198 237.204 468.789 236.663Z" fill="white"/>
<g opacity="0.4">
<path d="M513.356 267.496L545.989 303.436C545.809 303.878 545.711 304.41 545.711 305.024C545.711 307.807 547.667 311.195 550.073 312.587C551.228 313.258 552.283 313.348 553.069 312.955L556.802 318.456L556.572 410.528L435.869 340.833L436.123 250.938L437.081 251.658L436.999 252.264L466.956 274.715C467.005 277.474 468.944 280.772 471.318 282.139C473.741 283.539 475.705 282.417 475.713 279.634C475.713 278.66 475.476 277.621 475.067 276.614L506.996 265.352C507.716 266.375 508.609 267.251 509.574 267.815C511.187 268.748 512.595 268.56 513.356 267.513V267.496Z" fill="#FF5403"/>
</g>
<path d="M550.106 302.511C552.529 303.911 554.477 307.299 554.469 310.074C554.469 310.934 554.281 311.637 553.945 312.153C553.716 312.513 553.421 312.783 553.069 312.955C552.283 313.34 551.236 313.25 550.074 312.587C547.667 311.195 545.703 307.807 545.711 305.024C545.711 304.41 545.809 303.878 545.989 303.436C546.161 303.019 546.399 302.675 546.701 302.429C547.512 301.758 548.739 301.734 550.106 302.519V302.511Z" fill="white"/>
<path d="M553.953 312.153L558.684 318.783L557.808 319.577L554.894 315.624L553.077 312.947C553.429 312.775 553.724 312.505 553.953 312.145V312.153Z" fill="white"/>
<path d="M505.989 263.584C506.268 264.198 506.603 264.795 506.988 265.344L475.059 276.606C474.805 275.992 474.494 275.386 474.125 274.822L505.989 263.584Z" fill="white"/>
<path d="M509.607 257.74C512.03 259.139 513.978 262.52 513.97 265.303C513.97 265.646 513.937 265.966 513.88 266.252C513.781 266.751 513.601 267.169 513.364 267.496C512.603 268.544 511.195 268.732 509.583 267.799C508.617 267.242 507.725 266.367 507.004 265.335C506.62 264.787 506.276 264.189 506.006 263.576C505.515 262.471 505.22 261.308 505.228 260.236C505.228 257.453 507.201 256.332 509.623 257.732L509.607 257.74Z" fill="white"/>
<path d="M513.356 267.496C513.601 267.161 513.773 266.743 513.871 266.252L546.693 302.429C546.39 302.683 546.153 303.019 545.981 303.436L513.348 267.496H513.356Z" fill="white"/>
<path d="M471.343 272.063C472.398 272.677 473.372 273.668 474.125 274.822C474.494 275.386 474.813 275.984 475.059 276.606C475.468 277.613 475.705 278.652 475.705 279.626C475.705 282.409 473.733 283.53 471.31 282.131C468.936 280.764 467.005 277.457 466.947 274.707C466.947 274.666 466.947 274.617 466.947 274.576C466.947 274.052 467.021 273.594 467.152 273.193C467.717 271.466 469.386 270.942 471.343 272.072V272.063Z" fill="white"/>
<path d="M437.203 250.742L467.152 273.185C467.021 273.586 466.955 274.044 466.947 274.568C466.947 274.609 466.947 274.658 466.947 274.699L436.99 252.248L437.072 251.642L437.195 250.733L437.203 250.742Z" fill="white"/>
</g>
<mask id="mask3_10_8571" style="mask-type:luminance" maskUnits="userSpaceOnUse" x="555" y="134" width="121" height="208">
<path d="M555.639 203.754L556.032 341.113L675.573 272.09L675.188 134.73L555.639 203.754Z" fill="white"/>
</mask>
<g mask="url(#mask3_10_8571)">
<path d="M555.639 197.507L556.032 334.866L675.573 265.843L675.188 128.483L555.639 197.507Z" fill="#FCF300"/>
<g opacity="0.2">
<path d="M584.966 197.179L554.084 224.885L554.493 367.811L676.244 297.518L675.999 211.675L669.974 218.771C670.032 219.058 670.064 219.377 670.064 219.721C670.064 222.528 668.108 225.933 665.661 227.349C663.214 228.765 661.241 227.627 661.233 224.82C661.233 223.461 661.691 221.955 662.452 220.596L632.717 205.463C631.939 206.69 630.932 207.746 629.827 208.385C627.388 209.792 625.391 208.671 625.383 205.864C625.383 204.898 625.612 203.85 626.021 202.852L592.193 194.2C591.391 195.673 590.229 196.983 588.944 197.728C587.208 198.735 585.702 198.448 584.974 197.188L584.966 197.179Z" fill="#FF5403"/>
</g>
<path d="M584.54 195.837L553.667 223.535L554.059 224.91L584.966 197.179C584.753 196.811 584.614 196.361 584.54 195.837Z" fill="white"/>
<path d="M588.903 187.57C586.463 188.978 584.491 192.391 584.499 195.199C584.499 195.428 584.515 195.641 584.54 195.845C584.605 196.369 584.753 196.819 584.966 197.188C585.694 198.448 587.192 198.735 588.935 197.728C590.229 196.983 591.383 195.682 592.185 194.2C592.512 193.603 592.774 192.981 592.97 192.358C593.208 191.597 593.339 190.828 593.339 190.099C593.339 187.292 591.35 186.162 588.911 187.57H588.903Z" fill="white"/>
<path d="M626.962 201.043L592.97 192.35C592.774 192.972 592.512 193.603 592.185 194.192L626.013 202.843C626.267 202.221 626.586 201.607 626.962 201.034V201.043Z" fill="white"/>
<path d="M676.13 211.528L675.45 210.439L669.451 217.519C669.696 217.855 669.876 218.28 669.975 218.779L675.999 211.683L676.13 211.528Z" fill="white"/>
<path d="M665.628 217.2C664.9 217.617 664.221 218.215 663.623 218.919C663.181 219.434 662.788 219.999 662.453 220.605C661.691 221.955 661.225 223.469 661.233 224.828C661.233 227.636 663.222 228.765 665.661 227.357C668.1 225.949 670.073 222.536 670.065 219.729C670.065 219.385 670.032 219.074 669.975 218.779C669.876 218.28 669.696 217.855 669.451 217.519C668.681 216.455 667.257 216.258 665.628 217.2Z" fill="white"/>
<path d="M633.634 203.645C633.388 204.268 633.077 204.881 632.717 205.463L662.453 220.596C662.788 219.999 663.189 219.426 663.623 218.91L633.634 203.645Z" fill="white"/>
<path d="M629.795 198.235C628.722 198.857 627.732 199.864 626.963 201.043C626.586 201.616 626.267 202.229 626.013 202.852C625.604 203.858 625.367 204.898 625.375 205.864C625.375 208.671 627.38 209.792 629.819 208.385C630.924 207.746 631.939 206.69 632.708 205.463C633.077 204.89 633.388 204.276 633.625 203.645C634.002 202.68 634.214 201.681 634.214 200.756C634.214 197.949 632.209 196.827 629.786 198.227L629.795 198.235Z" fill="white"/>
<g opacity="0.3">
<path d="M605.297 233.676L567.548 245.061C567.565 248.163 566.787 248.188 565.968 247.525L554.837 283.44L553.937 284.824L552.357 396.253L684.855 318.93L684.625 237.818L684.38 238.554L649.307 239.651C648.636 241.853 647.073 244.022 645.256 245.061C642.817 246.469 640.836 245.34 640.828 242.532C640.828 241.345 641.172 240.052 641.769 238.849L612.328 230.869C611.534 232.235 610.437 233.422 609.226 234.118C607.532 235.1 606.05 234.846 605.313 233.668L605.297 233.676Z" fill="#FF5403"/>
</g>
<path d="M565.968 247.525L553.789 286.518L554.206 286.608L554.493 287.246L566.697 248.564C566.386 248.311 566.14 247.967 565.968 247.533V247.525Z" fill="white"/>
<path d="M568.072 240.6C565.633 242.008 563.66 245.421 563.668 248.229C563.668 248.851 563.767 249.391 563.947 249.841C564.119 250.275 564.372 250.627 564.675 250.873C565.486 251.536 566.721 251.544 568.097 250.75C570.536 249.342 572.508 245.929 572.5 243.121C572.5 243.023 572.5 242.925 572.492 242.827C572.459 242.27 572.345 241.787 572.164 241.378C571.501 239.913 569.914 239.528 568.072 240.592V240.6Z" fill="white"/>
<path d="M605.297 233.676C605.076 233.316 604.912 232.874 604.839 232.358L570.634 243.621C570.814 244.022 570.928 244.505 570.961 245.069L605.297 233.684V233.676Z" fill="white"/>
<path d="M609.185 223.977C606.746 225.385 604.773 228.798 604.781 231.605C604.781 231.875 604.798 232.121 604.839 232.358C604.912 232.882 605.076 233.324 605.297 233.676C606.042 234.863 607.515 235.108 609.209 234.126C610.421 233.43 611.509 232.235 612.311 230.877C612.655 230.287 612.942 229.665 613.154 229.035C613.449 228.184 613.613 227.316 613.613 226.498C613.613 223.69 611.624 222.561 609.185 223.969V223.977Z" fill="white"/>
<path d="M684.994 236.696L649.643 237.818C649.61 238.415 649.488 239.037 649.299 239.651L684.372 238.554L684.617 237.818L684.994 236.696Z" fill="white"/>
<path d="M645.223 234.912C644.339 235.419 643.521 236.189 642.842 237.097C642.432 237.637 642.064 238.235 641.761 238.849C641.172 240.052 640.82 241.345 640.82 242.532C640.82 245.34 642.809 246.469 645.248 245.061C647.057 244.014 648.62 241.845 649.299 239.651C649.488 239.037 649.61 238.415 649.643 237.818C649.643 237.687 649.66 237.564 649.651 237.441C649.651 234.634 647.646 233.512 645.223 234.912Z" fill="white"/>
<path d="M642.841 237.097L613.163 229.035C612.95 229.665 612.655 230.287 612.32 230.877L641.761 238.857C642.064 238.243 642.424 237.646 642.841 237.105V237.097Z" fill="white"/>
<g opacity="0.4">
<path d="M597.873 268.2L564.242 303.428C564.422 303.87 554.051 319.601 554.051 319.601L554.28 412.476L676.039 342.175L675.786 251.495L674.82 252.215L674.902 252.821L644.683 275.468C644.626 278.251 642.678 281.582 640.28 282.957C637.84 284.365 635.86 283.236 635.851 280.428C635.851 279.446 636.089 278.398 636.498 277.384L604.29 266.023C603.562 267.062 602.662 267.938 601.688 268.503C600.059 269.444 598.643 269.256 597.865 268.192L597.873 268.2Z" fill="#FF5403"/>
</g>
<path d="M564.659 302.921L552.161 319.929L553.045 320.731L555.983 316.745L565.543 303.723C565.191 303.551 564.888 303.272 564.659 302.912V302.921Z" fill="white"/>
<path d="M605.306 264.247C605.027 264.869 604.684 265.466 604.299 266.023L636.507 277.384C636.76 276.761 637.079 276.156 637.448 275.583L605.306 264.247Z" fill="white"/>
<path d="M601.663 258.354C599.224 259.761 597.252 263.175 597.26 265.982C597.26 266.326 597.293 266.645 597.35 266.94C597.448 267.439 597.628 267.864 597.874 268.2C598.643 269.256 600.067 269.444 601.696 268.511C602.67 267.946 603.57 267.062 604.299 266.031C604.692 265.474 605.035 264.877 605.306 264.255C605.805 263.142 606.1 261.971 606.091 260.883C606.091 258.075 604.102 256.946 601.663 258.354Z" fill="white"/>
<path d="M597.873 268.2C597.628 267.864 597.448 267.447 597.35 266.94L564.233 303.428C564.536 303.682 564.782 304.025 564.954 304.451L597.873 268.2Z" fill="white"/>
<path d="M640.263 272.808C639.191 273.422 638.217 274.421 637.456 275.591C637.087 276.156 636.768 276.77 636.514 277.392C636.097 278.407 635.86 279.463 635.868 280.437C635.868 283.244 637.857 284.373 640.296 282.966C642.686 281.582 644.642 278.251 644.699 275.476C644.699 275.436 644.699 275.386 644.699 275.345C644.699 274.822 644.626 274.355 644.495 273.954C643.93 272.211 642.244 271.687 640.263 272.825V272.808Z" fill="white"/>
<path d="M674.697 251.298L644.495 273.938C644.626 274.339 644.699 274.805 644.699 275.329C644.699 275.37 644.699 275.419 644.699 275.46L674.918 252.812L674.836 252.207L674.705 251.29L674.697 251.298Z" fill="white"/>
</g>
<g filter="url(#filter2_d_10_8571)">
<path fill-rule="evenodd" clip-rule="evenodd" d="M778.869 138.366L894.189 71L1009.85 138.135L1009.85 138.135L1009.48 271.736L894.157 339.11L894.157 339.11L778.496 271.975L778.868 138.366L778.869 138.366Z" fill="white"/>
</g>
<mask id="mask4_10_8571" style="mask-type:luminance" maskUnits="userSpaceOnUse" x="775" y="134" width="121" height="208">
<path d="M895.065 203.786L894.672 341.139L775.131 272.119L775.524 134.766L895.065 203.786Z" fill="white"/>
</mask>
<g mask="url(#mask4_10_8571)">
<path d="M895.065 203.786L894.672 341.139L775.131 272.119L775.524 134.766L895.065 203.786Z" fill="#FCF300"/>
<path d="M772.332 228.873L805.726 171.033C806.094 171.598 806.52 172.121 806.987 172.563L773.633 230.363L773.117 229.773L772.332 228.873Z" fill="white"/>
<path d="M808.206 164.624C810.318 165.844 812.037 168.815 812.029 171.262C812.029 171.573 811.996 171.86 811.947 172.113C811.848 172.613 811.652 173.022 811.382 173.333C810.694 174.135 809.508 174.241 808.173 173.472C807.756 173.235 807.363 172.924 806.987 172.572C806.52 172.13 806.094 171.606 805.726 171.041C804.875 169.74 804.335 168.201 804.343 166.826C804.343 164.379 806.078 163.397 808.206 164.624Z" fill="white"/>
<path d="M811.382 173.333C811.644 173.022 811.84 172.621 811.947 172.113L843.786 209.517C843.45 209.729 843.188 210.057 843.008 210.482L811.382 173.325V173.333Z" fill="white"/>
<path d="M846.602 209.738C848.018 210.556 849.254 212.152 849.916 213.846C850.154 214.46 850.326 215.09 850.399 215.696C850.424 215.925 850.44 216.154 850.44 216.383C850.44 218.814 848.705 219.796 846.577 218.569C844.449 217.341 842.73 214.37 842.738 211.939C842.738 211.374 842.837 210.883 843 210.491C843.18 210.065 843.45 209.738 843.778 209.525C844.482 209.066 845.48 209.099 846.593 209.746L846.602 209.738Z" fill="white"/>
<path d="M849.917 213.838L878.441 221.949C878.441 222.53 878.547 223.136 878.727 223.741L850.399 215.688C850.326 215.074 850.162 214.452 849.917 213.838Z" fill="white"/>
<g opacity="0.2">
<path d="M811.382 173.333L843.008 210.491C842.836 210.892 842.746 211.374 842.746 211.939C842.746 214.37 844.457 217.341 846.585 218.569C848.713 219.796 850.44 218.814 850.448 216.383C850.448 216.162 850.432 215.925 850.407 215.696L878.735 223.749C879.308 225.689 880.683 227.613 882.288 228.537C883.368 229.159 884.342 229.217 885.046 228.791L896.89 245.479L897.143 245.217L896.996 355.774L896.906 387.514L772.732 315.834L772.937 243.016L772.978 230.019L773.633 230.363L806.986 172.563C807.363 172.915 807.756 173.226 808.173 173.464C809.507 174.233 810.686 174.127 811.382 173.325V173.333Z" fill="#FF5403"/>
</g>
<path d="M885.84 227.866L897.725 244.612L897.135 245.217L896.882 245.479L885.038 228.791C885.374 228.586 885.652 228.275 885.84 227.866Z" fill="white"/>
<path d="M882.304 219.69C884.432 220.918 886.151 223.889 886.143 226.336C886.143 226.941 886.037 227.457 885.84 227.866C885.652 228.275 885.374 228.587 885.038 228.791C884.334 229.209 883.36 229.159 882.28 228.537C880.675 227.613 879.3 225.689 878.727 223.749C878.547 223.144 878.449 222.538 878.441 221.957C878.441 221.932 878.441 221.916 878.441 221.892C878.441 219.444 880.176 218.462 882.304 219.69Z" fill="white"/>
<path opacity="0.3" d="M876.886 261.521C877.23 263.755 878.785 266.178 880.651 267.258C881.789 267.913 882.812 267.938 883.516 267.447L895.859 288.276L896.366 287.965L896.137 370.744L896.047 402.483L771.881 330.795L772.086 257.977L772.184 224.682L772.626 225.583L798.024 217.136C798.654 218.937 799.947 220.656 801.445 221.523C803.287 222.587 804.842 221.973 805.21 220.181L837.279 251.56C837.271 254.065 838.99 257.052 841.109 258.28C843.221 259.499 844.948 258.501 844.956 256.07C844.956 255.563 844.883 255.031 844.752 254.499L876.894 261.505L876.886 261.521Z" fill="#FF5403"/>
<path d="M805.219 218.421C804.883 216.187 803.328 213.748 801.462 212.676C799.334 211.448 797.607 212.43 797.599 214.877C797.599 214.967 797.599 215.057 797.599 215.148C797.623 215.663 797.738 216.203 797.901 216.743C797.738 216.203 797.623 215.671 797.599 215.148L771.726 223.758L772.184 224.682L772.626 225.583L798.024 217.136C798.654 218.937 799.948 220.656 801.446 221.523C803.287 222.587 804.842 221.973 805.211 220.181L837.279 251.56C837.287 250.979 837.394 250.488 837.582 250.087L805.227 218.421H805.219Z" fill="white"/>
<path d="M884.285 266.415C884.433 266.031 884.515 265.572 884.515 265.049C884.515 262.601 882.804 259.63 880.676 258.403C878.81 257.322 877.246 257.953 876.894 259.778L844.007 252.6C843.303 251.274 842.28 250.095 841.134 249.432C839.538 248.516 838.171 248.835 837.582 250.087C837.394 250.488 837.287 250.979 837.279 251.56C837.279 251.585 837.279 251.61 837.279 251.642C837.279 254.073 838.99 257.06 841.118 258.288C843.23 259.508 844.957 258.509 844.965 256.078C844.965 255.571 844.891 255.039 844.76 254.507L876.903 261.513C877.246 263.747 878.801 266.17 880.668 267.25C881.805 267.905 882.828 267.93 883.532 267.438L895.875 288.268L896.383 287.957L896.882 287.646L884.302 266.415H884.285Z" fill="white"/>
<g opacity="0.4">
<path d="M888.656 252.076L896.563 262.831L896.89 262.462L897.504 381.973L897.414 413.712L773.257 342.032L773.461 269.214L774.476 220.828L775 221.515L804.335 204.041C804.965 204.917 805.735 205.67 806.561 206.145C807.232 206.537 807.871 206.701 808.419 206.668L836.281 281.057C836.281 281.057 839.178 285.24 838.352 283.979L883.925 250.267C884.474 250.938 885.104 251.495 885.783 251.888C886.921 252.543 887.944 252.567 888.648 252.076H888.656Z" fill="#FF5403"/>
</g>
<path d="M882.812 248.565C883.123 249.171 883.5 249.752 883.926 250.275L840.807 283.988C840.423 283.398 839.972 282.858 839.473 282.4L882.804 248.565H882.812Z" fill="white"/>
<path d="M889.401 251.086L897.373 261.914L896.89 262.462L896.563 262.831L888.656 252.076C888.975 251.847 889.237 251.52 889.409 251.086H889.401Z" fill="white"/>
<path d="M885.808 243.049C887.936 244.276 889.655 247.247 889.646 249.694C889.646 250.235 889.556 250.701 889.401 251.094C889.229 251.528 888.975 251.855 888.648 252.084C887.944 252.575 886.921 252.559 885.783 251.896C885.112 251.503 884.473 250.938 883.925 250.275C883.499 249.76 883.123 249.179 882.812 248.565C882.264 247.485 881.944 246.314 881.944 245.25C881.944 242.803 883.68 241.821 885.808 243.049Z" fill="white"/>
<path d="M806.586 197.305C808.714 198.533 810.433 201.504 810.425 203.951C810.425 205.015 810.089 205.809 809.541 206.251C809.23 206.505 808.853 206.644 808.419 206.668C807.871 206.701 807.232 206.537 806.561 206.145C805.726 205.662 804.965 204.917 804.335 204.041C803.942 203.485 803.598 202.879 803.336 202.257C802.952 201.34 802.722 200.391 802.731 199.499C802.731 197.052 804.466 196.069 806.594 197.297L806.586 197.305Z" fill="white"/>
<path d="M808.419 206.677C808.845 206.652 809.23 206.505 809.541 206.259L837.247 282.392C836.903 282.613 836.625 282.94 836.436 283.382L808.419 206.677Z" fill="white"/>
<path d="M803.328 202.265C803.59 202.887 803.934 203.493 804.327 204.049L774.992 221.523L774.558 220.778L773.953 219.747L803.328 202.265Z" fill="white"/>
<path d="M838.36 279.961C838.745 280.182 839.113 280.46 839.465 280.787C839.956 281.246 840.406 281.786 840.799 282.375C841.658 283.685 842.199 285.232 842.199 286.607C842.199 289.054 840.463 290.036 838.335 288.808C836.207 287.581 834.488 284.61 834.497 282.162C834.497 281.598 834.595 281.115 834.759 280.714C834.947 280.272 835.217 279.944 835.569 279.723C836.273 279.281 837.263 279.322 838.36 279.961Z" fill="white"/>
</g>
<path d="M777.697 133.392L894.324 65.6235L1011.3 133.16L894.676 200.929L777.697 133.392Z" fill="#FCF300"/>
<defs>
<filter id="filter0_d_10_8571" x="0.496094" y="1" width="431.354" height="468.11" filterUnits="userSpaceOnUse" color-interpolation-filters="sRGB">
<feFlood flood-opacity="0" result="BackgroundImageFix"/>
<feColorMatrix in="SourceAlpha" type="matrix" values="0 0 0 0 0 0 0 0 0 0 0 0 0 0 0 0 0 0 127 0" result="hardAlpha"/>
<feOffset dy="30"/>
<feGaussianBlur stdDeviation="50"/>
<feComposite in2="hardAlpha" operator="out"/>
<feColorMatrix type="matrix" values="0 0 0 0 0.266667 0 0 0 0 0.171805 0 0 0 0 0 0 0 0 0.2 0"/>
<feBlend mode="normal" in2="BackgroundImageFix" result="effect1_dropShadow_10_8571"/>
<feBlend mode="normal" in="SourceGraphic" in2="effect1_dropShadow_10_8571" result="shape"/>
</filter>
<filter id="filter1_d_10_8571" x="339.496" y="0.416092" width="431.354" height="468.11" filterUnits="userSpaceOnUse" color-interpolation-filters="sRGB">
<feFlood flood-opacity="0" result="BackgroundImageFix"/>
<feColorMatrix in="SourceAlpha" type="matrix" values="0 0 0 0 0 0 0 0 0 0 0 0 0 0 0 0 0 0 127 0" result="hardAlpha"/>
<feOffset dy="30"/>
<feGaussianBlur stdDeviation="50"/>
<feComposite in2="hardAlpha" operator="out"/>
<feColorMatrix type="matrix" values="0 0 0 0 0.266667 0 0 0 0 0.171805 0 0 0 0 0 0 0 0 0.2 0"/>
<feBlend mode="normal" in2="BackgroundImageFix" result="effect1_dropShadow_10_8571"/>
<feBlend mode="normal" in="SourceGraphic" in2="effect1_dropShadow_10_8571" result="shape"/>
</filter>
<filter id="filter2_d_10_8571" x="678.496" y="1" width="431.354" height="468.11" filterUnits="userSpaceOnUse" color-interpolation-filters="sRGB">
<feFlood flood-opacity="0" result="BackgroundImageFix"/>
<feColorMatrix in="SourceAlpha" type="matrix" values="0 0 0 0 0 0 0 0 0 0 0 0 0 0 0 0 0 0 127 0" result="hardAlpha"/>
<feOffset dy="30"/>
<feGaussianBlur stdDeviation="50"/>
<feComposite in2="hardAlpha" operator="out"/>
<feColorMatrix type="matrix" values="0 0 0 0 0.266667 0 0 0 0 0.171805 0 0 0 0 0 0 0 0 0.2 0"/>
<feBlend mode="normal" in2="BackgroundImageFix" result="effect1_dropShadow_10_8571"/>
<feBlend mode="normal" in="SourceGraphic" in2="effect1_dropShadow_10_8571" result="shape"/>
</filter>
</defs>
</svg>
