<svg width="302" height="106" viewBox="0 0 302 106" fill="none" xmlns="http://www.w3.org/2000/svg">
<g filter="url(#filter0_d_147_9303)">
<path fill-rule="evenodd" clip-rule="evenodd" d="M12.1812 28.8413L47.3936 8.50909L82.7098 28.7717L82.5961 69.0949L47.3839 89.4296L47.3837 89.4296L12.0675 69.167L12.1812 28.8413L12.1812 28.8413Z" fill="white"/>
</g>
<path d="M47.5435 48.621L83.9371 27.7179L83.8171 69.1734L47.4236 90.079L47.5435 48.621Z" fill="#DFE1E2"/>
<mask id="mask0_147_9303" style="mask-type:luminance" maskUnits="userSpaceOnUse" x="11" y="27" width="37" height="64">
<path d="M47.6611 48.5865L47.5411 90.042L11.0401 69.2105L11.16 27.7549L47.6611 48.5865Z" fill="white"/>
</mask>
<g mask="url(#mask0_147_9303)">
<path d="M47.661 48.5865L47.541 90.042L11.04 69.2105L11.1599 27.7549L47.661 48.5865Z" fill="#FCF300"/>
<path d="M10.1852 56.158L20.382 38.7008C20.4944 38.8713 20.6244 39.0294 20.7669 39.1628L10.5826 56.6076L10.4251 56.4297L10.1852 56.158Z" fill="white"/>
<path d="M21.1392 36.7667C21.784 37.1347 22.3089 38.0314 22.3064 38.77C22.3064 38.8639 22.2964 38.9503 22.2814 39.0269C22.2514 39.1776 22.1914 39.3011 22.1089 39.395C21.899 39.6371 21.5366 39.6692 21.1292 39.437C21.0018 39.3653 20.8818 39.2715 20.7669 39.1653C20.6244 39.0319 20.4944 38.8738 20.382 38.7033C20.1221 38.3105 19.9571 37.8461 19.9596 37.4311C19.9596 36.6925 20.4894 36.3961 21.1392 36.7667Z" fill="white"/>
<path d="M22.1089 39.395C22.1889 39.3011 22.2489 39.1801 22.2814 39.0269L32.0033 50.3159C31.9009 50.3801 31.8209 50.4789 31.7659 50.6074L22.1089 39.3925V39.395Z" fill="white"/>
<path d="M32.8631 50.3826C33.2954 50.6296 33.6728 51.1113 33.8752 51.6227C33.9477 51.8079 34.0002 51.9981 34.0227 52.1809C34.0302 52.2501 34.0352 52.3193 34.0352 52.3884C34.0352 53.1221 33.5054 53.4185 32.8556 53.048C32.2058 52.6775 31.6809 51.7808 31.6834 51.0471C31.6834 50.8767 31.7134 50.7284 31.7634 50.6099C31.8184 50.4814 31.9009 50.3826 32.0008 50.3184C32.2158 50.18 32.5207 50.1899 32.8606 50.3851L32.8631 50.3826Z" fill="white"/>
<path d="M33.8753 51.6202L42.585 54.0682C42.585 54.2436 42.6175 54.4264 42.6725 54.6092L34.0227 52.1785C34.0002 51.9932 33.9502 51.8055 33.8753 51.6202Z" fill="white"/>
<g opacity="0.2">
<path d="M22.1089 39.395L31.7659 50.6099C31.7134 50.7309 31.6859 50.8766 31.6859 51.0471C31.6859 51.7808 32.2083 52.6775 32.8581 53.048C33.5079 53.4185 34.0352 53.1221 34.0377 52.3884C34.0377 52.3217 34.0327 52.2501 34.0252 52.1809L42.675 54.6117C42.8499 55.1971 43.2698 55.7776 43.7596 56.0567C44.0895 56.2445 44.387 56.2618 44.6019 56.1333L48.2182 61.1701L48.2957 61.0911L48.2507 94.4591L48.2232 104.039L10.3076 82.4043L10.3701 60.4266L10.3826 56.5039L10.5826 56.6076L20.7669 39.1628C20.8818 39.269 21.0018 39.3629 21.1293 39.4345C21.5366 39.6667 21.8965 39.6346 22.1089 39.3925V39.395Z" fill="#FF5403"/>
</g>
<path d="M44.8443 55.8542L48.4732 60.9083L48.2932 61.0911L48.2157 61.1701L44.5994 56.1333C44.7018 56.0716 44.7868 55.9777 44.8443 55.8542Z" fill="white"/>
<path d="M43.7646 53.3864C44.4144 53.7569 44.9393 54.6536 44.9368 55.3922C44.9368 55.575 44.9043 55.7307 44.8443 55.8542C44.7868 55.9777 44.7018 56.0716 44.5994 56.1333C44.3844 56.2593 44.087 56.2445 43.7571 56.0567C43.2673 55.7776 42.8474 55.1971 42.6725 54.6117C42.6175 54.4289 42.5875 54.2461 42.585 54.0707C42.585 54.0633 42.585 54.0583 42.585 54.0509C42.585 53.3123 43.1148 53.0159 43.7646 53.3864Z" fill="white"/>
<path opacity="0.3" d="M42.1104 66.0118C42.2153 66.6862 42.6902 67.4174 43.26 67.7434C43.6074 67.9411 43.9198 67.9485 44.1347 67.8002L47.9035 74.087L48.0585 73.9931L47.9885 98.9771L47.961 108.557L10.0479 86.9199L10.1104 64.9422L10.1404 54.8933L10.2754 55.165L18.0304 52.6157C18.2229 53.1592 18.6177 53.6779 19.0751 53.9397C19.6374 54.2609 20.1123 54.0756 20.2247 53.5346L30.0167 63.0055C30.0142 63.7614 30.539 64.663 31.1863 65.0336C31.8311 65.4016 32.3584 65.1003 32.3609 64.3666C32.3609 64.2135 32.3384 64.0529 32.2984 63.8923L42.1129 66.0069L42.1104 66.0118Z" fill="#FF5403"/>
<path d="M20.2271 53.0035C20.1246 52.3292 19.6498 51.593 19.08 51.2694C18.4302 50.8989 17.9028 51.1953 17.9003 51.9339C17.9003 51.9611 17.9003 51.9883 17.9003 52.0154C17.9078 52.1711 17.9428 52.3341 17.9928 52.4971C17.9428 52.3341 17.9078 52.1735 17.9003 52.0154L10.0003 54.6141L10.1403 54.8933L10.2752 55.165L18.0303 52.6157C18.2227 53.1592 18.6176 53.6779 19.075 53.9397C19.6373 54.2609 20.1121 54.0756 20.2246 53.5346L30.0165 63.0055C30.019 62.8301 30.0515 62.6819 30.109 62.5609L20.2296 53.0035H20.2271Z" fill="white"/>
<path d="M44.3695 67.489C44.4145 67.3729 44.4395 67.2346 44.4395 67.0765C44.4395 66.3379 43.9172 65.4412 43.2674 65.0706C42.6975 64.7446 42.2202 64.9348 42.1127 65.4856L32.0709 63.3192C31.8559 62.9191 31.5435 62.5633 31.1937 62.3633C30.7063 62.0866 30.2889 62.1829 30.109 62.5609C30.0515 62.6819 30.019 62.8301 30.0165 63.0055C30.0165 63.0129 30.0165 63.0203 30.0165 63.0302C30.0165 63.7639 30.5389 64.6655 31.1887 65.0361C31.8335 65.4041 32.3608 65.1028 32.3633 64.3691C32.3633 64.2159 32.3408 64.0554 32.3008 63.8948L42.1152 66.0093C42.2202 66.6837 42.695 67.4149 43.2649 67.741C43.6123 67.9386 43.9247 67.946 44.1396 67.7978L47.9084 74.0845L48.0634 73.9907L48.2158 73.8968L44.3745 67.489H44.3695Z" fill="white"/>
<g opacity="0.4">
<path d="M45.7042 63.1611L48.1184 66.407L48.2184 66.2959L48.4058 102.366L48.3783 111.946L10.4677 90.3115L10.5302 68.3338L10.8401 53.7298L11 53.9373L19.9572 48.6633C20.1497 48.9276 20.3846 49.1549 20.637 49.2982C20.842 49.4167 21.0369 49.4661 21.2043 49.4563L29.7117 71.9083C29.7117 71.9083 30.5964 73.1705 30.344 72.7901L44.2596 62.6152C44.4271 62.8178 44.6195 62.9858 44.8269 63.1043C45.1743 63.3019 45.4867 63.3094 45.7017 63.1611H45.7042Z" fill="#FF5403"/>
</g>
<path d="M43.9197 62.1014C44.0147 62.2842 44.1296 62.4596 44.2596 62.6177L31.0937 72.7926C30.9763 72.6147 30.8388 72.4517 30.6864 72.3134L43.9172 62.1014H43.9197Z" fill="white"/>
<path d="M45.9316 62.8622L48.3658 66.1304L48.2184 66.2959L48.1184 66.407L45.7042 63.1611C45.8016 63.092 45.8816 62.9932 45.9341 62.8622H45.9316Z" fill="white"/>
<path d="M44.8344 60.4365C45.4842 60.807 46.0091 61.7037 46.0066 62.4423C46.0066 62.6053 45.9791 62.7461 45.9316 62.8647C45.8791 62.9956 45.8016 63.0944 45.7017 63.1636C45.4867 63.3118 45.1743 63.3069 44.8269 63.1068C44.622 62.9882 44.4271 62.8178 44.2596 62.6177C44.1297 62.4621 44.0147 62.2867 43.9197 62.1014C43.7523 61.7753 43.6548 61.4221 43.6548 61.101C43.6548 60.3624 44.1846 60.0659 44.8344 60.4365Z" fill="white"/>
<path d="M20.6445 46.6303C21.2943 47.0008 21.8192 47.8975 21.8167 48.6361C21.8167 48.9573 21.7142 49.1969 21.5467 49.3303C21.4518 49.4069 21.3368 49.4489 21.2044 49.4563C21.0369 49.4661 20.842 49.4167 20.637 49.2982C20.3821 49.1524 20.1497 48.9276 19.9572 48.6633C19.8373 48.4953 19.7323 48.3125 19.6523 48.1248C19.5349 47.8481 19.4649 47.5616 19.4674 47.2923C19.4674 46.5537 19.9972 46.2573 20.647 46.6278L20.6445 46.6303Z" fill="white"/>
<path d="M21.2043 49.4587C21.3343 49.4513 21.4518 49.4069 21.5467 49.3327L30.0066 72.3109C29.9016 72.3776 29.8166 72.4764 29.7592 72.6098L21.2043 49.4587Z" fill="white"/>
<path d="M19.6498 48.1273C19.7298 48.315 19.8348 48.4978 19.9547 48.6658L10.9975 53.9397L10.8651 53.715L10.6801 53.4037L19.6498 48.1273Z" fill="white"/>
<path d="M30.3465 71.5772C30.4639 71.6439 30.5764 71.7279 30.6839 71.8267C30.8338 71.9651 30.9713 72.1281 31.0912 72.306C31.3537 72.7012 31.5186 73.1681 31.5186 73.5831C31.5186 74.3217 30.9888 74.6181 30.339 74.2476C29.6892 73.877 29.1643 72.9803 29.1668 72.2417C29.1668 72.0713 29.1968 71.9256 29.2468 71.8045C29.3043 71.6711 29.3868 71.5723 29.4942 71.5056C29.7092 71.3722 30.0116 71.3846 30.3465 71.5772Z" fill="white"/>
</g>
<mask id="mask1_147_9303" style="mask-type:luminance" maskUnits="userSpaceOnUse" x="47" y="27" width="37" height="64">
<path d="M47.3686 48.5865L47.4886 90.042L83.9896 69.2105L83.8721 27.7549L47.3686 48.5865Z" fill="white"/>
</mask>
<g mask="url(#mask1_147_9303)">
<path d="M47.3686 48.5865L47.4886 90.042L83.9896 69.2105L83.8721 27.7549L47.3686 48.5865Z" fill="#FCF300"/>
<path opacity="0.2" d="M52.9219 50.571C52.8169 51.2453 52.3421 51.9765 51.7723 52.3026C51.4249 52.5002 51.1125 52.5076 50.8975 52.3594L47.1937 59.9134L47.0388 59.8195L47.0463 83.5338L47.0737 93.1134L84.9843 71.4791L84.9219 49.5014L84.8919 39.4524L84.7569 39.7242L77.0019 37.1749C76.8094 37.7183 76.4145 38.2371 75.9572 38.4989C75.3949 38.8201 74.92 38.6348 74.8075 38.0938L65.0156 47.5647C65.0181 48.3206 64.4933 49.2222 63.846 49.5928C63.2012 49.9608 62.6739 49.6595 62.6714 48.9258C62.6714 48.7726 62.6938 48.6121 62.7338 48.4515L52.9194 50.566L52.9219 50.571Z" fill="#FF5403"/>
<path d="M74.805 37.5652C74.9075 36.8908 75.3824 36.1547 75.9522 35.8311C76.602 35.4605 77.1293 35.757 77.1318 36.4956C77.1318 36.5227 77.1318 36.5499 77.1318 36.5771C77.1243 36.7327 77.0893 36.8957 77.0393 37.0588C77.0893 36.8957 77.1243 36.7352 77.1318 36.5771L85.0343 39.1733L84.8944 39.4524L84.7594 39.7242L77.0044 37.1749C76.8119 37.7183 76.417 38.2371 75.9597 38.4989C75.3974 38.8201 74.9225 38.6348 74.81 38.0938L65.0181 47.5647C65.0156 47.3893 64.9831 47.2411 64.9256 47.1201L74.805 37.5627V37.5652Z" fill="white"/>
<path d="M50.6626 52.0506C50.6176 51.9345 50.5926 51.7962 50.5926 51.6381C50.5926 50.8995 51.115 50.0028 51.7648 49.6323C52.3346 49.3062 52.8119 49.4964 52.9194 50.0473L62.9613 47.8809C63.1762 47.4807 63.4886 47.125 63.8385 46.9249C64.3258 46.6482 64.7432 46.7446 64.9231 47.1225C64.9806 47.2436 65.0131 47.3918 65.0156 47.5672C65.0156 47.5746 65.0156 47.582 65.0156 47.5919C65.0156 48.3255 64.4933 49.2272 63.8435 49.5977C63.1987 49.9658 62.6714 49.6644 62.6689 48.9307C62.6689 48.7776 62.6913 48.617 62.7313 48.4564L52.9169 50.571C52.8119 51.2454 52.3371 51.9765 51.7673 52.3026C51.4199 52.5002 51.1075 52.5076 50.8925 52.3594L47.4186 59.8665L47.2637 59.7726L47.1112 59.6787L50.6576 52.0482L50.6626 52.0506Z" fill="white"/>
<path d="M89.9277 56.1858L74.65 50.5191C74.5376 50.6895 74.4076 50.8476 74.2652 50.981L89.5304 56.6354L89.6878 56.4576L89.9277 56.1858Z" fill="white"/>
<path d="M73.8928 48.5824C73.248 48.9505 72.7231 49.8472 72.7256 50.5858C72.7256 50.6797 72.7356 50.7661 72.7506 50.8427C72.7806 50.9934 72.8406 51.1169 72.9231 51.2108C73.133 51.4529 73.4954 51.485 73.9028 51.2528C74.0302 51.1811 74.1502 51.0873 74.2652 50.981C74.4076 50.8476 74.5376 50.6895 74.65 50.5191C74.9099 50.1263 75.0749 49.6619 75.0724 49.2469C75.0724 48.5083 74.5426 48.2119 73.8928 48.5824Z" fill="white"/>
<path d="M72.9231 51.2108C72.8431 51.1169 72.7831 50.9959 72.7506 50.8427L63.0287 62.1317C63.1311 62.1959 63.2111 62.2947 63.2661 62.4232L72.9231 51.2083V51.2108Z" fill="white"/>
<path d="M62.1689 62.2009C61.7366 62.4479 61.3592 62.9296 61.1568 63.4409C61.0843 63.6262 61.0318 63.8164 61.0093 63.9992C61.0018 64.0684 60.9968 64.1375 60.9968 64.2067C60.9968 64.9404 61.5266 65.2368 62.1764 64.8662C62.8262 64.4957 63.3511 63.599 63.3486 62.8654C63.3486 62.6949 63.3186 62.5467 63.2686 62.4281C63.2136 62.2997 63.1311 62.2009 63.0312 62.1366C62.8162 61.9983 62.5113 62.0082 62.1714 62.2033L62.1689 62.2009Z" fill="white"/>
<path d="M61.1568 63.4384L52.447 65.8865C52.447 66.0618 52.4145 66.2446 52.3595 66.4274L61.0093 63.9967C61.0318 63.8115 61.0818 63.6237 61.1568 63.4384Z" fill="white"/>
<g opacity="0.3">
<path d="M72.9231 51.2108L63.2661 62.4256C63.3186 62.5467 63.3461 62.6924 63.3461 62.8629C63.3461 63.5965 62.8237 64.4932 62.1739 64.8638C61.5241 65.2343 60.9968 64.9379 60.9943 64.2042C60.9943 64.1375 60.9993 64.0659 61.0068 63.9967L52.357 66.4274C52.1821 67.0129 51.7622 67.5934 51.2724 67.8725C50.9425 68.0603 50.6451 68.0776 50.4301 67.9491L47.1886 73.1168L47.1112 73.0378L46.7813 106.275L46.8088 115.854L84.7194 94.2201L92.097 72.9859L91.0424 56.5811L90.8424 56.6848L74.2601 50.9786C74.1452 51.0848 74.0252 51.1787 73.8978 51.2503C73.4904 51.4825 73.1305 51.4504 72.9181 51.2083L72.9231 51.2108Z" fill="#FF5403"/>
</g>
<path d="M50.1877 67.6724L47.1137 72.8575L47.2936 73.0403L47.3711 73.1193L50.4351 67.9516C50.3327 67.8898 50.2477 67.7959 50.1902 67.6724H50.1877Z" fill="white"/>
<path d="M51.2674 65.2022C50.6176 65.5727 50.0927 66.4694 50.0952 67.208C50.0952 67.3908 50.1277 67.5465 50.1877 67.67C50.2452 67.7935 50.3302 67.8873 50.4326 67.9491C50.6476 68.0751 50.945 68.0603 51.2749 67.8725C51.7647 67.5934 52.1846 67.0129 52.3595 66.4274C52.4145 66.2446 52.4445 66.0618 52.447 65.8865C52.447 65.879 52.447 65.8741 52.447 65.8667C52.447 65.1281 51.9172 64.8317 51.2674 65.2022Z" fill="white"/>
<g opacity="0.4">
<path d="M61.4541 59.0439L53.8215 74.9621L46.9462 64.0585L47.316 89.9515L47.3435 99.1828L83.8846 78.3315L83.9396 57.7742L83.8846 38.7756C83.8846 38.7756 76.257 59.4095 76.5019 59.0414C76.5019 59.0414 61.664 59.1847 61.4541 59.0414V59.0439Z" fill="#FF5403"/>
</g>
<path d="M76.5869 57.3221C75.9371 57.6927 75.4122 58.5894 75.4147 59.328C75.4147 59.6491 75.5172 59.8887 75.6846 60.0221C75.7796 60.0987 75.8946 60.1407 76.027 60.1481C76.1945 60.158 76.3894 60.1086 76.5944 59.99C76.8493 59.8442 77.0817 59.6195 77.2741 59.3551C77.3941 59.1872 77.4991 59.0044 77.579 58.8166C77.6965 58.54 77.7665 58.2534 77.764 57.9842C77.764 57.2456 77.2342 56.9491 76.5844 57.3197L76.5869 57.3221Z" fill="white"/>
<path d="M53.9465 73.9666C53.2967 74.3371 52.7718 75.2338 52.7743 75.9724C52.7743 76.2936 52.8768 76.5332 53.0443 76.6666C53.1392 76.7431 53.2542 76.7851 53.3866 76.7925C53.5541 76.8024 53.749 76.753 53.954 76.6345C54.2089 76.4887 54.4413 76.2639 54.6338 75.9996C54.7537 75.8316 54.8587 75.6488 54.9387 75.4611C55.0561 75.1844 55.1261 74.8979 55.1236 74.6286C55.1236 73.89 54.5938 73.5936 53.944 73.9641L53.9465 73.9666Z" fill="white"/>
<path d="M61.4641 57.6853C61.3466 57.752 61.2342 57.8359 61.1267 57.9348C60.9768 58.0731 60.8393 58.2361 60.7193 58.414C60.4569 58.8092 60.292 59.2761 60.292 59.6911C60.292 60.4297 60.8218 60.7261 61.4716 60.3556C62.1214 59.9851 62.6462 59.0884 62.6437 58.3498C62.6437 58.1793 62.6138 58.0336 62.5638 57.9125C62.5063 57.7791 62.4238 57.6803 62.3163 57.6136C62.1014 57.4802 61.799 57.4926 61.4641 57.6853Z" fill="white"/>
<path d="M46.9486 64.0585L53.8214 74.9621L61.4541 59.0439H76.5018L83.9395 38.1951" stroke="white" stroke-width="1.5" stroke-miterlimit="10"/>
</g>
<path d="M11.8235 27.3402L47.4347 6.88638L83.1536 27.2701L47.5423 47.7239L11.8235 27.3402Z" fill="#FCF300"/>
<g filter="url(#filter1_d_147_9303)">
<path fill-rule="evenodd" clip-rule="evenodd" d="M115.693 28.7249L150.905 8.45404L186.221 28.6555L186.108 68.8571L150.895 89.1303V89.1304L150.895 89.1304L115.579 68.929L115.693 28.7249H115.693Z" fill="white"/>
</g>
<path d="M115.594 27.3942L151.207 7L186.926 27.3243L151.315 47.7184L115.594 27.3942Z" fill="#FCF300"/>
<mask id="mask2_147_9303" style="mask-type:luminance" maskUnits="userSpaceOnUse" x="114" y="27" width="38" height="63">
<path d="M151.26 48.5764L151.14 89.9089L114.639 69.1392L114.756 27.8067L151.26 48.5764Z" fill="white"/>
</mask>
<g mask="url(#mask2_147_9303)">
<path d="M151.26 48.5764L151.14 89.9089L114.639 69.1392L114.756 27.8067L151.26 48.5764Z" fill="#FCF300"/>
<g opacity="0.2">
<path d="M142.04 46.5735L151.387 54.839L151.265 97.4744L114.411 76.5027L114.484 50.8959L116.308 53.014C116.291 53.1002 116.281 53.1937 116.281 53.2972C116.281 54.1346 116.873 55.1518 117.613 55.5729C118.353 55.9941 118.953 55.6567 118.955 54.8193C118.955 54.4129 118.815 53.9646 118.585 53.5607L127.585 49.0462C127.82 49.4107 128.125 49.726 128.46 49.9181C129.199 50.3392 129.802 50.0043 129.804 49.1669C129.804 48.8787 129.734 48.5684 129.612 48.2679L139.853 45.6868C140.096 46.1277 140.448 46.5168 140.838 46.7385C141.366 47.0389 141.82 46.9527 142.04 46.5784V46.5735Z" fill="#FF5403"/>
</g>
<path d="M142.168 46.172L151.515 54.4351L151.395 54.8439L142.04 46.571C142.105 46.4626 142.148 46.3272 142.168 46.1695V46.172Z" fill="white"/>
<path d="M140.848 43.7042C141.588 44.1253 142.183 45.1425 142.18 45.9799C142.18 46.0464 142.175 46.1104 142.168 46.172C142.148 46.3296 142.105 46.4626 142.04 46.5735C141.82 46.9503 141.366 47.034 140.838 46.7335C140.448 46.5119 140.098 46.1227 139.853 45.6819C139.756 45.5045 139.676 45.3198 139.616 45.1327C139.544 44.9061 139.504 44.677 139.506 44.4603C139.506 43.6229 140.108 43.2855 140.848 43.7066V43.7042Z" fill="white"/>
<path d="M129.327 47.7236L139.616 45.1327C139.676 45.3198 139.756 45.5046 139.853 45.6819L129.612 48.263C129.534 48.0758 129.437 47.8936 129.324 47.7236H129.327Z" fill="white"/>
<path d="M114.447 50.8515L114.651 50.5264L116.466 52.6371C116.391 52.7381 116.338 52.8637 116.308 53.014L114.484 50.8959L114.444 50.8491L114.447 50.8515Z" fill="white"/>
<path d="M117.623 52.5435C117.843 52.6692 118.048 52.8465 118.23 53.0558C118.363 53.2085 118.483 53.3785 118.585 53.5583C118.815 53.9622 118.955 54.4129 118.955 54.8168C118.955 55.6542 118.353 55.9916 117.613 55.5705C116.873 55.1493 116.278 54.1321 116.281 53.2947C116.281 53.1938 116.291 53.1002 116.308 53.0115C116.338 52.8613 116.393 52.7356 116.466 52.6347C116.698 52.3194 117.131 52.2603 117.623 52.5411V52.5435Z" fill="white"/>
<path d="M127.307 48.5019C127.382 48.6891 127.475 48.8713 127.585 49.0437L118.585 53.5583C118.483 53.3785 118.363 53.2085 118.23 53.0558L127.307 48.5019Z" fill="white"/>
<path d="M128.472 46.8862C128.797 47.071 129.097 47.3739 129.329 47.7236C129.442 47.8936 129.539 48.0758 129.617 48.263C129.739 48.5635 129.812 48.8738 129.809 49.162C129.809 49.9994 129.204 50.3343 128.465 49.9132C128.13 49.7235 127.822 49.4083 127.59 49.0413C127.48 48.8689 127.385 48.6866 127.312 48.4994C127.197 48.2113 127.132 47.9133 127.135 47.6374C127.135 46.8 127.74 46.4651 128.477 46.8838L128.472 46.8862Z" fill="white"/>
<g opacity="0.3">
<path d="M135.885 57.457L145.424 66.4196C145.419 67.3432 146.014 68.3603 146.754 68.7815C147.171 69.0179 147.544 69.0155 147.789 68.816L151.16 72.2985L151.432 72.7123L151.91 105.952L111.805 82.889L111.875 58.6934L111.95 58.9126L122.567 59.2402C122.771 59.8953 123.244 60.5431 123.791 60.8559C124.531 61.277 125.131 60.9396 125.133 60.1022C125.133 59.7475 125.028 59.3609 124.848 59.0013L133.761 56.6221C134 57.0285 134.333 57.3832 134.698 57.5925C135.213 57.8856 135.657 57.8117 135.882 57.457H135.885Z" fill="#FF5403"/>
</g>
<path d="M148.011 68.5106L151.85 72.567L151.77 72.7418L151.682 72.9315L147.789 68.8184C147.883 68.7421 147.958 68.6386 148.011 68.5106Z" fill="white"/>
<path d="M146.764 65.7546C147.504 66.1757 148.098 67.1929 148.096 68.0303C148.096 68.215 148.066 68.3776 148.011 68.5106C147.958 68.6411 147.883 68.7445 147.789 68.8184C147.544 69.0155 147.171 69.0204 146.754 68.784C146.014 68.3628 145.419 67.3456 145.422 66.5082C145.422 66.4787 145.422 66.4491 145.424 66.422C145.434 66.2545 145.467 66.1117 145.524 65.991C145.727 65.5526 146.204 65.4369 146.764 65.757V65.7546Z" fill="white"/>
<path d="M135.885 57.457C135.952 57.3511 136 57.2181 136.025 57.063L145.524 65.9886C145.469 66.1092 145.434 66.2521 145.424 66.4196L135.885 57.457Z" fill="white"/>
<path d="M134.708 54.5656C135.447 54.9867 136.042 56.0039 136.04 56.8413C136.04 56.9201 136.035 56.9965 136.022 57.0654C136 57.2206 135.95 57.3511 135.882 57.4595C135.657 57.8117 135.21 57.8856 134.698 57.595C134.33 57.3856 134 57.031 133.76 56.6246C133.655 56.4497 133.57 56.2625 133.503 56.0753C133.413 55.8217 133.363 55.5631 133.366 55.3192C133.366 54.4818 133.968 54.1444 134.708 54.5656Z" fill="white"/>
<path d="M111.762 58.3609L122.464 58.6959C122.474 58.8732 122.511 59.0579 122.566 59.2427L111.95 58.9151L111.875 58.6959L111.762 58.3609Z" fill="white"/>
<path d="M123.801 57.8289C124.068 57.9816 124.316 58.2107 124.523 58.4791C124.648 58.6417 124.758 58.819 124.851 59.0037C125.028 59.3633 125.136 59.75 125.136 60.1047C125.136 60.9421 124.533 61.2795 123.794 60.8583C123.244 60.5455 122.771 59.9002 122.569 59.2427C122.511 59.0579 122.476 58.8732 122.466 58.6959C122.466 58.6589 122.464 58.6195 122.464 58.5826C122.464 57.7452 123.069 57.4102 123.806 57.8289H123.801Z" fill="white"/>
<path d="M124.523 58.4791L133.505 56.0754C133.57 56.2625 133.658 56.4472 133.763 56.6246L124.851 59.0037C124.758 58.819 124.648 58.6417 124.523 58.4791Z" fill="white"/>
<g opacity="0.4">
<path d="M138.132 67.7569L148.096 78.5716C148.041 78.7046 148.011 78.8646 148.011 79.0494C148.011 79.8867 148.608 80.9064 149.343 81.3251C149.695 81.527 150.018 81.5541 150.258 81.4359L151.397 83.091L151.327 110.796L114.471 89.8246L114.549 62.7745L114.841 62.9912L114.816 63.1735L123.963 69.9292C123.978 70.7592 124.571 71.7518 125.296 72.1631C126.035 72.5842 126.635 72.2468 126.638 71.4094C126.638 71.1163 126.565 70.8035 126.44 70.5006L136.19 67.1116C136.41 67.4195 136.682 67.683 136.977 67.853C137.469 68.1338 137.899 68.0771 138.132 67.7618V67.7569Z" fill="#FF5403"/>
</g>
<path d="M149.353 78.2932C150.093 78.7144 150.688 79.734 150.685 80.569C150.685 80.8276 150.628 81.0394 150.525 81.1945C150.455 81.3029 150.365 81.3842 150.258 81.4359C150.018 81.5517 149.698 81.5246 149.343 81.3251C148.608 80.9064 148.008 79.8867 148.011 79.0494C148.011 78.8646 148.041 78.7046 148.096 78.5716C148.148 78.4459 148.221 78.3425 148.313 78.2686C148.561 78.0667 148.936 78.0593 149.353 78.2957V78.2932Z" fill="white"/>
<path d="M150.528 81.1946L151.972 83.1895L151.705 83.4284L150.815 82.2388L150.26 81.4335C150.368 81.3817 150.458 81.3005 150.528 81.1921V81.1946Z" fill="white"/>
<path d="M135.882 66.5797C135.967 66.7644 136.07 66.9442 136.187 67.1092L126.438 70.4981C126.36 70.3134 126.265 70.1312 126.153 69.9612L135.882 66.5797Z" fill="white"/>
<path d="M136.987 64.8211C137.727 65.2423 138.321 66.2595 138.319 67.0969C138.319 67.2003 138.309 67.2964 138.291 67.3826C138.261 67.5328 138.207 67.6584 138.134 67.7569C137.902 68.0722 137.472 68.1288 136.979 67.8481C136.684 67.6806 136.412 67.417 136.192 67.1067C136.075 66.9417 135.97 66.7619 135.887 66.5772C135.737 66.2447 135.647 65.895 135.65 65.5723C135.65 64.7349 136.252 64.3975 136.992 64.8187L136.987 64.8211Z" fill="white"/>
<path d="M138.132 67.7569C138.207 67.6559 138.259 67.5303 138.289 67.3826L148.311 78.2686C148.218 78.345 148.146 78.4459 148.093 78.5716L138.129 67.7569H138.132Z" fill="white"/>
<path d="M125.303 69.1312C125.625 69.3159 125.923 69.614 126.153 69.9612C126.265 70.1312 126.363 70.311 126.438 70.4981C126.563 70.8011 126.635 71.1139 126.635 71.407C126.635 72.2443 126.033 72.5818 125.293 72.1606C124.568 71.7493 123.978 70.7543 123.961 69.9267C123.961 69.9144 123.961 69.8997 123.961 69.8873C123.961 69.7297 123.983 69.5918 124.023 69.4711C124.196 68.9514 124.706 68.7938 125.303 69.1337V69.1312Z" fill="white"/>
<path d="M114.879 62.7154L124.023 69.4686C123.983 69.5893 123.963 69.7272 123.961 69.8849C123.961 69.8972 123.961 69.912 123.961 69.9243L114.814 63.1685L114.839 62.9863L114.876 62.7129L114.879 62.7154Z" fill="white"/>
</g>
<mask id="mask3_147_9303" style="mask-type:luminance" maskUnits="userSpaceOnUse" x="151" y="27" width="37" height="63">
<path d="M151.042 48.5764L151.162 89.9089L187.663 69.1392L187.546 27.8067L151.042 48.5764Z" fill="white"/>
</mask>
<g mask="url(#mask3_147_9303)">
<path d="M151.042 46.6966L151.162 88.0291L187.663 67.2594L187.546 25.9269L151.042 46.6966Z" fill="#FCF300"/>
<g opacity="0.2">
<path d="M159.997 46.5981L150.568 54.935L150.693 97.9423L187.868 76.7909L187.793 50.9599L185.954 53.0952C185.972 53.1814 185.982 53.2775 185.982 53.3809C185.982 54.2257 185.384 55.2503 184.637 55.6764C183.89 56.1024 183.287 55.7601 183.285 54.9153C183.285 54.5065 183.425 54.0533 183.657 53.6445L174.578 49.0905C174.34 49.46 174.033 49.7777 173.695 49.9698C172.951 50.3934 172.341 50.056 172.338 49.2112C172.338 48.9206 172.408 48.6054 172.533 48.3049L162.204 45.7016C161.959 46.1449 161.604 46.539 161.212 46.7631C160.682 47.066 160.222 46.9798 160 46.6005L159.997 46.5981Z" fill="#FF5403"/>
</g>
<path d="M159.867 46.1942L150.44 54.5286L150.56 54.9424L159.997 46.5981C159.932 46.4873 159.89 46.3518 159.867 46.1942Z" fill="white"/>
<path d="M161.199 43.7066C160.455 44.1302 159.852 45.1573 159.855 46.0021C159.855 46.071 159.86 46.1351 159.867 46.1966C159.887 46.3543 159.932 46.4897 159.997 46.6005C160.22 46.9798 160.677 47.066 161.209 46.7631C161.604 46.539 161.957 46.1474 162.201 45.7016C162.301 45.5218 162.381 45.3346 162.441 45.1474C162.514 44.9184 162.554 44.6869 162.554 44.4677C162.554 43.6229 161.947 43.283 161.202 43.7066H161.199Z" fill="white"/>
<path d="M172.821 47.7606L162.441 45.145C162.381 45.3321 162.301 45.5218 162.201 45.6991L172.531 48.3024C172.608 48.1152 172.706 47.9305 172.821 47.7581V47.7606Z" fill="white"/>
<path d="M187.833 50.9156L187.626 50.588L185.794 52.7184C185.869 52.8194 185.924 52.9475 185.954 53.0977L187.793 50.9624L187.833 50.9156Z" fill="white"/>
<path d="M184.627 52.6224C184.405 52.748 184.197 52.9278 184.015 53.1396C183.88 53.2947 183.76 53.4647 183.657 53.6469C183.425 54.0533 183.282 54.5089 183.285 54.9178C183.285 55.7626 183.892 56.1024 184.637 55.6788C185.382 55.2552 185.984 54.2282 185.982 53.3834C185.982 53.28 185.972 53.1864 185.954 53.0977C185.924 52.9475 185.869 52.8194 185.794 52.7184C185.559 52.3982 185.124 52.3391 184.627 52.6224Z" fill="white"/>
<path d="M174.858 48.5438C174.783 48.731 174.688 48.9157 174.578 49.0905L183.657 53.6445C183.76 53.4647 183.882 53.2923 184.015 53.1371L174.858 48.5438Z" fill="white"/>
<path d="M173.685 46.9158C173.358 47.103 173.056 47.4059 172.821 47.7606C172.706 47.933 172.608 48.1177 172.531 48.3049C172.406 48.6078 172.333 48.9206 172.336 49.2112C172.336 50.056 172.948 50.3934 173.693 49.9698C174.03 49.7777 174.34 49.46 174.575 49.0905C174.688 48.9181 174.783 48.7334 174.855 48.5438C174.97 48.2532 175.035 47.9527 175.035 47.6744C175.035 46.8296 174.423 46.4922 173.683 46.9133L173.685 46.9158Z" fill="white"/>
<g opacity="0.3">
<path d="M166.205 57.5802L154.679 61.0061C154.684 61.9395 154.447 61.9469 154.197 61.7474L150.798 72.5547L150.523 72.9709L150.04 106.501L190.498 83.2338L190.428 58.8264L190.353 59.0481L179.644 59.3781C179.439 60.0406 178.961 60.6933 178.407 61.0061C177.662 61.4297 177.057 61.0898 177.054 60.2451C177.054 59.8879 177.159 59.4988 177.342 59.1367L168.352 56.7354C168.11 57.1467 167.775 57.5038 167.405 57.7132C166.888 58.0087 166.435 57.9324 166.21 57.5777L166.205 57.5802Z" fill="#FF5403"/>
</g>
<path d="M154.196 61.7474L150.478 73.4807L150.605 73.5078L150.693 73.6999L154.419 62.0602C154.324 61.9839 154.249 61.8804 154.196 61.7499V61.7474Z" fill="white"/>
<path d="M154.839 59.6638C154.094 60.0874 153.492 61.1145 153.494 61.9592C153.494 62.1464 153.524 62.309 153.579 62.4444C153.632 62.575 153.709 62.6809 153.802 62.7548C154.049 62.9543 154.426 62.9567 154.846 62.7178C155.591 62.2942 156.193 61.2672 156.191 60.4224C156.191 60.3928 156.191 60.3633 156.188 60.3337C156.178 60.1662 156.143 60.0209 156.088 59.8978C155.886 59.4569 155.401 59.3412 154.839 59.6613V59.6638Z" fill="white"/>
<path d="M166.205 57.5802C166.138 57.4718 166.088 57.3388 166.065 57.1837L155.621 60.5726C155.676 60.6933 155.711 60.8386 155.721 61.0086L166.205 57.5826V57.5802Z" fill="white"/>
<path d="M167.392 54.6616C166.648 55.0853 166.045 56.1123 166.048 56.9571C166.048 57.0383 166.053 57.1122 166.065 57.1837C166.088 57.3413 166.138 57.4743 166.205 57.5802C166.433 57.9373 166.883 58.0112 167.4 57.7156C167.77 57.5063 168.102 57.1467 168.347 56.7379C168.452 56.5605 168.539 56.3734 168.604 56.1837C168.694 55.9276 168.744 55.6665 168.744 55.4202C168.744 54.5754 168.137 54.2356 167.392 54.6592V54.6616Z" fill="white"/>
<path d="M190.54 58.489L179.746 58.8264C179.736 59.0062 179.698 59.1934 179.641 59.3781L190.35 59.0481L190.425 58.8264L190.54 58.489Z" fill="white"/>
<path d="M178.396 57.9521C178.126 58.1048 177.877 58.3363 177.669 58.6097C177.544 58.7722 177.432 58.952 177.339 59.1367C177.159 59.4988 177.052 59.8879 177.052 60.2451C177.052 61.0898 177.659 61.4297 178.404 61.0061C178.956 60.6908 179.434 60.0382 179.641 59.3781C179.698 59.1934 179.736 59.0062 179.746 58.8264C179.746 58.787 179.751 58.7501 179.748 58.7131C179.748 57.8683 179.136 57.5309 178.396 57.9521Z" fill="white"/>
<path d="M177.669 58.6097L168.607 56.1837C168.542 56.3734 168.452 56.5605 168.35 56.7379L177.339 59.1392C177.432 58.9545 177.542 58.7747 177.669 58.6121V58.6097Z" fill="white"/>
<g opacity="0.4">
<path d="M163.938 67.9687L153.669 78.5691C153.724 78.7021 150.558 83.4358 150.558 83.4358L150.628 111.382L187.806 90.2285L187.728 62.9419L187.434 63.1587L187.459 63.3409L178.231 70.1558C178.214 70.9932 177.619 71.9956 176.887 72.4094C176.142 72.833 175.537 72.4931 175.535 71.6483C175.535 71.3528 175.607 71.0375 175.732 70.7321L165.898 67.3136C165.675 67.6264 165.4 67.8899 165.103 68.0599C164.606 68.3431 164.173 68.2864 163.936 67.9663L163.938 67.9687Z" fill="#FF5403"/>
</g>
<path d="M153.797 78.4164L149.98 83.5343L150.25 83.7757L151.147 82.5762L154.067 78.6578C153.959 78.606 153.867 78.5223 153.797 78.4139V78.4164Z" fill="white"/>
<path d="M166.208 66.7792C166.123 66.9663 166.018 67.1461 165.9 67.3136L175.735 70.7321C175.812 70.5449 175.91 70.3627 176.022 70.1903L166.208 66.7792Z" fill="white"/>
<path d="M165.096 65.0059C164.351 65.4295 163.748 66.4565 163.751 67.3013C163.751 67.4047 163.761 67.5008 163.778 67.5894C163.808 67.7397 163.863 67.8678 163.938 67.9687C164.173 68.2864 164.608 68.3431 165.106 68.0623C165.403 67.8924 165.678 67.6264 165.9 67.3161C166.02 67.1486 166.125 66.9688 166.208 66.7816C166.36 66.4467 166.45 66.0945 166.448 65.7669C166.448 64.9221 165.84 64.5822 165.096 65.0059Z" fill="white"/>
<path d="M163.938 67.9687C163.863 67.8678 163.808 67.7421 163.778 67.5894L153.667 78.5691C153.759 78.6454 153.834 78.7489 153.887 78.877L163.938 67.9687Z" fill="white"/>
<path d="M176.882 69.3554C176.554 69.5401 176.257 69.8405 176.025 70.1927C175.912 70.3627 175.815 70.5474 175.737 70.7346C175.61 71.04 175.537 71.3577 175.54 71.6508C175.54 72.4956 176.147 72.8354 176.892 72.4118C177.622 71.9956 178.219 70.9932 178.236 70.1583C178.236 70.1459 178.236 70.1312 178.236 70.1189C178.236 69.9612 178.214 69.8208 178.174 69.7002C178.002 69.1756 177.487 69.0179 176.882 69.3603V69.3554Z" fill="white"/>
<path d="M187.396 62.8828L178.174 69.6952C178.214 69.8159 178.236 69.9563 178.236 70.1139C178.236 70.1262 178.236 70.141 178.236 70.1533L187.464 63.3385L187.439 63.1562L187.399 62.8804L187.396 62.8828Z" fill="white"/>
</g>
<g filter="url(#filter2_d_147_9303)">
<path fill-rule="evenodd" clip-rule="evenodd" d="M219.204 28.8413L254.416 8.50909L289.733 28.7717L289.619 69.0949L254.407 89.4296L254.407 89.4296L219.09 69.167L219.204 28.8413L219.204 28.8413Z" fill="white"/>
</g>
<path d="M254.566 48.621L290.96 27.7179L290.84 69.1734L254.446 90.079L254.566 48.621Z" fill="#DFE1E2"/>
<mask id="mask4_147_9303" style="mask-type:luminance" maskUnits="userSpaceOnUse" x="218" y="27" width="37" height="64">
<path d="M254.684 48.5865L254.564 90.042L218.063 69.2105L218.183 27.7549L254.684 48.5865Z" fill="white"/>
</mask>
<g mask="url(#mask4_147_9303)">
<path d="M254.684 48.5865L254.564 90.042L218.063 69.2105L218.183 27.7549L254.684 48.5865Z" fill="#FCF300"/>
<path d="M217.208 56.158L227.405 38.7008C227.517 38.8713 227.647 39.0294 227.79 39.1628L217.605 56.6076L217.448 56.4297L217.208 56.158Z" fill="white"/>
<path d="M228.162 36.7667C228.807 37.1347 229.332 38.0314 229.329 38.77C229.329 38.8639 229.319 38.9503 229.304 39.0269C229.274 39.1776 229.214 39.3011 229.132 39.395C228.922 39.6371 228.559 39.6692 228.152 39.437C228.025 39.3653 227.905 39.2715 227.79 39.1653C227.647 39.0319 227.517 38.8738 227.405 38.7033C227.145 38.3105 226.98 37.8461 226.982 37.4311C226.982 36.6925 227.512 36.3961 228.162 36.7667Z" fill="white"/>
<path d="M229.132 39.395C229.212 39.3011 229.272 39.1801 229.304 39.0269L239.026 50.3159C238.924 50.3801 238.844 50.4789 238.789 50.6074L229.132 39.3925V39.395Z" fill="white"/>
<path d="M239.886 50.3826C240.318 50.6296 240.696 51.1113 240.898 51.6227C240.971 51.8079 241.023 51.9981 241.046 52.1809C241.053 52.2501 241.058 52.3193 241.058 52.3884C241.058 53.1221 240.528 53.4185 239.878 53.048C239.229 52.6775 238.704 51.7808 238.706 51.0471C238.706 50.8767 238.736 50.7284 238.786 50.6099C238.841 50.4814 238.924 50.3826 239.024 50.3184C239.239 50.18 239.544 50.1899 239.883 50.3851L239.886 50.3826Z" fill="white"/>
<path d="M240.898 51.6202L249.608 54.0682C249.608 54.2436 249.64 54.4264 249.695 54.6092L241.046 52.1785C241.023 51.9932 240.973 51.8055 240.898 51.6202Z" fill="white"/>
<g opacity="0.2">
<path d="M229.132 39.395L238.789 50.6099C238.736 50.7309 238.709 50.8766 238.709 51.0471C238.709 51.7808 239.231 52.6775 239.881 53.048C240.531 53.4185 241.058 53.1221 241.061 52.3884C241.061 52.3217 241.056 52.2501 241.048 52.1809L249.698 54.6117C249.873 55.1971 250.293 55.7776 250.783 56.0567C251.112 56.2445 251.41 56.2618 251.625 56.1333L255.241 61.1701L255.319 61.0911L255.274 94.4591L255.246 104.039L217.331 82.4043L217.393 60.4266L217.405 56.5039L217.605 56.6076L227.79 39.1628C227.905 39.269 228.025 39.3629 228.152 39.4345C228.559 39.6667 228.919 39.6346 229.132 39.3925V39.395Z" fill="#FF5403"/>
</g>
<path d="M251.867 55.8542L255.496 60.9083L255.316 61.0911L255.239 61.1701L251.622 56.1333C251.725 56.0716 251.81 55.9777 251.867 55.8542Z" fill="white"/>
<path d="M250.788 53.3864C251.437 53.7569 251.962 54.6536 251.96 55.3922C251.96 55.575 251.927 55.7307 251.867 55.8542C251.81 55.9777 251.725 56.0716 251.622 56.1333C251.407 56.2593 251.11 56.2445 250.78 56.0567C250.29 55.7776 249.87 55.1971 249.695 54.6117C249.64 54.4289 249.61 54.2461 249.608 54.0707C249.608 54.0633 249.608 54.0583 249.608 54.0509C249.608 53.3123 250.138 53.0159 250.788 53.3864Z" fill="white"/>
<path opacity="0.3" d="M249.133 66.0118C249.238 66.6862 249.713 67.4174 250.283 67.7434C250.63 67.9411 250.943 67.9485 251.158 67.8002L254.926 74.087L255.081 73.9931L255.011 98.9771L254.984 108.557L217.071 86.9199L217.133 64.9422L217.163 54.8933L217.298 55.165L225.053 52.6157C225.246 53.1592 225.641 53.6779 226.098 53.9397C226.66 54.2609 227.135 54.0756 227.248 53.5346L237.04 63.0055C237.037 63.7614 237.562 64.663 238.209 65.0336C238.854 65.4016 239.381 65.1003 239.384 64.3666C239.384 64.2135 239.361 64.0529 239.321 63.8923L249.136 66.0069L249.133 66.0118Z" fill="#FF5403"/>
<path d="M227.25 53.0035C227.148 52.3292 226.673 51.593 226.103 51.2694C225.453 50.8989 224.926 51.1953 224.923 51.9339C224.923 51.9611 224.923 51.9883 224.923 52.0154C224.931 52.1711 224.966 52.3341 225.016 52.4971C224.966 52.3341 224.931 52.1735 224.923 52.0154L217.023 54.6141L217.163 54.8933L217.298 55.165L225.053 52.6157C225.246 53.1592 225.64 53.6779 226.098 53.9397C226.66 54.2609 227.135 54.0756 227.247 53.5346L237.039 63.0055C237.042 62.8301 237.074 62.6819 237.132 62.5609L227.252 53.0035H227.25Z" fill="white"/>
<path d="M251.392 67.489C251.437 67.3729 251.462 67.2346 251.462 67.0765C251.462 66.3379 250.94 65.4412 250.29 65.0706C249.72 64.7446 249.243 64.9348 249.136 65.4856L239.094 63.3192C238.879 62.9191 238.566 62.5633 238.217 62.3633C237.729 62.0866 237.312 62.1829 237.132 62.5609C237.074 62.6819 237.042 62.8301 237.039 63.0055C237.039 63.0129 237.039 63.0203 237.039 63.0302C237.039 63.7639 237.562 64.6655 238.212 65.0361C238.856 65.4041 239.384 65.1028 239.386 64.3691C239.386 64.2159 239.364 64.0554 239.324 63.8948L249.138 66.0093C249.243 66.6837 249.718 67.4149 250.288 67.741C250.635 67.9386 250.948 67.946 251.162 67.7978L254.931 74.0845L255.086 73.9907L255.239 73.8968L251.397 67.489H251.392Z" fill="white"/>
<g opacity="0.4">
<path d="M252.727 63.1611L255.141 66.407L255.241 66.2959L255.429 102.366L255.401 111.946L217.491 90.3115L217.553 68.3338L217.863 53.7298L218.023 53.9373L226.98 48.6633C227.173 48.9276 227.407 49.1549 227.66 49.2982C227.865 49.4167 228.06 49.4661 228.227 49.4563L236.735 71.9083C236.735 71.9083 237.619 73.1705 237.367 72.7901L251.282 62.6152C251.45 62.8178 251.642 62.9858 251.85 63.1043C252.197 63.3019 252.51 63.3094 252.725 63.1611H252.727Z" fill="#FF5403"/>
</g>
<path d="M250.943 62.1014C251.038 62.2842 251.153 62.4596 251.282 62.6177L238.117 72.7926C237.999 72.6147 237.862 72.4517 237.709 72.3134L250.94 62.1014H250.943Z" fill="white"/>
<path d="M252.954 62.8622L255.389 66.1304L255.241 66.2959L255.141 66.407L252.727 63.1611C252.824 63.092 252.904 62.9932 252.957 62.8622H252.954Z" fill="white"/>
<path d="M251.857 60.4365C252.507 60.807 253.032 61.7037 253.029 62.4423C253.029 62.6053 253.002 62.7461 252.954 62.8647C252.902 62.9956 252.825 63.0944 252.725 63.1636C252.51 63.3118 252.197 63.3069 251.85 63.1068C251.645 62.9882 251.45 62.8178 251.282 62.6177C251.153 62.4621 251.038 62.2867 250.943 62.1014C250.775 61.7753 250.678 61.4221 250.678 61.101C250.678 60.3624 251.208 60.0659 251.857 60.4365Z" fill="white"/>
<path d="M227.667 46.6303C228.317 47.0008 228.842 47.8975 228.84 48.6361C228.84 48.9573 228.737 49.1969 228.57 49.3303C228.475 49.4069 228.36 49.4489 228.227 49.4563C228.06 49.4661 227.865 49.4167 227.66 49.2982C227.405 49.1524 227.173 48.9276 226.98 48.6633C226.86 48.4953 226.755 48.3125 226.675 48.1248C226.558 47.8481 226.488 47.5616 226.49 47.2923C226.49 46.5537 227.02 46.2573 227.67 46.6278L227.667 46.6303Z" fill="white"/>
<path d="M228.227 49.4587C228.357 49.4513 228.475 49.4069 228.57 49.3327L237.029 72.3109C236.924 72.3776 236.84 72.4764 236.782 72.6098L228.227 49.4587Z" fill="white"/>
<path d="M226.673 48.1273C226.753 48.315 226.858 48.4978 226.978 48.6658L218.02 53.9397L217.888 53.715L217.703 53.4037L226.673 48.1273Z" fill="white"/>
<path d="M237.369 71.5772C237.487 71.6439 237.599 71.7279 237.707 71.8267C237.857 71.9651 237.994 72.1281 238.114 72.306C238.377 72.7012 238.541 73.1681 238.541 73.5831C238.541 74.3217 238.012 74.6181 237.362 74.2476C236.712 73.877 236.187 72.9803 236.19 72.2417C236.19 72.0713 236.22 71.9256 236.27 71.8045C236.327 71.6711 236.41 71.5723 236.517 71.5056C236.732 71.3722 237.034 71.3846 237.369 71.5772Z" fill="white"/>
</g>
<mask id="mask5_147_9303" style="mask-type:luminance" maskUnits="userSpaceOnUse" x="254" y="27" width="38" height="64">
<path d="M254.391 48.5865L254.511 90.042L291.012 69.2105L290.895 27.7549L254.391 48.5865Z" fill="white"/>
</mask>
<g mask="url(#mask5_147_9303)">
<path d="M254.391 48.5865L254.511 90.042L291.012 69.2105L290.895 27.7549L254.391 48.5865Z" fill="#FCF300"/>
<path opacity="0.2" d="M259.945 50.571C259.84 51.2453 259.365 51.9765 258.795 52.3026C258.448 52.5002 258.135 52.5076 257.92 52.3594L254.217 59.9134L254.062 59.8195L254.069 83.5338L254.097 93.1134L292.007 71.4791L291.945 49.5014L291.915 39.4524L291.78 39.7242L284.025 37.1749C283.832 37.7183 283.437 38.2371 282.98 38.4989C282.418 38.8201 281.943 38.6348 281.83 38.0938L272.039 47.5647C272.041 48.3206 271.516 49.2222 270.869 49.5928C270.224 49.9608 269.697 49.6595 269.694 48.9258C269.694 48.7726 269.717 48.6121 269.757 48.4515L259.942 50.566L259.945 50.571Z" fill="#FF5403"/>
<path d="M281.828 37.5652C281.93 36.8908 282.405 36.1547 282.975 35.8311C283.625 35.4605 284.152 35.757 284.155 36.4956C284.155 36.5227 284.155 36.5499 284.155 36.5771C284.147 36.7327 284.112 36.8957 284.062 37.0588C284.112 36.8957 284.147 36.7352 284.155 36.5771L292.057 39.1733L291.917 39.4524L291.782 39.7242L284.027 37.1749C283.835 37.7183 283.44 38.2371 282.983 38.4989C282.42 38.8201 281.945 38.6348 281.833 38.0938L272.041 47.5647C272.039 47.3893 272.006 47.2411 271.949 47.1201L281.828 37.5627V37.5652Z" fill="white"/>
<path d="M257.686 52.0506C257.641 51.9345 257.616 51.7962 257.616 51.6381C257.616 50.8995 258.138 50.0028 258.788 49.6323C259.357 49.3062 259.835 49.4964 259.942 50.0473L269.984 47.8809C270.199 47.4807 270.511 47.125 270.861 46.9249C271.349 46.6482 271.766 46.7446 271.946 47.1225C272.004 47.2436 272.036 47.3918 272.039 47.5672C272.039 47.5746 272.039 47.582 272.039 47.5919C272.039 48.3255 271.516 49.2272 270.866 49.5977C270.222 49.9658 269.694 49.6644 269.692 48.9307C269.692 48.7776 269.714 48.617 269.754 48.4564L259.94 50.571C259.835 51.2454 259.36 51.9765 258.79 52.3026C258.443 52.5002 258.13 52.5076 257.915 52.3594L254.442 59.8665L254.287 59.7726L254.134 59.6787L257.681 52.0482L257.686 52.0506Z" fill="white"/>
<path d="M296.951 56.1858L281.673 50.5191C281.56 50.6895 281.43 50.8476 281.288 50.981L296.553 56.6354L296.711 56.4576L296.951 56.1858Z" fill="white"/>
<path d="M280.916 48.5824C280.271 48.9505 279.746 49.8472 279.749 50.5858C279.749 50.6797 279.759 50.7661 279.774 50.8427C279.804 50.9934 279.863 51.1169 279.946 51.2108C280.156 51.4529 280.518 51.485 280.926 51.2528C281.053 51.1811 281.173 51.0873 281.288 50.981C281.43 50.8476 281.56 50.6895 281.673 50.5191C281.933 50.1263 282.098 49.6619 282.095 49.2469C282.095 48.5083 281.565 48.2119 280.916 48.5824Z" fill="white"/>
<path d="M279.946 51.2108C279.866 51.1169 279.806 50.9959 279.774 50.8427L270.052 62.1317C270.154 62.1959 270.234 62.2947 270.289 62.4232L279.946 51.2083V51.2108Z" fill="white"/>
<path d="M269.192 62.2009C268.759 62.4479 268.382 62.9296 268.18 63.4409C268.107 63.6262 268.055 63.8164 268.032 63.9992C268.025 64.0684 268.02 64.1375 268.02 64.2067C268.02 64.9404 268.55 65.2368 269.199 64.8662C269.849 64.4957 270.374 63.599 270.371 62.8654C270.371 62.6949 270.341 62.5467 270.291 62.4281C270.237 62.2997 270.154 62.2009 270.054 62.1366C269.839 61.9983 269.534 62.0082 269.194 62.2033L269.192 62.2009Z" fill="white"/>
<path d="M268.18 63.4384L259.47 65.8865C259.47 66.0618 259.437 66.2446 259.382 66.4274L268.032 63.9967C268.055 63.8115 268.105 63.6237 268.18 63.4384Z" fill="white"/>
<g opacity="0.3">
<path d="M279.946 51.2108L270.289 62.4256C270.341 62.5467 270.369 62.6924 270.369 62.8629C270.369 63.5965 269.847 64.4932 269.197 64.8638C268.547 65.2343 268.02 64.9379 268.017 64.2042C268.017 64.1375 268.022 64.0659 268.03 63.9967L259.38 66.4274C259.205 67.0129 258.785 67.5934 258.295 67.8725C257.965 68.0603 257.668 68.0776 257.453 67.9491L254.212 73.1168L254.134 73.0378L253.804 106.275L253.832 115.854L291.742 94.2201L299.12 72.9859L298.065 56.5811L297.865 56.6848L281.283 50.9786C281.168 51.0848 281.048 51.1787 280.921 51.2503C280.513 51.4825 280.153 51.4504 279.941 51.2083L279.946 51.2108Z" fill="#FF5403"/>
</g>
<path d="M257.211 67.6724L254.137 72.8575L254.317 73.0403L254.394 73.1193L257.458 67.9516C257.356 67.8898 257.271 67.7959 257.213 67.6724H257.211Z" fill="white"/>
<path d="M258.29 65.2022C257.64 65.5727 257.116 66.4694 257.118 67.208C257.118 67.3908 257.151 67.5465 257.211 67.67C257.268 67.7935 257.353 67.8873 257.456 67.9491C257.67 68.0751 257.968 68.0603 258.298 67.8725C258.788 67.5934 259.207 67.0129 259.382 66.4274C259.437 66.2446 259.467 66.0618 259.47 65.8865C259.47 65.879 259.47 65.8741 259.47 65.8667C259.47 65.1281 258.94 64.8317 258.29 65.2022Z" fill="white"/>
<g opacity="0.4">
<path d="M268.477 59.0439L260.844 74.9621L253.969 64.0585L254.339 89.9515L254.366 99.1828L290.907 78.3315L290.962 57.7742L290.907 38.7756C290.907 38.7756 283.28 59.4095 283.525 59.0414C283.525 59.0414 268.687 59.1847 268.477 59.0414V59.0439Z" fill="#FF5403"/>
</g>
<path d="M283.61 57.3221C282.96 57.6927 282.435 58.5894 282.438 59.328C282.438 59.6491 282.54 59.8887 282.708 60.0221C282.803 60.0987 282.917 60.1407 283.05 60.1481C283.217 60.158 283.412 60.1086 283.617 59.99C283.872 59.8442 284.105 59.6195 284.297 59.3551C284.417 59.1872 284.522 59.0044 284.602 58.8166C284.719 58.54 284.789 58.2534 284.787 57.9842C284.787 57.2456 284.257 56.9491 283.607 57.3197L283.61 57.3221Z" fill="white"/>
<path d="M260.969 73.9666C260.32 74.3371 259.795 75.2338 259.797 75.9724C259.797 76.2936 259.9 76.5332 260.067 76.6666C260.162 76.7431 260.277 76.7851 260.41 76.7925C260.577 76.8024 260.772 76.753 260.977 76.6345C261.232 76.4887 261.464 76.2639 261.657 75.9996C261.777 75.8316 261.882 75.6488 261.962 75.4611C262.079 75.1844 262.149 74.8979 262.146 74.6286C262.146 73.89 261.617 73.5936 260.967 73.9641L260.969 73.9666Z" fill="white"/>
<path d="M268.487 57.6853C268.37 57.752 268.257 57.8359 268.15 57.9348C268 58.0731 267.862 58.2361 267.742 58.414C267.48 58.8092 267.315 59.2761 267.315 59.6911C267.315 60.4297 267.845 60.7261 268.494 60.3556C269.144 59.9851 269.669 59.0884 269.667 58.3498C269.667 58.1793 269.637 58.0336 269.587 57.9125C269.529 57.7791 269.447 57.6803 269.339 57.6136C269.124 57.4802 268.822 57.4926 268.487 57.6853Z" fill="white"/>
<path d="M253.971 64.0585L260.844 74.9621L268.477 59.0439H283.525L290.962 38.1951" stroke="white" stroke-width="1.5" stroke-miterlimit="10"/>
</g>
<path d="M218.846 27.3402L254.458 6.88638L290.176 27.2701L254.565 47.7239L218.846 27.3402Z" fill="#FCF300"/>
<defs>
<filter id="filter0_d_147_9303" x="0.0675049" y="0.50909" width="94.6423" height="104.921" filterUnits="userSpaceOnUse" color-interpolation-filters="sRGB">
<feFlood flood-opacity="0" result="BackgroundImageFix"/>
<feColorMatrix in="SourceAlpha" type="matrix" values="0 0 0 0 0 0 0 0 0 0 0 0 0 0 0 0 0 0 127 0" result="hardAlpha"/>
<feOffset dy="4"/>
<feGaussianBlur stdDeviation="6"/>
<feComposite in2="hardAlpha" operator="out"/>
<feColorMatrix type="matrix" values="0 0 0 0 0.266667 0 0 0 0 0.171805 0 0 0 0 0 0 0 0 0.2 0"/>
<feBlend mode="normal" in2="BackgroundImageFix" result="effect1_dropShadow_147_9303"/>
<feBlend mode="normal" in="SourceGraphic" in2="effect1_dropShadow_147_9303" result="shape"/>
</filter>
<filter id="filter1_d_147_9303" x="103.579" y="0.454041" width="94.6423" height="104.676" filterUnits="userSpaceOnUse" color-interpolation-filters="sRGB">
<feFlood flood-opacity="0" result="BackgroundImageFix"/>
<feColorMatrix in="SourceAlpha" type="matrix" values="0 0 0 0 0 0 0 0 0 0 0 0 0 0 0 0 0 0 127 0" result="hardAlpha"/>
<feOffset dy="4"/>
<feGaussianBlur stdDeviation="6"/>
<feComposite in2="hardAlpha" operator="out"/>
<feColorMatrix type="matrix" values="0 0 0 0 0.266667 0 0 0 0 0.171805 0 0 0 0 0 0 0 0 0.2 0"/>
<feBlend mode="normal" in2="BackgroundImageFix" result="effect1_dropShadow_147_9303"/>
<feBlend mode="normal" in="SourceGraphic" in2="effect1_dropShadow_147_9303" result="shape"/>
</filter>
<filter id="filter2_d_147_9303" x="207.09" y="0.50909" width="94.6423" height="104.921" filterUnits="userSpaceOnUse" color-interpolation-filters="sRGB">
<feFlood flood-opacity="0" result="BackgroundImageFix"/>
<feColorMatrix in="SourceAlpha" type="matrix" values="0 0 0 0 0 0 0 0 0 0 0 0 0 0 0 0 0 0 127 0" result="hardAlpha"/>
<feOffset dy="4"/>
<feGaussianBlur stdDeviation="6"/>
<feComposite in2="hardAlpha" operator="out"/>
<feColorMatrix type="matrix" values="0 0 0 0 0.266667 0 0 0 0 0.171805 0 0 0 0 0 0 0 0 0.2 0"/>
<feBlend mode="normal" in2="BackgroundImageFix" result="effect1_dropShadow_147_9303"/>
<feBlend mode="normal" in="SourceGraphic" in2="effect1_dropShadow_147_9303" result="shape"/>
</filter>
</defs>
</svg>
