<svg width="17" height="18" viewBox="0 0 17 18" fill="none" xmlns="http://www.w3.org/2000/svg">
<path d="M0.832633 7.33071C2.75249 11.5115 6.16381 14.8251 10.3986 16.6227L11.0786 16.9257C11.8317 17.261 12.6789 17.3198 13.471 17.0917C14.2631 16.8636 14.9493 16.3632 15.4086 15.6787L16.2976 14.3547C16.4367 14.1471 16.4931 13.8949 16.4555 13.6478C16.4179 13.4007 16.2892 13.1766 16.0946 13.0197L13.0826 10.5897C12.9777 10.5051 12.8568 10.4426 12.7272 10.406C12.5975 10.3693 12.4618 10.3592 12.3281 10.3763C12.1945 10.3934 12.0657 10.4373 11.9494 10.5054C11.8332 10.5736 11.7319 10.6645 11.6516 10.7727L10.7196 12.0297C8.32724 10.8482 6.39076 8.91132 5.20963 6.51871L6.46563 5.58671C6.57388 5.50647 6.66479 5.40519 6.73291 5.28893C6.80104 5.17268 6.84496 5.04386 6.86205 4.91021C6.87915 4.77655 6.86905 4.64082 6.83238 4.51117C6.7957 4.38151 6.7332 4.26061 6.64863 4.15571L4.21863 1.14371C4.06173 0.949164 3.83766 0.820425 3.59057 0.782852C3.34348 0.745279 3.09127 0.801597 2.88363 0.940711L1.55063 1.83471C0.862033 2.29649 0.359722 2.98772 0.133184 3.78528C-0.0933534 4.58283 -0.0294068 5.4349 0.313633 6.18971L0.832633 7.33071Z" fill="#1A2E50"/>
</svg>
