<svg width="80" height="80" viewBox="0 0 80 80" fill="none" xmlns="http://www.w3.org/2000/svg">
<g clip-path="url(#clip0_17_9132)">
<path d="M78.9575 80H16.1808C15.6108 80 15.1382 79.5904 15.1382 79.0964V73.4578C15.1382 72.9638 15.6108 72.5542 16.1808 72.5542H71.02V6.54216C71.02 6.04819 71.4927 5.63855 72.0626 5.63855H78.9436C79.5135 5.63855 79.9861 6.04819 79.9861 6.54216V79.0964C79.9861 79.5904 79.5135 80 78.9436 80H78.9575ZM17.2233 78.1928H77.9149V7.44578H73.1191V73.4578C73.1191 73.9518 72.6464 74.3614 72.0765 74.3614H17.2233V78.1928Z" fill="#1A2E50"/>
<path d="M22.5196 11.2651H9.29979C8.85495 11.2651 8.46573 11.0241 8.31282 10.6627C8.15991 10.3012 8.28502 9.90363 8.63254 9.66266L21.8523 0.204834C22.1582 -0.0120337 22.5891 -0.0602264 22.9644 0.0843519C23.3258 0.22893 23.5622 0.554231 23.5622 0.903629V10.3615C23.5622 10.8554 23.0895 11.2651 22.5196 11.2651ZM12.2051 9.45785H21.477V2.81929L12.2051 9.45785Z" fill="#1A2E50"/>
<path d="M72.0627 74.3614H9.2999C8.72996 74.3614 8.25732 73.9518 8.25732 73.4578V62.2771C8.25732 61.7831 8.72996 61.3735 9.2999 61.3735C9.86984 61.3735 10.3425 61.7831 10.3425 62.2771V72.5542H71.034V1.80723H22.895L10.3425 10.7831V17.2048C10.3425 17.6988 9.86984 18.1084 9.2999 18.1084C8.72996 18.1084 8.25732 17.6988 8.25732 17.2048V10.3614C8.25732 10.0964 8.39633 9.83133 8.63265 9.66265L21.8525 0.204819C22.0332 0.0722892 22.2695 0 22.5197 0H72.0766C72.6466 0 73.1192 0.409639 73.1192 0.903614V73.4578C73.1192 73.9518 72.6466 74.3614 72.0766 74.3614H72.0627Z" fill="#1A2E50"/>
<path d="M29.4422 64.5302C29.2754 64.5302 29.1086 64.494 28.9696 64.4338C22.5335 61.5663 7.38142 52.482 5.83841 30.1085C5.81061 29.7711 6.01913 29.4458 6.35275 29.2771L28.914 17.9157C29.2337 17.747 29.6368 17.747 29.9566 17.9157L52.5317 29.2771C52.8653 29.4458 53.0739 29.7711 53.0461 30.1085C51.5031 52.494 36.351 61.5783 29.9149 64.4338C29.762 64.5061 29.609 64.5302 29.4422 64.5302ZM7.95136 30.5422C9.59167 51.0482 23.1312 59.6747 29.4422 62.6024C35.7394 59.6747 49.2789 51.0603 50.9331 30.5422L29.4422 19.7229L7.95136 30.5422Z" fill="#FFA502"/>
<path d="M29.4422 69.9518C29.3171 69.9518 29.2059 69.9277 29.0808 69.9036C28.8028 69.8072 0.472632 60.506 0 27.265C0 26.9397 0.194613 26.6385 0.514335 26.4698L28.914 12.1686C29.2337 11.9999 29.6368 11.9999 29.9566 12.1686L58.3562 26.4698C58.6759 26.6385 58.8844 26.9397 58.8705 27.265C58.3979 60.506 30.0678 69.8072 29.7897 69.9036C29.6785 69.9397 29.5534 69.9518 29.4283 69.9518H29.4422ZM2.09904 27.771C2.79409 57.2891 26.245 66.9036 29.4422 68.0843C32.6394 66.9156 56.0904 57.3012 56.7854 27.771L29.4422 13.9999L2.09904 27.771Z" fill="#FFA502"/>
<path d="M29.442 64.5302C28.872 64.5302 28.3994 64.1205 28.3994 63.6265V18.6747C28.3994 18.1808 28.872 17.7711 29.442 17.7711C30.0119 17.7711 30.4846 18.1808 30.4846 18.6747V63.6145C30.4846 64.1085 30.0119 64.5181 29.442 64.5181V64.5302Z" fill="#FFA502"/>
<path d="M63.1104 13.8554H46.5821C46.0122 13.8554 45.5396 13.4458 45.5396 12.9518C45.5396 12.4579 46.0122 12.0482 46.5821 12.0482H63.1104C63.6803 12.0482 64.1529 12.4579 64.1529 12.9518C64.1529 13.4458 63.6803 13.8554 63.1104 13.8554Z" fill="#1A2E50"/>
<path d="M63.1104 65.6385H46.5821C46.0122 65.6385 45.5396 65.2289 45.5396 64.7349C45.5396 64.2409 46.0122 63.8313 46.5821 63.8313H63.1104C63.6803 63.8313 64.1529 64.2409 64.1529 64.7349C64.1529 65.2289 63.6803 65.6385 63.1104 65.6385Z" fill="#1A2E50"/>
</g>
<defs>
<clipPath id="clip0_17_9132">
<rect width="80" height="80" fill="white"/>
</clipPath>
</defs>
</svg>
