<svg width="64" height="80" viewBox="0 0 64 80" fill="none" xmlns="http://www.w3.org/2000/svg">
<g id="Icon / sharing" clip-path="url(#clip0_340_1600)">
<path id="Vector" d="M9.37922 17.5582C4.52143 17.5582 0.571289 13.6181 0.571289 8.77271C0.571289 3.92732 4.52143 0 9.37922 0C14.237 0 18.1871 3.94007 18.1871 8.78546C18.1871 13.6309 14.237 17.5709 9.37922 17.5709V17.5582ZM9.37922 2.57571C5.9532 2.57571 3.15358 5.35543 3.15358 8.78546C3.15358 12.2155 5.94042 14.9952 9.37922 14.9952C12.818 14.9952 15.6048 12.2155 15.6048 8.78546C15.6048 5.35543 12.818 2.57571 9.37922 2.57571Z" fill="#1A2E50"/>
<path id="Vector_2" d="M14.7865 37.9726C14.4797 37.9726 14.1729 37.8706 13.93 37.6538L10.1204 34.3003C9.58353 33.8285 9.5324 33.0124 10.0054 32.4769C10.4784 31.9413 11.2965 31.8903 11.8335 32.3621L15.643 35.7156C16.1799 36.1874 16.231 37.0035 15.758 37.539C15.5024 37.8323 15.1444 37.9726 14.7865 37.9726Z" fill="#1A2E50"/>
<path id="Vector_3" d="M54.6204 17.5582C49.7626 17.5582 45.8125 13.6182 45.8125 8.77277C45.8125 3.92738 49.7626 -0.0126953 54.6204 -0.0126953C59.4782 -0.0126953 63.4284 3.92738 63.4284 8.77277C63.4284 13.6182 59.4782 17.5582 54.6204 17.5582ZM54.6204 2.57576C51.1944 2.57576 48.3948 5.35549 48.3948 8.78552C48.3948 12.2155 51.1816 14.9953 54.6204 14.9953C58.0592 14.9953 60.8461 12.2155 60.8461 8.78552C60.8461 5.35549 58.0592 2.57576 54.6204 2.57576Z" fill="#1A2E50"/>
<path id="Vector_4" d="M57.2158 79.9999H44.1765C43.4606 79.9999 42.8854 79.4261 42.8854 78.7121V76.7357C42.8854 73.7137 45.3526 71.2527 48.3823 71.2527H49.0087V38.5973L47.1679 40.2167C46.3369 40.9435 45.2759 41.3515 44.1637 41.3515H31.7892C29.2836 41.3515 27.251 39.3241 27.251 36.8249C27.251 34.3257 29.2836 32.2983 31.7892 32.2983H42.4507L48.9959 26.5348V24.5839C48.9959 22.0975 51.0285 20.0701 53.5213 20.0701H55.848C59.095 20.0701 61.7412 22.7095 61.7412 25.9483V47.4338C61.7412 49.5505 60.335 51.4631 58.4942 52.1007V78.7248C58.4942 79.4389 57.9189 80.0127 57.203 80.0127L57.2158 79.9999ZM45.4677 77.4242H55.9247V51.0168C55.9247 50.3028 56.4999 49.729 57.203 49.729C57.9956 49.729 59.1589 48.7471 59.1589 47.421V25.9355C59.1589 24.1121 57.676 22.633 55.848 22.633H53.5213C52.4475 22.633 51.5782 23.5001 51.5782 24.5712V27.1086C51.5782 27.4784 51.4248 27.8355 51.1436 28.0777L43.793 34.5425C43.5629 34.7465 43.2561 34.8613 42.9365 34.8613H31.7892C30.7153 34.8613 29.8333 35.7411 29.8333 36.8122C29.8333 37.8833 30.7153 38.7631 31.7892 38.7631H44.1637C44.6367 38.7631 45.0969 38.5846 45.4549 38.2785L49.4434 34.772C49.8269 34.4405 50.3638 34.3512 50.824 34.568C51.2842 34.772 51.5782 35.2311 51.5782 35.7411V72.5406C51.5782 73.2546 51.003 73.8284 50.2871 73.8284H48.3695C46.7588 73.8284 45.4549 75.129 45.4549 76.7357V77.4242H45.4677Z" fill="#1A2E50"/>
<path id="Vector_5" d="M49.2133 37.9726C48.8553 37.9726 48.4974 37.8196 48.2417 37.539C47.7687 37.0035 47.8199 36.1874 48.3568 35.7156L52.1663 32.3621C52.7032 31.8903 53.5214 31.9413 53.9944 32.4769C54.4674 33.0124 54.4162 33.8285 53.8793 34.3003L50.0698 37.6538C49.8269 37.8706 49.5201 37.9726 49.2133 37.9726Z" fill="#1A2E50"/>
<path id="Vector_6" d="M19.8236 80H6.78429C6.0684 80 5.49314 79.4262 5.49314 78.7121V52.088C3.66508 51.4504 2.24609 49.5378 2.24609 47.4211V25.9356C2.24609 22.6968 4.89231 20.0574 8.13935 20.0574H10.466C12.9588 20.0574 14.9914 22.0848 14.9914 24.5712V26.5221L21.5366 32.2856H31.7891C32.505 32.2856 33.0802 32.8594 33.0802 33.5735C33.0802 34.2875 32.505 34.8613 31.7891 34.8613C30.7153 34.8613 29.8332 35.7411 29.8332 36.8122C29.8332 37.8833 30.7153 38.7631 31.7891 38.7631C32.505 38.7631 33.0802 39.3369 33.0802 40.051C33.0802 40.7651 32.505 41.3389 31.7891 41.3389H19.8236C18.7114 41.3389 17.6504 40.9436 16.8194 40.204L14.9786 38.5846V71.24H15.605C18.6347 71.24 21.102 73.701 21.102 76.723V78.6994C21.102 79.4134 20.5267 79.9872 19.8108 79.9872L19.8236 80ZM8.07543 77.4243H18.5324V76.7357C18.5324 75.1291 17.2285 73.8285 15.6178 73.8285H13.7002C12.9844 73.8285 12.4091 73.2547 12.4091 72.5406V35.7411C12.4091 35.2311 12.7031 34.7721 13.1633 34.5681C13.6235 34.364 14.1732 34.4405 14.544 34.7721L18.5324 38.2786C18.8904 38.5974 19.3506 38.7631 19.8236 38.7631H27.6983C27.4171 38.1766 27.2509 37.5135 27.2509 36.8122C27.2509 36.1109 27.4043 35.4479 27.6983 34.8613H21.0508C20.7312 34.8613 20.4372 34.7466 20.1943 34.5426L12.8437 28.0778C12.5625 27.8355 12.4091 27.4785 12.4091 27.1087V24.5712C12.4091 23.5002 11.5398 22.6331 10.466 22.6331H8.13935C6.31129 22.6331 4.82839 24.1122 4.82839 25.9356V47.4211C4.82839 48.7472 6.00448 49.729 6.78429 49.729C7.48739 49.729 8.06265 50.3156 8.06265 51.0169V77.4243H8.07543Z" fill="#1A2E50"/>
<path id="Vector_7" d="M60.4628 80H3.53724C2.82136 80 2.24609 79.4262 2.24609 78.7122C2.24609 77.9981 2.82136 77.4243 3.53724 77.4243H60.4628C61.1787 77.4243 61.7539 77.9981 61.7539 78.7122C61.7539 79.4262 61.1787 80 60.4628 80Z" fill="#1A2E50"/>
<path id="Vector_8" d="M35.7519 26.8792C35.2277 26.8792 34.7164 26.7135 34.269 26.3819L31.7634 24.5713L29.3217 26.3819C28.4141 27.0323 27.2507 27.0323 26.3431 26.3819C25.4355 25.7316 25.0775 24.6223 25.4227 23.564L26.3815 20.6312L23.9014 18.8716C22.9938 18.2213 22.6359 17.1119 22.981 16.0409C23.3262 14.9825 24.2722 14.294 25.3843 14.294H28.478L29.3856 11.3995C29.7308 10.3411 30.6768 9.65259 31.7889 9.65259C32.9011 9.65259 33.8471 10.3411 34.1923 11.3995L35.151 14.3322L38.1935 14.294C39.3057 14.294 40.2517 14.9825 40.5969 16.0409C40.942 17.0992 40.5841 18.2085 39.6764 18.8588L37.1708 20.6695L38.1424 23.5512C38.4876 24.6096 38.1296 25.7189 37.222 26.3692C36.7746 26.7007 36.2504 26.8665 35.7391 26.8665L35.7519 26.8792ZM25.3843 16.8824L27.9155 18.6038C28.8103 19.2541 29.1811 20.389 28.8359 21.4345L27.8771 24.3673L30.306 22.4929C31.2009 21.8426 32.3898 21.8426 33.2846 22.4929L35.7902 24.3035L34.7547 21.4218C34.4096 20.3762 34.7803 19.2414 35.6752 18.6038L38.1808 16.7804L35.1127 16.8824C34.0133 16.8824 33.0417 16.1811 32.7094 15.1355L31.7506 12.2028L30.8941 15.1355C30.5489 16.1811 29.5901 16.8824 28.4908 16.8824H25.3971H25.3843Z" fill="#FFA502"/>
<path id="Vector_9" d="M26.7525 67.9376C26.1645 67.9376 25.5764 67.7463 25.0651 67.3765C24.0424 66.637 23.6333 65.3746 24.0296 64.176L25.244 60.4527C25.2824 60.338 25.244 60.2105 25.1418 60.1339L21.9586 57.826C20.9359 57.0864 20.5269 55.8241 20.9104 54.6255C21.3067 53.4269 22.3677 52.6491 23.6333 52.6491H27.5707C27.6985 52.6491 27.8008 52.5726 27.8391 52.4578L29.0536 48.7218C29.4498 47.5232 30.5109 46.7454 31.7765 46.7454C33.042 46.7454 34.1159 47.5232 34.4994 48.7218L35.7138 52.4451C35.7522 52.5598 35.8672 52.6363 35.9823 52.6363H39.9196C41.1852 52.6363 42.259 53.4142 42.6426 54.6128C43.0389 55.8113 42.6298 57.0737 41.6071 57.8133L38.424 60.1212C38.3217 60.1977 38.2833 60.3252 38.3217 60.44L39.5361 64.1633C39.9324 65.3619 39.5234 66.6242 38.4879 67.3638C37.4652 68.1033 36.1357 68.1033 35.113 67.3638L31.9299 65.0558C31.8276 64.9793 31.6998 64.9793 31.5975 65.0558L28.4144 67.3638C27.903 67.7336 27.315 67.9248 26.7269 67.9248L26.7525 67.9376ZM23.6461 55.2248C23.6461 55.2248 23.4415 55.2248 23.3776 55.4161C23.3137 55.6073 23.4415 55.7093 23.4799 55.7348L26.663 58.0428C27.6729 58.7696 28.0948 60.0574 27.6985 61.2433L26.484 64.9666C26.484 64.9666 26.4201 65.1579 26.5863 65.2854C26.7525 65.4001 26.8803 65.3109 26.9187 65.2854L30.1018 62.9774C31.1117 62.2506 32.4668 62.2506 33.4767 62.9774L36.6598 65.2854C36.6598 65.2854 36.826 65.4129 36.9922 65.2854C37.1584 65.1579 37.1072 65.0176 37.0945 64.9666L35.88 61.2433C35.4965 60.0574 35.9184 58.7696 36.9155 58.0428L40.0986 55.7348C40.0986 55.7348 40.2648 55.6073 40.2009 55.4161C40.137 55.2248 39.9836 55.2248 39.9324 55.2248H35.9951C34.7423 55.2248 33.6557 54.4342 33.2722 53.2484L32.0577 49.5123C32.0577 49.5123 31.9938 49.3211 31.7893 49.3211C31.5847 49.3211 31.5336 49.4741 31.5208 49.5123L30.3063 53.2484C29.9228 54.4342 28.8234 55.2248 27.5834 55.2248H23.6461Z" fill="#FFA502"/>
</g>
<defs>
<clipPath id="clip0_340_1600">
<rect width="62.8571" height="80" fill="white" transform="translate(0.571289)"/>
</clipPath>
</defs>
</svg>
