<svg width="109" height="150" viewBox="0 0 109 150" fill="none" xmlns="http://www.w3.org/2000/svg">
<g clip-path="url(#clip0_17_9606)">
<path d="M98.5673 9.74983H44.0933C34.6784 9.74983 26.153 13.5549 19.9827 19.7088L26.8678 26.5754C31.4698 21.9857 37.5888 19.4575 44.0933 19.4575H88.8285V64.0727C88.8285 70.565 86.2935 76.6624 81.6914 81.2521L88.5765 88.1187C94.7469 81.9649 98.5622 73.4624 98.5622 64.0727V9.74983H98.5673Z" fill="#A97BFE"/>
<path d="M44.0934 0.0370407C38.1802 0.0370407 32.4366 1.19601 27.0272 3.47805C21.8081 5.67804 17.1187 8.83187 13.0977 12.8421L19.9828 19.7088C26.1531 13.5549 34.6785 9.74982 44.0934 9.74982H98.5674V64.0778C98.5674 73.4675 94.7521 81.97 88.5817 88.1238L95.4668 94.9905C99.4878 90.9802 102.65 86.3033 104.856 81.0982C107.144 75.7034 108.306 69.9752 108.306 64.0778V0.0370407H44.0934Z" fill="#7160FF"/>
<path d="M9.99707 98.0776H64.4711C73.886 98.0776 82.4114 94.2725 88.5818 88.1187L81.6967 81.2521C77.0946 85.8418 70.9757 88.37 64.4711 88.37H19.7308V43.7548C19.7308 37.2625 22.2658 31.1651 26.8679 26.5754L19.9828 19.7088C13.8124 25.8626 9.99707 34.3651 9.99707 43.7548V98.0828V98.0776Z" fill="#12CFFF"/>
<path d="M64.4711 107.79C70.3843 107.79 76.1279 106.631 81.5373 104.349C86.7564 102.149 91.4458 98.9956 95.4668 94.9853L88.5817 88.1187C82.4114 94.2725 73.886 98.0776 64.4711 98.0776H9.99706V43.7497C9.99706 34.36 13.8124 25.8574 19.9828 19.7036L13.0977 12.837C9.07665 16.8472 5.91434 21.5241 3.70844 26.7292C1.42026 32.1292 0.258179 37.8523 0.258179 43.7497V107.79H64.4711Z" fill="#11FFF5"/>
<path d="M42.227 41.919C35.5733 48.5548 35.5733 59.3086 42.227 65.9394C48.8807 72.5752 59.6634 72.5752 66.3119 65.9394L59.4268 59.0727C58.0488 60.4471 56.2183 61.2061 54.2695 61.2061C52.3207 61.2061 50.4901 60.4471 49.1121 59.0727C46.2686 56.2369 46.2686 51.6215 49.1121 48.7805L42.227 41.9087V41.919Z" fill="#A97BFE"/>
<path d="M34.6168 35.7651L34.5294 35.9036C29.9891 40.8369 27.5004 47.1958 27.5004 53.9343C27.5004 61.0676 30.2822 67.7701 35.3419 72.8111C40.3964 77.8521 47.1221 80.6316 54.2694 80.6316C61.4219 80.6316 68.1425 77.8521 73.197 72.8111L66.3119 65.9445C59.6582 72.5804 48.8755 72.5804 42.227 65.9445C35.5733 59.3086 35.5733 48.5548 42.227 41.9241L35.3367 35.0472L34.6117 35.7703L34.6168 35.7651Z" fill="#7160FF"/>
<path d="M42.2527 41.883L49.1378 48.7497C50.5158 47.3753 52.3464 46.6163 54.2952 46.6163C56.244 46.6163 58.0745 47.3753 59.4526 48.7497C62.2961 51.5855 62.2961 56.2009 59.4526 59.0419L59.4269 59.0676L66.3171 65.9393L66.3377 65.9086C72.9914 59.2727 72.9914 48.5189 66.3377 41.8882C59.6839 35.2523 48.9012 35.2523 42.2527 41.8882V41.883Z" fill="#12CFFF"/>
<path d="M54.2951 27.1959C47.1427 27.1959 40.4221 29.9754 35.3676 35.0164L42.2526 41.883C48.9064 35.2472 59.6891 35.2472 66.3376 41.883C72.9913 48.5189 72.9913 59.2727 66.3376 65.9034L66.3171 65.9342L73.2021 72.8008L73.9477 72.0573L74.0351 71.9188C78.5755 66.9855 81.0642 60.6265 81.0642 53.8881C81.0642 46.7548 78.2824 40.0523 73.2227 35.0113C68.1682 29.9703 61.4425 27.1908 54.2951 27.1908V27.1959Z" fill="#11FFF5"/>
<path d="M42.2526 41.883L42.2321 41.9138L49.1171 48.7805L49.6262 48.2728C58.6298 39.801 72.8679 39.96 81.6812 48.7497C90.654 57.6984 90.654 72.2573 81.6812 81.2059L88.5663 88.0726C101.354 75.3188 101.354 54.6368 88.5663 41.883C75.7783 29.1293 55.0407 29.1293 42.2526 41.883Z" fill="#A97BFE"/>
<path d="M81.3881 25.7088C76.2976 23.6472 70.9191 22.6062 65.4069 22.6062C59.8947 22.6062 54.5162 23.6524 49.4256 25.7088C44.15 27.8421 39.4194 30.9754 35.3675 35.0164L35.3418 35.0421L42.232 41.9138L42.2526 41.883C55.0407 29.1293 75.7782 29.1293 88.5663 41.883C101.354 54.6368 101.354 75.3188 88.5663 88.0726L95.4514 94.9392C99.5033 90.8982 102.645 86.1803 104.784 80.9188C106.851 75.8419 107.895 70.4778 107.895 64.9804C107.895 59.483 106.846 54.1189 104.784 49.042C102.645 43.7805 99.5033 39.0625 95.4514 35.0215C91.3995 30.9805 86.6689 27.8472 81.3932 25.7139L81.3881 25.7088Z" fill="#7160FF"/>
<path d="M58.9384 59.5496C49.9348 68.0214 35.6967 67.8624 26.8834 59.0727C17.9106 50.124 17.9106 35.5651 26.8834 26.6165L19.9983 19.7498C7.21021 32.5036 7.21021 53.1856 19.9983 65.9394C32.7864 78.6931 53.5239 78.6931 66.312 65.9394L59.4217 59.0625L58.9333 59.5496H58.9384Z" fill="#12CFFF"/>
<path d="M66.3119 65.9445C53.5238 78.6982 32.7863 78.6982 19.9982 65.9445C7.21014 53.1907 7.21014 32.5087 19.9982 19.7549L13.1131 12.8883C9.06125 16.9293 5.9195 21.6472 3.78045 26.9087C1.71852 31.9856 0.669556 37.3497 0.669556 42.8471C0.669556 48.3445 1.71852 53.7086 3.78045 58.7855C5.9195 64.047 9.06125 68.765 13.1131 72.806C17.165 76.847 21.8956 79.9803 27.1713 82.1136C32.2618 84.1751 37.6403 85.2162 43.1525 85.2162C48.6647 85.2162 54.0432 84.17 59.1337 82.1136C64.4094 79.9803 69.14 76.847 73.1918 72.806L66.3068 65.9342L66.3119 65.9445Z" fill="#11FFF5"/>
<path d="M20.9098 124.409V145.003H0.258179V124.409H20.9098ZM16.7791 128.528H4.3888V140.885H16.7791V136.766H8.51942V132.646H16.7791V128.527V128.528Z" fill="#000981"/>
<path d="M35.9644 145.005V140.885H39.9661L35.9644 130.588L30.3492 145.005H25.6378L33.8975 124.41H38.0282L46.2879 145.005H35.9628H35.9644Z" fill="#000981"/>
<path d="M55.603 124.409V145.003H51.4724V124.409H55.603Z" fill="#000981"/>
<path d="M64.6892 124.409H85.3408V128.528H68.8198V132.648H85.3408V136.767H68.8198V145.005H64.6892V124.409Z" fill="#000981"/>
<path d="M91.1121 145.005L97.3611 129.423L98.4165 132.053L101.789 140.462H96.3845V139.266H99.6174L97.3611 133.457L92.8635 145.005H91.1121Z" fill="#000981"/>
<path d="M96.3845 145.005V143.741H106.456L99.1428 125.51H95.5687L87.7594 145.005H86.4174L94.7999 124.103H99.9238L108.306 145.005H96.3845Z" fill="#000981"/>
<path d="M103.025 141.297H96.3845V142.904H105.219L98.5772 126.344H96.1359L88.6616 145.005H90.2114L96.9638 128.17H97.7599L103.025 141.297Z" fill="#000981"/>
</g>
<defs>
<clipPath id="clip0_17_9606">
<rect width="108.059" height="150" fill="white" transform="translate(0.24707)"/>
</clipPath>
</defs>
</svg>
