<svg width="130" height="150" viewBox="0 0 130 150" fill="none" xmlns="http://www.w3.org/2000/svg">
<g clip-path="url(#clip0_17_9573)">
<mask id="mask0_17_9573" style="mask-type:luminance" maskUnits="userSpaceOnUse" x="17" y="-1" width="95" height="101">
<path d="M111.478 -0.811356H17.8754V99.0365H111.478V-0.811356Z" fill="white"/>
</mask>
<g mask="url(#mask0_17_9573)">
<path d="M80.3768 30.7904V37.5629C78.3884 37.1657 76.3657 36.9648 74.3382 36.9632H49.5715C32.5577 36.9632 18.7661 50.7923 18.7661 67.8523C18.7661 67.8523 18.7661 67.8554 18.7661 67.857V-0.0986328H49.5715C66.5852 -0.0986328 80.3768 13.7305 80.3768 30.7904Z" fill="#01FAA8"/>
<path d="M80.3768 37.5661V67.8617C80.3737 84.9216 66.5789 98.7476 49.5652 98.7445C32.5515 98.7413 18.763 84.9091 18.7661 67.8491C18.7692 50.7923 32.5609 36.9664 49.5715 36.9664H74.3303C76.3578 36.9664 78.3806 37.1673 80.369 37.5661" fill="#07D6F2"/>
<path d="M80.5632 37.5849H80.5021V67.857C80.5021 84.9169 66.7073 98.7445 49.6952 98.7445H80.5647C97.4078 98.7445 111.062 85.0535 111.062 68.1647C111.062 51.2759 97.4078 37.5849 80.5647 37.5849" fill="#0037FF"/>
</g>
<path d="M-0.0112305 148.3L8.70419 131.839H8.74099L8.75096 131.821H28.5615C28.8567 131.821 29.102 131.635 29.2983 131.266L30.7703 128.491C30.9535 128.146 30.8945 127.967 30.5939 127.955H10.765L14.1199 121.666H34.8704C38.8425 121.666 39.856 123.51 37.9125 127.197H37.9309L35.2913 132.172C34.2264 133.292 32.4585 134.852 30.4782 134.994C31.8221 135.348 32.6003 137.122 32.105 138.185L29.9224 142.326C27.8102 146.284 24.7619 148.263 20.7776 148.263L-0.0112305 148.3V148.3ZM25.2426 138.109L11.823 138.127L9.77215 141.993L23.1918 141.974C23.487 141.974 23.7323 141.789 23.9286 141.419L25.4006 138.645C25.5838 138.3 25.5309 138.121 25.2426 138.108V138.109Z" fill="#343A40"/>
<path d="M36.38 148.282L33.1577 148.253L45.6888 123.212L46.4907 121.666H73.156L72.2092 123.208L59.672 148.328L57.4571 148.281H36.38V148.282ZM44.6837 145.819H50.6668L61.4269 124.189H55.4438L44.6837 145.819Z" fill="#343A40"/>
<path d="M66.6424 148.282L65.0493 148.253L77.6134 123.185L78.3065 121.743L88.6326 121.775L76.9932 145.117H82.9762L87.6766 135.741L88.3275 134.421L95.1094 141.263L91.6632 148.282H66.6424Z" fill="#343A40"/>
<path d="M98.2243 143.098L107.694 124.166H99.0623L96.7002 121.751H129.365L127.003 124.166H117.984L105.75 148.699L105.101 150L98.2243 143.098Z" fill="#343A40"/>
</g>
<defs>
<clipPath id="clip0_17_9573">
<rect width="129.276" height="150" fill="white" transform="translate(0.0527344)"/>
</clipPath>
</defs>
</svg>
