<svg width="130" height="150" viewBox="0 0 130 150" fill="none" xmlns="http://www.w3.org/2000/svg">
<g clip-path="url(#clip0_17_9701)">
<mask id="mask0_17_9701" style="mask-type:luminance" maskUnits="userSpaceOnUse" x="18" y="-1" width="94" height="101">
<path d="M111.705 -0.811279H18.1021V99.0366H111.705V-0.811279Z" fill="white"/>
</mask>
<g mask="url(#mask0_17_9701)">
<path d="M80.6034 30.7904V37.5629C78.615 37.1657 76.5922 36.9648 74.5647 36.9632H49.798C32.7843 36.9632 18.9927 50.7923 18.9927 67.8523C18.9927 67.8523 18.9927 67.8554 18.9927 67.857V-0.0986328H49.798C66.8117 -0.0986328 80.6034 13.7305 80.6034 30.7904Z" fill="#DDE1E6"/>
<path d="M80.6034 37.566V67.8617C80.6002 84.9216 66.8055 98.7476 49.7918 98.7444C32.7781 98.7413 18.9895 84.909 18.9927 67.8491C18.9958 50.7923 32.7874 36.9663 49.798 36.9663H74.5569C76.5844 36.9663 78.6072 37.1673 80.5955 37.566" fill="#DDE1E6"/>
<path d="M80.7898 37.585H80.7288V67.8571C80.7288 84.917 66.934 98.7446 49.9219 98.7446H80.7914C97.6345 98.7446 111.288 85.0536 111.288 68.1648C111.288 51.2759 97.6345 37.585 80.7914 37.585" fill="#DDE1E6"/>
</g>
<path d="M0.215332 148.3L8.93075 131.839H8.96756L8.97752 131.821H28.7881C29.0833 131.821 29.3286 131.635 29.5248 131.266L30.9968 128.491C31.1801 128.146 31.121 127.967 30.8205 127.955H10.9915L14.3465 121.666H35.0969C39.069 121.666 40.0826 123.51 38.1391 127.197H38.1575L35.5178 132.172C34.4529 133.292 32.685 134.852 30.7047 134.994C32.0487 135.348 32.8269 137.122 32.3316 138.185L30.1489 142.326C28.0368 146.284 24.9885 148.263 21.0042 148.263L0.215332 148.299V148.3ZM25.4692 138.109L12.0495 138.127L9.99871 141.993L23.4184 141.974C23.7135 141.974 23.9589 141.789 24.1551 141.419L25.6271 138.645C25.8104 138.3 25.7575 138.121 25.4692 138.108V138.109Z" fill="#DDE1E6"/>
<path d="M36.6066 148.282L33.3843 148.253L45.9154 123.212L46.7173 121.666H73.3826L72.4358 123.208L59.8985 148.328L57.6836 148.281H36.6066V148.282ZM44.9103 145.819H50.8933L61.6534 124.189H55.6704L44.9103 145.819Z" fill="#DDE1E6"/>
<path d="M66.869 148.282L65.2759 148.253L77.8399 123.185L78.533 121.743L88.8592 121.775L77.2197 145.117H83.2027L87.9032 135.74L88.5541 134.421L95.336 141.263L91.8898 148.282H66.869Z" fill="#DDE1E6"/>
<path d="M98.4509 143.098L107.921 124.165H99.2888L96.9268 121.751H129.591L127.229 124.165H118.211L105.976 148.698L105.328 150L98.4509 143.098Z" fill="#DDE1E6"/>
</g>
<defs>
<clipPath id="clip0_17_9701">
<rect width="129.276" height="150" fill="white" transform="translate(0.279297)"/>
</clipPath>
</defs>
</svg>
