<svg width="124" height="150" viewBox="0 0 124 150" fill="none" xmlns="http://www.w3.org/2000/svg">
<g clip-path="url(#clip0_17_9532)">
<path d="M38.623 39.7052L64.3774 13.9216L67.3893 16.9369C68.0927 17.6411 69.2469 17.6411 69.9683 16.9369L75.9741 10.9244C76.6775 10.2202 76.6775 9.06464 75.9741 8.34241L69.9864 2.34791C66.8843 -0.757673 61.8705 -0.757673 58.7684 2.34791L27.0624 34.0899C23.9603 37.1954 23.9603 42.2149 27.0624 45.3205L34.3306 52.597L42.9154 44.0024L38.623 39.7052Z" fill="#B100E8"/>
<path d="M47.2159 48.3206L38.6332 56.913L47.2159 65.5054L55.7985 56.913L47.2159 48.3206Z" fill="#1F8FFF"/>
<path d="M101.693 34.0899L95.7048 28.0954C95.0014 27.3912 93.8472 27.3912 93.1258 28.0954L87.12 34.1079C86.4166 34.8121 86.4166 35.9677 87.12 36.6899L90.1319 39.7052L64.3775 65.4888L55.7927 74.0833L58.7685 77.0625C61.8706 80.168 66.8844 80.168 69.9865 77.0625L101.693 45.3205C104.795 42.2149 104.795 37.1954 101.693 34.0899Z" fill="#B100E8"/>
<path d="M101.692 79.6986C104.795 76.593 104.795 71.5735 101.692 68.4679L95.7048 62.4734C95.0014 61.7693 93.8471 61.7693 93.1257 62.4734L87.12 68.486C86.4166 69.1902 86.4166 70.3457 87.12 71.068L90.1319 74.0833L72.9623 91.2723L81.5471 99.8668L101.692 79.6986Z" fill="#1F8FFF"/>
<path d="M64.3775 99.8668L38.6231 74.0833L39.4888 73.2166L60.9868 51.6942L64.3594 48.3178L67.3713 51.3331C68.0747 52.0372 69.229 52.0372 69.9504 51.3331L75.9561 45.3205C76.6595 44.6163 76.6595 43.4608 75.9561 42.7385L69.9684 36.744C66.8663 33.6385 61.8525 33.6385 58.7505 36.744L49.5164 45.9886L36.6392 58.8803L27.0264 68.504C23.9243 71.6096 23.9243 76.6291 27.0264 79.7347L58.7324 111.477C61.8345 114.582 66.8483 114.582 69.9504 111.477L72.9262 108.497L64.3414 99.9029L64.3775 99.8668Z" fill="#1F8FFF"/>
<path d="M40.8267 148.734L33.4711 133.251C33.3203 132.966 33.0104 132.748 32.5245 132.605C32.0386 132.463 31.5108 132.387 30.9495 132.387C30.3882 132.387 29.8939 132.463 29.408 132.605C28.9221 132.748 28.6121 132.966 28.4613 133.251L21.0639 148.734C21.0388 148.826 21.0304 148.901 21.0304 148.952C21.0304 149.161 21.1561 149.337 21.399 149.488C21.642 149.639 21.9687 149.765 22.3624 149.857C22.7562 149.95 23.1332 150 23.4767 150C23.795 150 24.0882 149.958 24.3479 149.883C24.6076 149.807 24.7752 149.665 24.8506 149.48L26.3334 146.779H35.5488L37.0735 149.48C37.174 149.673 37.3416 149.807 37.5762 149.883C37.8107 149.966 38.0872 150 38.4139 150C38.7825 150 39.1595 149.95 39.5449 149.857C39.9303 149.765 40.2486 149.631 40.5083 149.472C40.768 149.312 40.9021 149.136 40.9021 148.943C40.9021 148.893 40.8769 148.826 40.8267 148.725V148.734ZM27.2298 144.054L30.9495 135.859L34.6608 144.054H27.2298Z" fill="#51637B"/>
<path d="M123.053 148.734L115.697 133.251C115.547 132.966 115.237 132.748 114.751 132.605C114.265 132.463 113.737 132.387 113.176 132.387C112.614 132.387 112.12 132.463 111.634 132.605C111.148 132.748 110.838 132.966 110.688 133.251L103.29 148.734C103.265 148.826 103.257 148.901 103.257 148.952C103.257 149.161 103.382 149.337 103.625 149.488C103.868 149.639 104.195 149.765 104.589 149.857C104.982 149.95 105.359 150 105.703 150C106.021 150 106.314 149.958 106.574 149.883C106.834 149.807 107.001 149.665 107.077 149.48L108.56 146.779H117.775L119.3 149.48C119.4 149.673 119.568 149.807 119.802 149.883C120.037 149.966 120.313 150 120.64 150C121.009 150 121.386 149.95 121.771 149.857C122.156 149.765 122.475 149.631 122.735 149.472C122.994 149.312 123.128 149.136 123.128 148.943C123.128 148.893 123.103 148.826 123.053 148.725V148.734ZM109.456 144.054L113.176 135.859L116.887 144.054H109.456Z" fill="#51637B"/>
<path d="M46.6993 150C46.205 150 45.7527 149.891 45.3422 149.681C44.9317 149.472 44.7306 149.145 44.7306 148.7V133.687C44.7306 133.268 44.9149 132.941 45.2919 132.723C45.6605 132.496 46.0626 132.387 46.4815 132.387H59.5254C59.9695 132.387 60.2962 132.572 60.4889 132.949C60.6899 133.318 60.7821 133.704 60.7821 134.098C60.7821 134.568 60.6732 134.987 60.4637 135.348C60.2543 135.708 59.9359 135.885 59.5171 135.885H48.6681V140.296H54.4235C54.8424 140.296 55.1607 140.455 55.3702 140.783C55.5796 141.101 55.6885 141.479 55.6885 141.898C55.6885 142.242 55.588 142.586 55.3953 142.921C55.1942 143.257 54.8759 143.425 54.4319 143.425H48.6764V148.7C48.6764 149.145 48.4754 149.472 48.0649 149.681C47.6544 149.891 47.202 150 46.7077 150H46.6993Z" fill="#51637B"/>
<path d="M66.1019 150C65.683 150 65.2893 149.891 64.9123 149.665C64.5353 149.438 64.3594 149.119 64.3594 148.7V133.687C64.3594 133.268 64.5437 132.941 64.9123 132.723C65.2809 132.496 65.6747 132.387 66.1019 132.387H79.305C79.7742 132.387 80.1093 132.572 80.3103 132.941C80.5114 133.31 80.6036 133.695 80.6036 134.09C80.6036 134.559 80.4947 134.979 80.2685 135.331C80.0423 135.692 79.7239 135.868 79.305 135.868H68.2885V140.305H74.002C74.4209 140.305 74.7476 140.464 74.9654 140.791C75.1916 141.11 75.3005 141.487 75.3005 141.906C75.3005 142.25 75.2 142.594 75.0073 142.93C74.8063 143.265 74.4795 143.433 74.002 143.433H68.2885V146.511H79.305C79.7239 146.511 80.0506 146.687 80.2685 147.031C80.4947 147.375 80.6036 147.803 80.6036 148.297C80.6036 148.692 80.503 149.077 80.3103 149.446C80.1093 149.815 79.7825 150 79.305 150H66.1019Z" fill="#51637B"/>
<path d="M16.0709 150C17.3359 150 18.3663 148.968 18.3663 147.702V145.245C18.3663 144.951 18.1318 144.716 17.8385 144.716H15.3755C15.0823 144.716 14.8477 144.951 14.8477 145.245V146.477H7.81055V150H16.0709Z" fill="#51637B"/>
<path d="M4.29191 146.477V135.91H4.65215H13.4654H14.8477V137.143C14.8477 137.436 15.0823 137.671 15.3755 137.671H17.8385C18.1317 137.671 18.3663 137.436 18.3663 137.143V134.685C18.3663 133.419 17.3358 132.387 16.0708 132.387H12.2841H7.00626H3.06878C1.80376 132.387 0.773315 133.419 0.773315 134.685V147.702C0.773315 148.968 1.80376 150 3.06878 150H4.29191V146.477Z" fill="#51637B"/>
<path d="M98.8332 150C100.098 150 101.129 148.968 101.129 147.702V145.245C101.129 144.951 100.894 144.716 100.601 144.716H98.1379C97.8446 144.716 97.6101 144.951 97.6101 145.245V146.477H90.5729V150H98.8332Z" fill="#51637B"/>
<path d="M87.0542 146.477V135.91H87.4145H96.2277H97.61V137.143C97.61 137.436 97.8446 137.671 98.1378 137.671H100.601C100.894 137.671 101.129 137.436 101.129 137.143V134.685C101.129 133.419 100.098 132.387 98.8332 132.387H95.0465H89.7686H85.8311C84.5661 132.387 83.5356 133.419 83.5356 134.685V147.702C83.5356 148.968 84.5661 150 85.8311 150H87.0542V146.477Z" fill="#51637B"/>
</g>
<defs>
<clipPath id="clip0_17_9532">
<rect width="122.368" height="150" fill="white" transform="translate(0.766602)"/>
</clipPath>
</defs>
</svg>
