<svg width="200" height="40" viewBox="0 0 200 40" fill="none" xmlns="http://www.w3.org/2000/svg">
<g clip-path="url(#clip0_10_8604)">
<path d="M55.2622 12.111C54.7329 11.5817 54.1597 11.0832 53.5579 10.6308C50.7643 8.52456 47.4194 7.41325 43.8856 7.41325C41.3226 7.41325 38.854 8.00404 36.6358 9.12194L33.5676 6.12405C31.6173 4.17597 29.3244 2.6891 26.757 1.70298C24.4905 0.833263 22.1075 0.391815 19.6785 0.391815H19.5928C14.3613 0.396208 9.44391 2.43653 5.74321 6.13503C2.04032 9.83572 0 14.7619 0 19.9978C0 25.2337 2.04032 30.1599 5.74321 33.8628C9.43512 37.5547 14.346 39.595 19.573 39.606H26.8778V39.6104H33.9959L37.1233 39.606H43.8659C48.1749 39.606 52.2226 37.9259 55.2644 34.8753L56.1627 33.9748L56.1934 33.8518C58.6313 30.9615 59.9622 27.3135 59.9622 23.4855C59.9622 19.1786 58.2931 15.1375 55.2644 12.1088L55.2622 12.111Z" fill="#FFA502"/>
<path d="M53.0506 14.3227C52.6179 13.89 52.1589 13.4925 51.6757 13.1279C49.4465 11.4478 46.7385 10.5385 43.8856 10.5385C40.4155 10.5385 37.1607 11.8826 34.7206 14.3205L26.2848 22.7563L25.3096 23.7314H29.5133L36.8224 16.4223C38.7002 14.5445 41.2084 13.5101 43.8856 13.5101C45.8974 13.5101 47.8147 14.0943 49.4399 15.1814C49.978 15.5416 50.4832 15.9545 50.9488 16.4223C52.8266 18.3001 53.861 20.8082 53.861 23.4855C53.861 26.1627 52.8266 28.6708 50.9488 30.5486L50.6589 30.8385V30.8429C48.8052 32.5626 46.4091 33.5048 43.8658 33.5048H33.1349V33.5092H30.9101H19.6104C12.1607 33.5092 6.09898 27.4475 6.09898 19.9978C6.09898 12.5481 11.9322 6.71704 19.1887 6.49302L19.6279 6.48643C19.6433 6.48643 19.6587 6.48643 19.674 6.48643C21.3586 6.48643 23.0036 6.79171 24.5739 7.39348C26.3441 8.07213 27.9232 9.09998 29.2695 10.4441L31.815 12.9302C31.815 12.9302 33.9212 10.8284 33.9212 10.8372L31.3735 8.34886C29.7307 6.70606 27.8024 5.45199 25.6391 4.62181C23.7042 3.87947 21.6726 3.5083 19.5972 3.51709C15.2003 3.52148 11.0669 5.23456 7.95921 8.34446C4.84711 11.4566 3.13184 15.5965 3.13184 19.9978C3.13184 24.3991 4.84711 28.539 7.95921 31.6511C11.0625 34.7545 15.1893 36.4697 19.5774 36.4785H30.0096V36.4829H33.998V36.4785H43.868C47.3381 36.4785 50.5996 35.1256 53.0506 32.6658L53.3405 32.3759L53.3471 32.3474C55.6004 29.9447 56.8347 26.815 56.8347 23.4855C56.8347 20.1559 55.4906 16.7605 53.0528 14.3205L53.0506 14.3227Z" fill="white"/>
<path d="M12.7996 20.4481C12.7996 16.4794 16.0281 13.2531 19.9945 13.2531C23.3175 13.2531 26.1199 15.5175 26.9435 18.5834L29.3791 16.1478C27.7451 12.5964 24.1542 10.1234 19.9945 10.1234C14.3018 10.1234 9.66992 14.7554 9.66992 20.4481C9.66992 24.6078 12.1429 28.1986 15.6943 29.8327L18.1299 27.397C15.0639 26.5734 12.7996 23.7688 12.7996 20.4481Z" fill="white"/>
<path d="M73.1353 29.2089H69.4434V30.7727H73.1353V29.2089Z" fill="#1A2E50"/>
<path d="M73.1353 18.7635H69.4434V24.5155H73.1353V18.7635Z" fill="#1A2E50"/>
<path d="M73.1353 26.0793H69.4434V27.643H73.1353V26.0793Z" fill="#1A2E50"/>
<path d="M71.2596 16.6793C72.54 16.6793 73.3438 15.8161 73.3438 14.7136C73.3131 13.5826 72.54 12.7194 71.2881 12.7194C70.0362 12.7194 69.2324 13.5826 69.2324 14.7136C69.2324 15.8447 70.0363 16.6793 71.2574 16.6793H71.2596Z" fill="#1A2E50"/>
<path d="M73.1353 32.3364H69.4434V33.2654H73.1353V32.3364Z" fill="#1A2E50"/>
<path d="M77.2753 29.277C78.4656 29.9622 80.2534 30.5574 82.129 30.5574C84.4812 30.5574 85.7924 29.4549 85.7924 27.8165C85.7924 26.2967 84.7799 25.405 82.219 24.4804C78.9137 23.29 76.7987 21.533 76.7987 18.6427C76.7987 15.3659 79.5396 12.8644 83.886 12.8644C86.0603 12.8644 87.668 13.341 88.7112 13.8769L87.8173 16.8242C87.1035 16.4377 85.7023 15.8711 83.8267 15.8711C81.5031 15.8711 80.4906 17.1229 80.4906 18.2825C80.4906 19.8309 81.6524 20.5469 84.3318 21.5879C87.8173 22.8991 89.5128 24.6561 89.5128 27.5442C89.5128 30.7595 87.0706 33.5597 81.8896 33.5597C79.7746 33.5597 77.5718 32.9645 76.4692 32.3078L77.2731 29.2704L77.2753 29.277Z" fill="#1A2E50"/>
<path d="M105.807 28.919C105.807 30.6453 105.866 32.075 105.925 33.2676H102.71L102.532 31.0648H102.473C101.847 32.108 100.417 33.597 97.8275 33.597C95.2381 33.597 92.7651 32.0179 92.7651 27.2828V18.7657H96.4285V26.6569C96.4285 29.0684 97.2038 30.6167 99.1387 30.6167C100.597 30.6167 101.55 29.5735 101.939 28.6511C102.057 28.3238 102.148 27.9373 102.148 27.52V18.7635H105.811V28.919H105.807Z" fill="#1A2E50"/>
<path d="M109.916 23.0814C109.916 21.4144 109.885 20.0132 109.797 18.7635H113.013L113.191 20.9378H113.281C113.907 19.8067 115.483 18.4363 117.897 18.4363C120.429 18.4363 123.05 20.0747 123.05 24.6605V33.2676H119.386V25.0778C119.386 22.9935 118.611 21.4144 116.617 21.4144C115.158 21.4144 114.146 22.4576 113.757 23.558C113.639 23.8852 113.608 24.3332 113.608 24.7483V33.2654H109.916V23.0814Z" fill="#1A2E50"/>
<path d="M141.632 32.6724C140.769 33.1183 138.863 33.5663 136.451 33.5663C130.078 33.5663 126.206 29.5757 126.206 23.4701C126.206 16.8594 130.791 12.8688 136.928 12.8688C139.339 12.8688 141.068 13.3761 141.812 13.7627L141.008 16.6815C140.055 16.2642 138.744 15.9062 137.077 15.9062C132.996 15.9062 130.049 18.467 130.049 23.2922C130.049 27.7001 132.641 30.5289 137.048 30.5289C138.538 30.5289 140.086 30.2302 141.039 29.7843L141.634 32.6724H141.632Z" fill="#1A2E50"/>
<path d="M144.669 12.122H148.361V33.2654H144.669V12.122Z" fill="#1A2E50"/>
<path d="M166.261 25.8816C166.261 31.2119 162.508 33.5948 158.816 33.5948C154.707 33.5948 151.548 30.7661 151.548 26.1188C151.548 21.4715 154.676 18.4363 159.053 18.4363C163.43 18.4363 166.259 21.4737 166.259 25.8816H166.261ZM155.332 26.0309C155.332 28.8312 156.703 30.944 158.937 30.944C161.021 30.944 162.481 28.8883 162.481 25.9716C162.481 23.7073 161.469 21.1179 158.967 21.1179C156.466 21.1179 155.335 23.6194 155.335 26.0309H155.332Z" fill="#1A2E50"/>
<path d="M182.401 28.919C182.401 30.6453 182.461 32.075 182.52 33.2676H179.305L179.127 31.0648H179.067C178.441 32.108 177.012 33.597 174.422 33.597C171.833 33.597 169.36 32.0179 169.36 27.2828V18.7657H173.023V26.6569C173.023 29.0684 173.799 30.6167 175.733 30.6167C177.192 30.6167 178.145 29.5735 178.534 28.6511C178.652 28.3238 178.742 27.9373 178.742 27.52V18.7635H182.406V28.919H182.401Z" fill="#1A2E50"/>
<path d="M199.881 12.122V29.187C199.881 30.676 199.94 32.2837 200 33.2676H196.723L196.574 30.9747H196.514C195.651 32.5824 193.894 33.5949 191.779 33.5949C188.324 33.5949 185.586 30.6475 185.586 26.1803C185.555 21.3266 188.595 18.4363 192.078 18.4363C194.074 18.4363 195.502 19.2709 196.158 20.3426H196.218V12.122H199.881ZM196.218 24.8076C196.218 24.5089 196.187 24.1531 196.128 23.8544C195.8 22.4247 194.639 21.2629 192.972 21.2629C190.62 21.2629 189.308 23.3471 189.308 26.0573C189.308 28.7675 190.62 30.6431 192.941 30.6431C194.43 30.6431 195.741 29.6306 196.097 28.0515C196.187 27.7243 196.216 27.3663 196.216 26.9797V24.8054L196.218 24.8076Z" fill="#1A2E50"/>
</g>
<defs>
<clipPath id="clip0_10_8604">
<rect width="200" height="39.2208" fill="white" transform="translate(0 0.389618)"/>
</clipPath>
</defs>
</svg>
