<svg width="225" height="50" viewBox="0 0 225 50" fill="none" xmlns="http://www.w3.org/2000/svg">
<path d="M69.9021 15.0198C69.2326 14.3502 68.5075 13.7196 67.7463 13.1473C64.2126 10.4832 59.9815 9.07745 55.5116 9.07745C52.2696 9.07745 49.147 9.82475 46.3412 11.2388L42.4602 7.44671C39.9933 4.98256 37.0929 3.10179 33.8454 1.85444C30.9784 0.754317 27.9642 0.195923 24.8916 0.195923H24.7833C18.1659 0.201479 11.9457 2.78232 7.26468 7.4606C2.58084 12.1417 0 18.3729 0 24.9958C0 31.6188 2.58084 37.85 7.26468 42.5339C11.9346 47.2038 18.1464 49.7847 24.7583 49.7985H33.9982V49.8041H43.0019L46.9579 49.7985H55.4866C60.9372 49.7985 66.0572 47.6733 69.9049 43.8146L71.0411 42.6756L71.08 42.52C74.1637 38.864 75.8472 34.2496 75.8472 29.4074C75.8472 23.9596 73.7358 18.848 69.9049 15.017L69.9021 15.0198Z" fill="#FFA502"/>
<path d="M67.1044 17.8173C66.5571 17.27 65.9765 16.7672 65.3653 16.306C62.5456 14.1808 59.1202 13.0306 55.5115 13.0306C51.1221 13.0306 47.005 14.7308 43.9186 17.8145L33.248 28.4851L32.0145 29.7186H37.3317L46.5772 20.4731C48.9524 18.0979 52.125 16.7894 55.5115 16.7894C58.0562 16.7894 60.4815 17.5284 62.5373 18.9035C63.2179 19.3591 63.8568 19.8814 64.4458 20.4731C66.8211 22.8484 68.1295 26.0209 68.1295 29.4074C68.1295 32.7939 66.8211 35.9665 64.4458 38.3417L64.0791 38.7084V38.714C61.7344 40.8892 58.7035 42.081 55.4865 42.081H41.9128V42.0866H39.0986H24.8054C15.3821 42.0866 7.71461 34.4191 7.71461 24.9958C7.71461 15.5726 15.0932 8.19678 24.272 7.91342L24.8276 7.90508C24.847 7.90508 24.8665 7.90508 24.8859 7.90508C27.0167 7.90508 29.0975 8.29124 31.0838 9.05243C33.323 9.91086 35.3204 11.211 37.0234 12.9112L40.2432 16.056C40.2432 16.056 42.9073 13.3973 42.9073 13.4085L39.6848 10.2609C37.6068 8.18289 35.1676 6.59661 32.4312 5.54649C29.9837 4.6075 27.414 4.13801 24.7887 4.14912C19.227 4.15467 13.9986 6.32158 10.0676 10.2553C6.13111 14.1919 3.96143 19.4286 3.96143 24.9958C3.96143 30.5631 6.13111 35.7998 10.0676 39.7363C13.9931 43.6618 19.2131 45.8314 24.7637 45.8426H37.9596V45.8481H43.0046V45.8426H55.4893C59.8786 45.8426 64.0041 44.1313 67.1044 41.0198L67.4711 40.6531L67.4795 40.617C70.3298 37.5778 71.8911 33.619 71.8911 29.4074C71.8911 25.1959 70.1909 20.9009 67.1072 17.8145L67.1044 17.8173Z" fill="white"/>
<path d="M16.1907 25.5654C16.1907 20.5454 20.2745 16.4644 25.2917 16.4644C29.4949 16.4644 33.0398 19.3286 34.0815 23.2068L37.1624 20.1259C35.0955 15.6337 30.5534 12.5056 25.2917 12.5056C18.0909 12.5056 12.2319 18.3646 12.2319 25.5654C12.2319 30.8271 15.3601 35.3692 19.8522 37.4361L22.9331 34.3552C19.0549 33.3134 16.1907 29.7658 16.1907 25.5654Z" fill="white"/>
<path d="M96.6265 20.2474H92.9346V21.8111H96.6265V20.2474Z" fill="#1A2E50"/>
<path d="M96.6265 9.80197H92.9346V15.554H96.6265V9.80197Z" fill="#1A2E50"/>
<path d="M96.6265 17.1177H92.9346V18.6814H96.6265V17.1177Z" fill="#1A2E50"/>
<path d="M94.7508 7.71773C96.0312 7.71773 96.835 6.8546 96.835 5.75208C96.8043 4.621 96.0312 3.75787 94.7793 3.75787C93.5275 3.75787 92.7236 4.621 92.7236 5.75208C92.7236 6.88315 93.5275 7.71773 94.7486 7.71773H94.7508Z" fill="#1A2E50"/>
<path d="M96.6265 23.3748H92.9346V24.3039H96.6265V23.3748Z" fill="#1A2E50"/>
<path d="M100.766 20.3155C101.957 21.0007 103.745 21.5959 105.62 21.5959C107.972 21.5959 109.284 20.4934 109.284 18.855C109.284 17.3351 108.271 16.4435 105.71 15.5188C102.405 14.3285 100.29 12.5715 100.29 9.68119C100.29 6.40437 103.031 3.90283 107.377 3.90283C109.552 3.90283 111.159 4.37942 112.202 4.91531L111.309 7.86269C110.595 7.47614 109.194 6.90951 107.318 6.90951C104.994 6.90951 103.982 8.16138 103.982 9.321C103.982 10.8694 105.144 11.5853 107.823 12.6264C111.309 13.9375 113.004 15.6945 113.004 18.5826C113.004 21.7979 110.562 24.5982 105.381 24.5982C103.266 24.5982 101.063 24.003 99.9604 23.3463L100.764 20.3089L100.766 20.3155Z" fill="#1A2E50"/>
<path d="M129.298 19.9575C129.298 21.6837 129.357 23.1135 129.416 24.3061H126.201L126.023 22.1032H125.964C125.338 23.1464 123.908 24.6355 121.319 24.6355C118.729 24.6355 116.256 23.0564 116.256 18.3213V9.80417H119.92V17.6953C119.92 20.1068 120.695 21.6552 122.63 21.6552C124.088 21.6552 125.041 20.6119 125.43 19.6895C125.549 19.3623 125.639 18.9757 125.639 18.5584V9.80197H129.302V19.9575H129.298Z" fill="#1A2E50"/>
<path d="M133.407 14.1198C133.407 12.4529 133.376 11.0516 133.289 9.80198H136.504L136.682 11.9763H136.772C137.398 10.8452 138.975 9.47473 141.388 9.47473C143.921 9.47473 146.541 11.1131 146.541 15.6989V24.3061H142.877V16.1162C142.877 14.032 142.102 12.4529 140.108 12.4529C138.65 12.4529 137.637 13.4961 137.248 14.5964C137.13 14.9236 137.099 15.3717 137.099 15.7868V24.3039H133.407V14.1198Z" fill="#1A2E50"/>
<path d="M165.123 23.7109C164.26 24.1567 162.354 24.6048 159.942 24.6048C153.569 24.6048 149.697 20.6142 149.697 14.5086C149.697 7.89783 154.283 3.90723 160.419 3.90723C162.83 3.90723 164.559 4.41456 165.303 4.8011L164.5 7.71993C163.546 7.30264 162.235 6.94465 160.568 6.94465C156.488 6.94465 153.54 9.50549 153.54 14.3307C153.54 18.7386 156.132 21.5673 160.54 21.5673C162.029 21.5673 163.577 21.2686 164.53 20.8228L165.125 23.7109H165.123Z" fill="#1A2E50"/>
<path d="M168.161 3.16049H171.853V24.3039H168.161V3.16049Z" fill="#1A2E50"/>
<path d="M189.752 16.92C189.752 22.2504 185.999 24.6333 182.307 24.6333C178.198 24.6333 175.04 21.8045 175.04 17.1572C175.04 12.51 178.167 9.47473 182.544 9.47473C186.921 9.47473 189.75 12.5122 189.75 16.92H189.752ZM178.824 17.0694C178.824 19.8696 180.194 21.9824 182.428 21.9824C184.512 21.9824 185.973 19.9267 185.973 17.0101C185.973 14.7458 184.96 12.1564 182.459 12.1564C179.957 12.1564 178.826 14.6579 178.826 17.0694H178.824Z" fill="#1A2E50"/>
<path d="M205.892 19.9575C205.892 21.6837 205.952 23.1135 206.011 24.3061H202.796L202.618 22.1032H202.559C201.933 23.1464 200.503 24.6355 197.913 24.6355C195.324 24.6355 192.851 23.0564 192.851 18.3213V9.80417H196.514V17.6953C196.514 20.1068 197.29 21.6552 199.225 21.6552C200.683 21.6552 201.636 20.6119 202.025 19.6895C202.143 19.3623 202.233 18.9757 202.233 18.5584V9.80197H205.897V19.9575H205.892Z" fill="#1A2E50"/>
<path d="M223.372 3.16049V20.2254C223.372 21.7145 223.432 23.3221 223.491 24.3061H220.214L220.065 22.0132H220.005C219.142 23.6208 217.385 24.6333 215.27 24.6333C211.816 24.6333 209.077 21.6859 209.077 17.2187C209.046 12.365 212.086 9.47473 215.569 9.47473C217.565 9.47473 218.993 10.3093 219.65 11.3811H219.709V3.16049H223.372ZM219.709 15.8461C219.709 15.5474 219.678 15.1916 219.619 14.8929C219.292 13.4631 218.13 12.3013 216.463 12.3013C214.111 12.3013 212.8 14.3856 212.8 17.0957C212.8 19.8059 214.111 21.6815 216.432 21.6815C217.921 21.6815 219.232 20.6691 219.588 19.0899C219.678 18.7627 219.707 18.4047 219.707 18.0182V15.8439L219.709 15.8461Z" fill="#1A2E50"/>
<path d="M100.15 42.0235H93.7801V44.7395H100.15V42.0235ZM92.4641 46.7415V40.7775H101.536V46.7135H100.15V45.9995H93.7801V46.7415H92.4641ZM98.2741 36.0175L99.2821 35.3315C100.598 36.5215 102.236 38.2435 102.964 39.3915L101.872 40.2035C101.662 39.8535 101.382 39.4615 101.06 39.0555C93.3601 39.4615 92.4641 39.4895 91.8341 39.7135C91.7781 39.4475 91.5541 38.8035 91.4141 38.4395C91.7501 38.3835 92.1001 38.0895 92.5621 37.6415C93.0521 37.1795 94.6341 35.4575 95.6561 33.7635L96.9581 34.3235C95.9501 35.7375 94.7601 37.0955 93.6121 38.1875L100.122 37.9215C99.5201 37.2495 98.8761 36.5775 98.2741 36.0175Z" fill="#1A2E50"/>
<path d="M118.448 38.3555L117.846 38.6075C117.804 38.4815 117.748 38.2995 117.678 38.1175C115.844 38.3835 115.494 38.4535 115.284 38.5375C115.242 38.4255 115.102 38.1035 115.018 37.9355C115.228 37.9075 115.424 37.7255 115.676 37.4595C115.802 37.3195 116.124 36.9555 116.446 36.4935C115.634 36.5775 115.396 36.6195 115.242 36.6895C115.2 36.5495 115.074 36.2415 114.99 36.0875C115.13 36.0735 115.27 35.9335 115.41 35.7235C115.564 35.5275 116.04 34.7295 116.264 33.9875L117.02 34.2535C116.796 34.7995 116.46 35.3735 116.11 35.8355L116.922 35.7935C117.034 35.5835 117.16 35.3735 117.258 35.1635L118 35.4855C117.552 36.2415 116.992 36.9975 116.39 37.6275L117.412 37.5015C117.342 37.3615 117.258 37.2215 117.188 37.0955L117.762 36.8855C118.056 37.3475 118.35 37.9635 118.448 38.3555ZM117.16 40.6935L116.516 40.9035C116.516 40.4415 116.376 39.6855 116.222 39.0835L116.838 38.9435C117.006 39.5175 117.16 40.2455 117.16 40.6935ZM115.326 38.9155L116.012 39.0835C115.886 39.7555 115.676 40.4835 115.424 40.9735C115.298 40.8475 115.004 40.6515 114.822 40.5535C115.102 40.0915 115.242 39.4895 115.326 38.9155ZM115.046 35.2755V36.0035H111.714V35.2755H113.128C113.03 34.9675 112.806 34.5335 112.638 34.2115L113.492 34.0155C113.716 34.3375 113.954 34.8275 114.052 35.1075L113.408 35.2755H115.046ZM112.12 38.1455V37.4875H114.724V38.1455H112.12ZM114.724 36.4515V37.1095H112.12V36.4515H114.724ZM112.904 39.2515V40.0215H113.898V39.2515H112.904ZM112.092 40.6655V38.6075H114.738V40.6655H112.092ZM111.924 38.2995L111.322 38.5795C111.28 38.4535 111.238 38.2995 111.168 38.1455C109.334 38.3975 108.984 38.4815 108.788 38.5655C108.746 38.4395 108.606 38.1315 108.508 37.9775C108.732 37.9355 108.928 37.7535 109.166 37.4875C109.32 37.3475 109.628 36.9695 109.964 36.5075C109.138 36.5915 108.886 36.6475 108.746 36.7035C108.704 36.5635 108.578 36.2555 108.48 36.1155C108.648 36.0875 108.76 35.9475 108.914 35.7375C109.054 35.5415 109.544 34.7435 109.754 34.0015L110.524 34.2675C110.3 34.8135 109.964 35.3875 109.614 35.8495L110.412 35.8075C110.552 35.5975 110.664 35.3875 110.776 35.1775L111.504 35.4995C111.056 36.2555 110.482 37.0115 109.894 37.6415L110.916 37.5155C110.846 37.3895 110.762 37.2355 110.692 37.1095L111.28 36.8995C111.546 37.3475 111.826 37.9495 111.924 38.2995ZM111.84 40.1755L111.238 40.4415C111.182 40.0495 111.014 39.4195 110.804 38.9155L111.364 38.7195C111.588 39.1815 111.784 39.7975 111.84 40.1755ZM110.678 40.5675L110.02 40.7775C110.006 40.3435 109.894 39.6435 109.74 39.1115L110.356 38.9575C110.524 39.4755 110.664 40.1475 110.678 40.5675ZM108.662 35.5135L107.864 36.4935C107.486 36.0175 106.618 35.3735 105.918 34.9395L106.674 34.0855C107.374 34.4635 108.242 35.0655 108.662 35.5135ZM108.382 39.0835L107.626 40.0915C107.22 39.6435 106.324 39.0135 105.624 38.6355L106.338 37.7395C107.052 38.0895 107.962 38.6495 108.382 39.0835ZM107.066 46.5735L105.904 45.9155C106.408 44.8375 107.122 43.0455 107.64 41.4775L108.676 42.1495C108.228 43.5915 107.626 45.2715 107.066 46.5735ZM108.816 38.9715L109.502 39.1395C109.39 39.8115 109.166 40.5535 108.914 41.0295C108.788 40.9035 108.494 40.7215 108.312 40.6235C108.578 40.1475 108.732 39.5455 108.816 38.9715ZM110.804 43.8715H117.944C117.944 43.8715 117.916 44.2075 117.86 44.3615C117.622 45.5235 117.342 46.1395 116.978 46.4195C116.656 46.6575 116.334 46.7275 115.816 46.7415C115.396 46.7415 114.542 46.7415 113.674 46.6995C113.66 46.3915 113.506 45.9855 113.324 45.7055C114.178 45.7895 115.088 45.8035 115.438 45.8035C115.746 45.8035 115.886 45.8035 116.04 45.7055C116.236 45.5655 116.39 45.2575 116.544 44.7115H109.334C109.558 44.0815 109.782 43.2275 109.95 42.4995H116.082V41.8975H109.488V41.1135H117.3V43.2835H110.972L110.804 43.8715ZM117.286 38.9015L117.86 38.7055C118.126 39.2515 118.364 39.9655 118.434 40.4275L117.818 40.6935C117.762 40.2175 117.538 39.4615 117.286 38.9015Z" fill="#1A2E50"/>
<path d="M131.37 36.2695V35.3735H127.688V36.2695H131.37ZM131.37 38.0755V37.1655H127.688V38.0755H131.37ZM132.602 34.4215V39.0275H126.498V34.4215H132.602ZM124.664 34.4355L125.518 34.9255C125.126 36.1015 124.636 37.5575 124.188 38.6495C125.14 39.7555 125.35 40.7215 125.35 41.5615C125.35 42.3595 125.182 42.9475 124.776 43.2275C124.566 43.3675 124.3 43.4655 124.02 43.5075C123.754 43.5355 123.418 43.5355 123.096 43.5215C123.082 43.1995 122.984 42.7095 122.788 42.4015C123.082 42.4295 123.32 42.4295 123.502 42.4155C123.67 42.4155 123.81 42.3735 123.936 42.2895C124.132 42.1495 124.188 41.8135 124.188 41.4075C124.188 40.7075 123.964 39.7975 123.054 38.7895C123.404 37.8515 123.768 36.6055 124.034 35.6535H122.536V46.7415H121.388V34.4775H124.468L124.664 34.4355ZM133.68 40.7915H128.22C128.08 41.0855 127.94 41.3655 127.772 41.6315H133.246L133.204 42.1075C133.064 44.8375 132.882 45.9015 132.532 46.2935C132.308 46.5595 132.07 46.6575 131.734 46.6995C131.454 46.7415 130.964 46.7555 130.446 46.7275C130.418 46.3915 130.32 45.9295 130.152 45.6355C130.586 45.6775 130.978 45.6915 131.146 45.6915C131.328 45.6915 131.426 45.6775 131.538 45.5515C131.72 45.3135 131.86 44.5575 131.986 42.6535H131.328C130.74 44.3055 129.76 45.7615 128.626 46.6995C128.458 46.5175 128.038 46.1395 127.8 45.9575C128.808 45.1875 129.676 44.0115 130.18 42.6535H129.228C128.43 44.2075 127.17 45.5655 125.854 46.4475C125.714 46.2375 125.35 45.8175 125.126 45.6215C126.274 44.9215 127.338 43.8715 128.038 42.6535H127.072C126.582 43.2695 126.036 43.7875 125.448 44.2075C125.28 43.9835 124.86 43.5915 124.636 43.3955C125.602 42.7795 126.47 41.8555 127.03 40.7915H125.35V39.7275H133.68V40.7915Z" fill="#1A2E50"/>
<path d="M146.294 34.3935L147.652 34.8835C147.064 36.1015 146.322 37.4875 145.734 38.3555L144.614 37.9215C145.202 36.9835 145.916 35.5135 146.294 34.3935ZM140.064 37.9215L138.804 38.4115C138.58 37.5155 137.908 36.0595 137.25 34.9675L138.426 34.5335C139.112 35.5835 139.826 36.9835 140.064 37.9215ZM145.342 45.4815H146.924C147.442 45.4815 147.512 45.1595 147.582 43.1995C147.862 43.4235 148.422 43.6615 148.786 43.7595C148.632 46.0835 148.296 46.6995 147.036 46.6995H145.174C143.802 46.6995 143.438 46.2935 143.438 44.9215V40.3295H141.128C140.862 43.3115 140.204 45.5655 136.648 46.7415C136.508 46.4055 136.13 45.8735 135.836 45.6215C139.056 44.6415 139.518 42.8075 139.742 40.3295H136.158V39.0835H141.66V33.8895H142.976V39.0835H148.59V40.3295H144.754V44.9215C144.754 45.3835 144.838 45.4815 145.342 45.4815Z" fill="#1A2E50"/>
<path d="M152.678 36.7455V38.8035H151.516V35.8775H156.822V35.2475H152.384V34.2815H162.562V35.2475H158.096V35.8775H163.458V38.8035H162.254V36.7455H158.096V40.5395H156.822V36.7455H152.678ZM153.028 40.8895L152.58 39.8535C153.504 39.5875 154.862 39.1535 156.192 38.7055L156.346 39.5875C155.198 40.0495 154.008 40.5255 153.028 40.8895ZM153.098 37.6555L153.574 36.9275C154.442 37.1655 155.646 37.5995 156.276 37.8795L155.8 38.6915C155.184 38.3975 153.994 37.9215 153.098 37.6555ZM162.114 41.1415V42.1075H152.86V41.1415H162.114ZM158.572 39.5175L158.992 38.7195C160.084 39.0415 161.624 39.5595 162.436 39.9515L162.016 40.8335C161.232 40.4555 159.706 39.8815 158.572 39.5175ZM161.372 36.9555L161.974 37.7535C161.092 38.1595 159.874 38.4955 159.02 38.7055L158.516 37.9775C159.37 37.7675 160.644 37.2775 161.372 36.9555ZM154.708 45.3415L160.266 45.1455C159.874 44.8095 159.468 44.4735 159.09 44.2075L159.706 43.9275H156.36C155.828 44.4315 155.268 44.9215 154.708 45.3415ZM163.724 42.9195V43.9275H160.448C161.4 44.6415 162.534 45.5935 163.136 46.2515L161.96 46.8115C161.806 46.6015 161.568 46.3635 161.302 46.0975C154.246 46.4195 153.49 46.4335 152.972 46.6155C152.902 46.3495 152.706 45.7195 152.552 45.3835C152.804 45.3415 153.056 45.1875 153.364 44.9495C153.588 44.8235 154.092 44.4175 154.61 43.9275H151.25V42.9195H163.724Z" fill="#1A2E50"/>
<path d="M175.848 40.6095V39.4055H170.388V40.6095H175.848ZM170.346 42.9195H175.848V41.7015H170.388V41.9395C170.388 42.2475 170.374 42.5835 170.346 42.9195ZM178.732 36.8575H171.242C171.004 37.3335 170.766 37.8095 170.5 38.2575H177.122V45.2295C177.122 45.9295 176.982 46.3215 176.478 46.5175C175.988 46.7275 175.204 46.7275 174.042 46.7275C174 46.3775 173.804 45.8175 173.636 45.4675C174.462 45.5095 175.302 45.5095 175.54 45.4955C175.778 45.4955 175.848 45.4255 175.848 45.2155V44.0115H170.206C169.996 45.0615 169.562 46.0835 168.736 46.8395C168.568 46.5455 168.05 45.9995 167.798 45.8175C168.974 44.7395 169.086 43.2135 169.086 41.9115V40.2595C168.484 40.9735 167.812 41.6035 167.056 42.1355C166.86 41.8415 166.468 41.3795 166.202 41.1275C167.742 40.0915 168.932 38.5375 169.8 36.8575H166.51V35.6395H170.346C170.584 35.0515 170.78 34.4635 170.934 33.8895L172.264 34.1975C172.11 34.6735 171.956 35.1635 171.76 35.6395H178.732V36.8575Z" fill="#1A2E50"/>
<path d="M185.48 34.4075L186.334 34.8975C185.942 36.0455 185.466 37.4175 185.032 38.4955C185.956 39.6435 186.166 40.6235 186.166 41.4775C186.166 42.2895 185.998 42.8775 185.592 43.1855C185.382 43.3395 185.144 43.4235 184.836 43.4655C184.584 43.4935 184.234 43.4935 183.926 43.4935C183.926 43.1715 183.814 42.6815 183.618 42.3595C183.912 42.3735 184.136 42.3875 184.346 42.3735C184.5 42.3735 184.64 42.3315 184.752 42.2615C184.948 42.1075 185.018 41.7575 185.018 41.3375C185.018 40.6235 184.794 39.6995 183.898 38.6495C184.234 37.7255 184.598 36.5495 184.85 35.6255H183.128V46.6995H181.994V34.4635H185.298L185.48 34.4075ZM188.168 38.1035V39.5595H191.836V38.1035H188.168ZM191.836 35.6255H188.168V37.0395H191.836V35.6255ZM193.054 41.0155L193.922 41.9255C193.25 42.4715 192.41 43.0315 191.71 43.4515C192.354 44.3755 193.18 45.1035 194.216 45.5375C193.936 45.7895 193.516 46.3075 193.348 46.6435C191.206 45.5655 189.988 43.4375 189.302 40.6935H188.168V44.9915L190.408 44.4735C190.408 44.8375 190.422 45.3555 190.478 45.6495C187.678 46.3915 187.202 46.5595 186.908 46.7555C186.81 46.4615 186.53 45.9435 186.334 45.7055C186.572 45.5655 186.908 45.2295 186.908 44.6275V34.4915H193.096V40.6935H190.436C190.632 41.3375 190.856 41.9535 191.15 42.5415C191.808 42.0795 192.578 41.4915 193.054 41.0155Z" fill="#1A2E50"/>
<path d="M200.166 34.2675L201.594 34.7155C200.6 36.9975 199.018 39.2795 197.478 40.7075C197.254 40.4415 196.666 39.8955 196.33 39.6295C197.856 38.3695 199.312 36.3255 200.166 34.2675ZM204.268 41.8135L205.528 41.2395C206.648 42.7515 207.964 44.7115 208.622 45.9855L207.306 46.6995C207.11 46.2935 206.872 45.8455 206.564 45.3415C199.55 45.8595 198.71 45.9155 198.094 46.1395C198.024 45.8595 197.772 45.1315 197.576 44.7395C197.996 44.6415 198.374 44.2215 198.906 43.5775C199.494 42.9615 201.272 40.5255 202.392 38.1735L203.904 38.8175C202.756 40.8475 201.356 42.8775 199.956 44.4875L205.822 44.1095C205.304 43.3115 204.758 42.5135 204.268 41.8135ZM202.364 34.2395H205.794C206.438 36.3395 207.782 38.3835 209.448 39.4195C209.14 39.7135 208.678 40.3015 208.44 40.7075C206.858 39.5175 205.57 37.5575 204.8 35.5695H202.364V34.2395Z" fill="#1A2E50"/>
<path d="M218.45 40.8335H214.39V43.1155H218.45V40.8335ZM219.724 44.2495H214.39V45.2715H213.13V39.7135H219.724V44.2495ZM220.592 37.2635V38.4115H212.318V37.2635H220.592ZM223.434 34.7575V44.9495C223.434 45.7755 223.266 46.2095 222.748 46.4195C222.216 46.6575 221.348 46.6855 220.102 46.6715C220.046 46.2935 219.836 45.6355 219.654 45.2575C220.55 45.2995 221.488 45.2995 221.754 45.2855C222.02 45.2715 222.104 45.2015 222.104 44.9355V36.0035H212.206V34.7575H223.434Z" fill="#1A2E50"/>
</svg>
