<svg width="130" height="104" viewBox="0 0 130 104" fill="none" xmlns="http://www.w3.org/2000/svg">
<path d="M104.076 10.5415C103.396 9.65817 102.662 8.81088 101.857 7.99965C101.857 7.99965 101.839 7.98162 101.821 7.96359C91.2795 -2.65453 74.1877 -2.65453 63.6462 7.96359L66.2055 10.5415C69.5881 13.9487 74.5277 15.1926 79.1452 13.9307C79.9148 13.7143 80.7202 13.5701 81.5076 13.498L88.577 9.6762C93.8567 6.80984 99.7449 7.53094 104.076 10.5415Z" fill="#FFA502"/>
<path d="M88.5771 44.8117L81.4719 40.9539C80.7023 40.8817 79.9327 40.7375 79.181 40.5392C74.5635 39.2953 69.6597 40.5392 66.2771 43.9464L63.7 46.5423C74.2593 57.1064 91.3153 57.0884 101.857 46.4702C101.982 46.344 102.107 46.2178 102.233 46.0917C102.895 45.4066 103.503 44.6855 104.076 43.9464C99.7449 46.9389 93.8746 47.642 88.5949 44.7937L88.5771 44.8117Z" fill="#FFA502"/>
<path d="M106.617 14.4897C105.902 13.1196 105.06 11.8036 104.094 10.5417C99.7449 7.53116 93.8746 6.81006 88.5949 9.67642L81.5255 13.4982C83.2974 13.336 85.105 13.5343 86.8231 14.0571C88.935 14.7241 90.9216 15.8959 92.5681 17.6265C95.1274 20.2765 96.3981 23.7197 96.416 27.181C96.4876 27.181 96.4876 27.181 96.416 27.181C96.416 30.6603 95.1453 34.1396 92.586 36.8076C90.9395 38.5202 88.9708 39.71 86.8589 40.377C85.1229 40.9359 83.2795 41.1162 81.4897 40.9539L88.5949 44.8118C93.8746 47.6601 99.727 46.957 104.076 43.9645C105.025 42.7386 105.848 41.4407 106.564 40.1066C110.787 32.1385 110.823 22.4759 106.635 14.4897H106.617Z" fill="#FFC40C"/>
<path d="M97.0784 27.1809C97.2036 27.1809 97.3468 27.1809 97.4721 27.1629C97.3468 27.1629 97.2036 27.1809 97.0784 27.1809Z" fill="#FFA502"/>
<path d="M41.9905 0.0675735C47.9502 0.0675735 52.7825 4.93497 52.7825 10.9381V54.4201C46.8227 54.4201 41.9905 49.5527 41.9905 43.5496V0.0675735Z" fill="#FFA502"/>
<path d="M86.5904 23.3952C84.4785 21.268 81.0602 21.268 78.9662 23.3952C78.2324 24.1343 77.3196 24.6571 76.2995 24.8374C75.4225 24.9816 74.5456 25.0898 73.6686 25.1258C70.7156 25.2701 67.852 24.1343 65.7759 22.0251L64.8095 21.0517C64.38 20.619 63.6999 20.619 63.2882 21.0517L58.277 26.0993L57.9191 26.4599C57.4895 26.8925 57.4895 27.5776 57.9191 27.9922L58.277 28.3527L63.2882 33.4004C63.7178 33.8331 64.3979 33.8331 64.8095 33.4004L65.7759 32.4269C67.5836 30.6062 70.0355 29.5425 72.6127 29.5245C74.0981 29.5245 75.6015 29.6687 77.0691 29.9752C77.8029 30.1194 78.4651 30.516 79.002 31.0568C81.1138 33.1841 84.5322 33.1841 86.6262 31.0568C88.738 28.9296 88.738 25.4864 86.6262 23.3772L86.5904 23.3952Z" fill="#FFA502"/>
<path d="M33.7401 3.49275C25.6685 8.28803 20.2456 17.1215 20.2456 27.2348C20.2456 37.3482 25.6685 46.1996 33.7401 50.9949V3.49275Z" fill="#FFA502"/>
<path d="M5.97435 96.9529H0.324097V99.3687H5.97435V96.9529Z" fill="#002462"/>
<path d="M5.97435 80.8569H0.324097V89.72H5.97435V80.8569Z" fill="#002462"/>
<path d="M5.97435 92.1358H0.324097V94.5517H5.97435V92.1358Z" fill="#002462"/>
<path d="M3.10469 77.6404C5.06169 77.6404 6.29768 76.3065 6.29768 74.6169C6.25354 72.868 5.06169 71.5341 3.14884 71.5341C1.23599 71.5341 0 72.868 0 74.6169C0 76.3658 1.23599 77.6404 3.10469 77.6404Z" fill="#002462"/>
<path d="M5.97435 101.77H0.324097V103.208H5.97435V101.77Z" fill="#002462"/>
<path d="M12.3009 97.0566C14.1255 98.1089 16.8623 99.0278 19.7316 99.0278C23.3366 99.0278 25.3377 97.3234 25.3377 94.8038C25.3377 92.462 23.7927 91.0837 19.864 89.6608C14.8023 87.823 11.5652 85.1107 11.5652 80.6643C11.5652 75.6103 15.7588 71.7568 22.4096 71.7568C25.735 71.7568 28.1923 72.4978 29.7961 73.313L28.4277 77.8631C27.3389 77.2703 25.1906 76.3958 22.3213 76.3958C18.7605 76.3958 17.2155 78.3226 17.2155 80.1159C17.2155 82.5022 18.9959 83.5989 23.1012 85.2144C28.4277 87.2301 31.0321 89.9424 31.0321 94.3888C31.0321 99.3391 27.2947 103.667 19.3638 103.667C16.1266 103.667 12.7571 102.748 11.0649 101.74L12.3009 97.0566Z" fill="#002462"/>
<path d="M55.9579 96.5081C55.9579 99.176 56.0462 101.37 56.1345 103.207H51.2199L50.9404 99.8133H50.8521C49.8957 101.414 47.7032 103.711 43.7451 103.711C39.787 103.711 35.9907 101.281 35.9907 93.9737V80.8421H41.5968V93.0103C41.5968 96.7305 42.7887 99.1167 45.7463 99.1167C47.9828 99.1167 49.4395 97.516 50.0281 96.0932C50.2047 95.5892 50.3518 94.9964 50.3518 94.3442V80.8421H55.9579V96.4933V96.5081Z" fill="#002462"/>
<path d="M62.2562 87.5114C62.2562 84.9473 62.212 82.7834 62.0796 80.8566H66.9941L67.2737 84.2062H67.4061C68.3626 82.4573 70.7757 80.3527 74.469 80.3527C78.3388 80.3527 82.3558 82.8723 82.3558 89.9421V103.207H76.7497V90.5794C76.7497 87.3632 75.5578 84.9325 72.512 84.9325C70.2754 84.9325 68.7304 86.5332 68.1419 88.2376C67.9653 88.7415 67.9211 89.4381 67.9211 90.0754V103.207H62.2709V87.5114H62.2562Z" fill="#002462"/>
<path d="M87.5936 71.0452H104.456V75.7584H93.1998V84.8586H103.691V89.4828H93.1998V103.207H87.5936V71.0452Z" fill="#002462"/>
<path d="M112.608 94.3296L110.18 103.208H104.485L113.785 71.0455H120.759L130 103.208H124.129L121.598 94.3296H112.593H112.608ZM120.774 90.0315L118.611 82.2651C118.067 80.2346 117.566 77.8188 117.125 75.8327H117.007C116.581 77.8336 116.095 80.3087 115.58 82.2503L113.432 90.0167H120.759L120.774 90.0315Z" fill="#002462"/>
</svg>
