<svg width="111" height="150" viewBox="0 0 111 150" fill="none" xmlns="http://www.w3.org/2000/svg">
<g clip-path="url(#clip0_17_9703)">
<path d="M26.1681 149.337H23.4877L21.2071 133.118L13.3972 150L5.60572 133.118L3.32512 149.337H0.614746L4.43423 124.893L13.4596 144.346L22.411 124.893L26.1704 149.337H26.1681Z" fill="#DDE1E6"/>
<path d="M43.1972 142.359H31.3668C31.4592 143.951 31.9283 145.185 32.7763 146.063C33.6243 146.941 34.7565 147.38 36.1729 147.38C37.252 147.38 38.167 147.167 38.9226 146.74C39.6781 146.315 40.2743 145.675 40.7179 144.822L42.8275 145.931C42.1505 147.216 41.2494 148.182 40.1241 148.836C38.9988 149.487 37.6725 149.813 36.1429 149.813C33.9246 149.813 32.157 149.09 30.8376 147.641C29.5183 146.192 28.8574 144.279 28.8574 141.897C28.8574 139.678 29.5552 137.835 30.9532 136.367C32.3488 134.9 34.0702 134.165 36.1128 134.165C38.1554 134.165 39.9115 134.838 41.2263 136.182C42.541 137.527 43.1972 139.295 43.1972 141.481V142.359ZM40.6856 140.573C40.5516 139.309 40.0802 138.327 39.2692 137.622C38.4581 136.92 37.4045 136.566 36.1105 136.566C34.8166 136.566 33.816 136.929 32.9519 137.652C32.09 138.375 31.5817 139.348 31.4269 140.57H40.6833L40.6856 140.573Z" fill="#DDE1E6"/>
<path d="M54.9099 134.443L54.3092 136.938C54.1243 136.825 53.9233 136.739 53.7084 136.684C53.4935 136.628 53.2624 136.598 53.0152 136.598C51.7721 136.598 50.8363 137.13 50.2032 138.193C49.5724 139.256 49.2558 140.845 49.2558 142.96V149.337H46.7441V134.611H49.2558V137.199C49.6163 136.141 50.1338 135.371 50.8109 134.889C51.4879 134.406 52.3913 134.165 53.5212 134.165C53.7893 134.165 54.0481 134.191 54.2999 134.242C54.5518 134.292 54.7551 134.359 54.9076 134.443H54.9099Z" fill="#DDE1E6"/>
<path d="M82.1963 149.337H79.5159L77.2353 133.118L69.4254 150L61.6316 133.118L59.351 149.337H56.6406L60.4624 124.893L69.4878 144.346L78.4369 124.893L82.1963 149.337Z" fill="#DDE1E6"/>
<path d="M99.2236 142.359H87.3931C87.4856 143.951 87.9546 145.185 88.8026 146.063C89.6506 146.941 90.7828 147.38 92.1993 147.38C93.2783 147.38 94.1933 147.167 94.9489 146.74C95.7045 146.315 96.3006 145.675 96.7443 144.822L98.8539 145.931C98.1769 147.216 97.2757 148.182 96.1505 148.836C95.0252 149.487 93.6989 149.813 92.1692 149.813C89.951 149.813 88.1834 149.09 86.864 147.641C85.5446 146.192 84.8838 144.279 84.8838 141.897C84.8838 139.678 85.5816 137.835 86.9795 136.367C88.3752 134.9 90.0966 134.165 92.1392 134.165C94.1818 134.165 95.9379 134.838 97.2526 136.182C98.5674 137.527 99.2236 139.295 99.2236 141.481V142.359ZM96.7119 140.573C96.5779 139.309 96.1066 138.327 95.2955 137.622C94.4845 136.92 93.4308 136.566 92.1369 136.566C90.8429 136.566 89.8424 136.929 88.9782 137.652C88.1164 138.375 87.608 139.348 87.4532 140.57H96.7096L96.7119 140.573Z" fill="#DDE1E6"/>
<path d="M110.938 134.443L110.337 136.938C110.153 136.825 109.952 136.739 109.737 136.684C109.522 136.628 109.291 136.598 109.044 136.598C107.8 136.598 106.865 137.13 106.231 138.193C105.601 139.256 105.284 140.845 105.284 142.96V149.337H102.772V134.611H105.284V137.199C105.645 136.141 106.162 135.371 106.839 134.889C107.516 134.406 108.42 134.165 109.55 134.165C109.818 134.165 110.076 134.191 110.328 134.242C110.58 134.292 110.783 134.359 110.936 134.443H110.938Z" fill="#DDE1E6"/>
</g>
<g clip-path="url(#clip1_17_9703)">
<path d="M55.7766 0C25.3096 0 0.614746 24.6948 0.614746 55.1618C0.614746 76.8333 13.1124 95.5891 31.2969 104.607C31.052 103.116 30.1692 96.2308 32.2428 84.8275C34.6133 71.7957 37.0505 68.6796 39.9328 64.996C46.0351 57.2021 39.7362 50.6695 36.1157 49.2635C26.9715 45.706 21.433 38.9842 21.433 30.4633C21.433 21.9423 27.4092 18.5332 27.4092 18.5332C26.185 21.5825 27.9249 25.7632 32.8215 25.7632C38.883 25.7632 48.2015 27.0059 54.1814 34.3213C60.0908 41.5476 55.1459 51.1629 55.1459 51.1629C55.1459 51.1629 62.58 42.9758 73.5122 48.1024C82.3002 52.2201 81.996 63.9313 89.4635 66.0384C93.7518 67.2477 95.9553 64.0723 95.9553 64.0723C95.9553 64.0723 94.5234 69.2212 89.7751 72.3113C82.2409 77.2154 75.5265 75.2196 71.5535 71.6584C67.5137 68.0378 59.2525 64.1761 53.3764 70.4231C50.1639 73.8397 47.4411 82.9579 54.5598 89.2086C61.4077 95.2218 64.7649 93.7009 70.4889 93.3373C70.2997 92.8588 70.0919 92.3877 69.8619 91.9277C69.2461 90.6998 70.5334 89.3866 71.7761 89.969L83.5504 95.5038C83.6023 95.526 83.6468 95.5557 83.6913 95.5817C85.8429 96.6055 87.4937 97.9521 88.7253 99.2727L88.8032 99.3506C102.239 89.2902 110.938 73.2424 110.938 55.1655C110.938 24.6948 86.2398 0 55.7766 0ZM75.7973 39.9858C73.0522 39.9858 70.8301 37.7601 70.8301 35.0187C70.8301 32.2773 73.0559 30.0515 75.7973 30.0515C78.5387 30.0515 80.7645 32.2773 80.7645 35.0187C80.7645 37.7601 78.5387 39.9858 75.7973 39.9858ZM86.4884 28.2338C85.1158 28.2338 84.0029 27.1209 84.0029 25.7484C84.0029 24.3758 85.1158 23.2629 86.4884 23.2629C87.8609 23.2629 88.9738 24.3758 88.9738 25.7484C88.9738 27.1209 87.8609 28.2338 86.4884 28.2338ZM92.2865 39.9487C90.4057 39.9487 88.8736 38.4204 88.8736 36.5359C88.8736 34.6514 90.402 33.1231 92.2865 33.1231C94.171 33.1231 95.6993 34.6514 95.6993 36.5359C95.6993 38.4204 94.171 39.9487 92.2865 39.9487Z" fill="#DDE1E6"/>
<path d="M82.5413 99.8105C82.2148 99.7103 81.8921 99.6139 81.5657 99.5249C78.253 98.6086 74.9329 98.2896 71.6017 98.3897C60.4728 98.731 49.255 103.783 38.0817 107.074C26.8787 110.453 15.6126 111.755 4.73975 105.876C15.6163 114.675 26.8787 114.456 38.0817 111.652C49.1845 108.855 60.3319 103.687 71.3902 102.203C73.6902 101.895 75.9864 101.743 78.2789 101.806C79.6997 101.847 81.1205 101.966 82.5376 102.185C86.2768 102.734 89.9827 103.947 93.6515 105.876C89.9827 102.893 86.2768 100.975 82.5376 99.8068L82.5413 99.8105Z" fill="#DDE1E6"/>
<path d="M92.2865 34.9814C91.4296 34.9814 90.7285 35.6788 90.7285 36.5395C90.7285 37.4001 91.4259 38.0975 92.2865 38.0975C93.1472 38.0975 93.8446 37.4001 93.8446 36.5395C93.8446 35.6788 93.1472 34.9814 92.2865 34.9814Z" fill="#DDE1E6"/>
</g>
<defs>
<clipPath id="clip0_17_9703">
<rect width="110.324" height="25.1074" fill="white" transform="translate(0.614746 124.893)"/>
</clipPath>
<clipPath id="clip1_17_9703">
<rect width="110.324" height="113.38" fill="white" transform="translate(0.614746)"/>
</clipPath>
</defs>
</svg>
