<svg width="111" height="150" viewBox="0 0 111 150" fill="none" xmlns="http://www.w3.org/2000/svg">
<g clip-path="url(#clip0_17_9680)">
<path d="M25.5533 149.337H22.873L20.5924 133.118L12.7824 150L4.99098 133.118L2.71038 149.337H0L3.81948 124.893L12.8448 144.346L21.7962 124.893L25.5556 149.337H25.5533Z" fill="#012B51"/>
<path d="M42.5827 142.359H30.7523C30.8447 143.951 31.3138 145.185 32.1618 146.063C33.0098 146.941 34.142 147.38 35.5584 147.38C36.6375 147.38 37.5525 147.167 38.3081 146.74C39.0636 146.315 39.6598 145.674 40.1034 144.822L42.213 145.931C41.536 147.216 40.6349 148.182 39.5096 148.835C38.3843 149.487 37.058 149.813 35.5284 149.813C33.3101 149.813 31.5425 149.09 30.2231 147.641C28.9038 146.192 28.2429 144.279 28.2429 141.897C28.2429 139.678 28.9407 137.834 30.3387 136.367C31.7343 134.9 33.4557 134.165 35.4983 134.165C37.5409 134.165 39.297 134.838 40.6118 136.182C41.9265 137.527 42.5827 139.295 42.5827 141.481V142.359ZM40.0711 140.573C39.9371 139.309 39.4657 138.327 38.6546 137.622C37.8436 136.919 36.79 136.566 35.496 136.566C34.2021 136.566 33.2015 136.929 32.3374 137.652C31.4755 138.375 30.9672 139.348 30.8123 140.57H40.0688L40.0711 140.573Z" fill="#012B51"/>
<path d="M54.2953 134.442L53.6945 136.938C53.5097 136.825 53.3087 136.739 53.0938 136.684C52.8789 136.628 52.6478 136.598 52.4006 136.598C51.1575 136.598 50.2217 137.13 49.5885 138.193C48.9577 139.256 48.6412 140.845 48.6412 142.959V149.337H46.1295V134.611H48.6412V137.199C49.0016 136.141 49.5192 135.371 50.1962 134.888C50.8733 134.406 51.7767 134.165 52.9066 134.165C53.1747 134.165 53.4334 134.191 53.6853 134.241C53.9372 134.292 54.1405 134.359 54.293 134.442H54.2953Z" fill="#012B51"/>
<path d="M81.5817 149.337H78.9013L76.6207 133.118L68.8108 150L61.017 133.118L58.7364 149.337H56.026L59.8478 124.893L68.8731 144.346L77.8222 124.893L81.5817 149.337Z" fill="#012B51"/>
<path d="M98.6087 142.359H86.7783C86.8707 143.951 87.3398 145.185 88.1878 146.063C89.0358 146.941 90.168 147.38 91.5844 147.38C92.6635 147.38 93.5785 147.167 94.3341 146.74C95.0896 146.315 95.6858 145.674 96.1294 144.822L98.239 145.931C97.562 147.216 96.6609 148.182 95.5356 148.835C94.4103 149.487 93.084 149.813 91.5544 149.813C89.3361 149.813 87.5685 149.09 86.2491 147.641C84.9298 146.192 84.2689 144.279 84.2689 141.897C84.2689 139.678 84.9667 137.834 86.3647 136.367C87.7603 134.9 89.4817 134.165 91.5243 134.165C93.5669 134.165 95.323 134.838 96.6378 136.182C97.9525 137.527 98.6087 139.295 98.6087 141.481V142.359ZM96.0971 140.573C95.9631 139.309 95.4917 138.327 94.6807 137.622C93.8696 136.919 92.816 136.566 91.522 136.566C90.2281 136.566 89.2275 136.929 88.3634 137.652C87.5015 138.375 86.9932 139.348 86.8383 140.57H96.0948L96.0971 140.573Z" fill="#012B51"/>
<path d="M110.324 134.442L109.723 136.938C109.538 136.825 109.337 136.739 109.122 136.684C108.907 136.628 108.676 136.598 108.429 136.598C107.186 136.598 106.25 137.13 105.617 138.193C104.986 139.256 104.669 140.845 104.669 142.959V149.337H102.158V134.611H104.669V137.199C105.03 136.141 105.548 135.371 106.225 134.888C106.902 134.406 107.805 134.165 108.935 134.165C109.203 134.165 109.462 134.191 109.714 134.241C109.965 134.292 110.169 134.359 110.321 134.442H110.324Z" fill="#012B51"/>
</g>
<g clip-path="url(#clip1_17_9680)">
<path d="M55.1618 0C24.6948 0 0 24.6948 0 55.1618C0 76.8333 12.4977 95.5891 30.6821 104.607C30.4373 103.116 29.5544 96.2308 31.6281 84.8275C33.9985 71.7957 36.4357 68.6796 39.3181 64.996C45.4204 57.2021 39.1215 50.6695 35.5009 49.2635C26.3567 45.706 20.8183 38.9842 20.8183 30.4633C20.8183 21.9423 26.7945 18.5332 26.7945 18.5332C25.5703 21.5825 27.3101 25.7632 32.2068 25.7632C38.2683 25.7632 47.5868 27.0059 53.5667 34.3213C59.4761 41.5476 54.5312 51.1629 54.5312 51.1629C54.5312 51.1629 61.9652 42.9758 72.8974 48.1024C81.6855 52.2201 81.3813 63.9313 88.8487 66.0384C93.137 67.2477 95.3405 64.0723 95.3405 64.0723C95.3405 64.0723 93.9086 69.2212 89.1603 72.3113C81.6261 77.2154 74.9117 75.2196 70.9388 71.6584C66.899 68.0378 58.6377 64.1762 52.7617 70.4231C49.5492 73.8397 46.8263 82.9579 53.9451 89.2086C60.793 95.2218 64.1502 93.7009 69.8741 93.3374C69.6849 92.8588 69.4772 92.3877 69.2472 91.9277C68.6314 90.6998 69.9186 89.3866 71.1613 89.969L82.9356 95.5038C82.9876 95.526 83.0321 95.5557 83.0766 95.5817C85.2282 96.6055 86.8789 97.9521 88.1105 99.2727L88.1884 99.3506C101.625 89.2902 110.324 73.2424 110.324 55.1655C110.324 24.6948 85.6251 0 55.1618 0ZM75.1825 39.9858C72.4374 39.9858 70.2154 37.7601 70.2154 35.0187C70.2154 32.2773 72.4411 30.0515 75.1825 30.0515C77.9239 30.0515 80.1497 32.2773 80.1497 35.0187C80.1497 37.7601 77.9239 39.9858 75.1825 39.9858ZM85.8736 28.2338C84.5011 28.2338 83.3882 27.1209 83.3882 25.7484C83.3882 24.3758 84.5011 23.2629 85.8736 23.2629C87.2462 23.2629 88.3591 24.3758 88.3591 25.7484C88.3591 27.1209 87.2462 28.2338 85.8736 28.2338ZM91.6717 39.9487C89.791 39.9487 88.2589 38.4204 88.2589 36.5359C88.2589 34.6514 89.7873 33.1231 91.6717 33.1231C93.5562 33.1231 95.0846 34.6514 95.0846 36.5359C95.0846 38.4204 93.5562 39.9487 91.6717 39.9487Z" fill="url(#paint0_linear_17_9680)"/>
<path d="M81.9267 99.8106C81.6002 99.7104 81.2775 99.614 80.951 99.525C77.6383 98.6087 74.3183 98.2897 70.987 98.3898C59.8582 98.7311 48.6404 103.784 37.467 107.074C26.264 110.453 14.998 111.756 4.12512 105.876C15.0017 114.675 26.264 114.456 37.467 111.652C48.5699 108.855 59.7172 103.687 70.7756 102.203C73.0755 101.895 75.3718 101.743 77.6643 101.806C79.0851 101.847 80.5059 101.966 81.9229 102.185C85.6622 102.734 89.3681 103.947 93.0369 105.876C89.3681 102.893 85.6622 100.975 81.9229 99.8069L81.9267 99.8106Z" fill="#012B51"/>
<path d="M91.6717 34.9816C90.8148 34.9816 90.1136 35.679 90.1136 36.5396C90.1136 37.4002 90.8111 38.0976 91.6717 38.0976C92.5323 38.0976 93.2297 37.4002 93.2297 36.5396C93.2297 35.679 92.5323 34.9816 91.6717 34.9816Z" fill="url(#paint1_linear_17_9680)"/>
</g>
<defs>
<linearGradient id="paint0_linear_17_9680" x1="55.1618" y1="-0.259672" x2="55.1618" y2="103.542" gradientUnits="userSpaceOnUse">
<stop stop-color="#9BB2E5"/>
<stop offset="1" stop-color="#698CBF"/>
</linearGradient>
<linearGradient id="paint1_linear_17_9680" x1="91.6717" y1="-0.25965" x2="91.6717" y2="103.542" gradientUnits="userSpaceOnUse">
<stop stop-color="#9BB2E5"/>
<stop offset="1" stop-color="#698CBF"/>
</linearGradient>
<clipPath id="clip0_17_9680">
<rect width="110.324" height="25.1074" fill="white" transform="translate(0 124.893)"/>
</clipPath>
<clipPath id="clip1_17_9680">
<rect width="110.324" height="113.38" fill="white"/>
</clipPath>
</defs>
</svg>
