<svg width="124" height="150" viewBox="0 0 124 150" fill="none" xmlns="http://www.w3.org/2000/svg">
<g clip-path="url(#clip0_17_9699)">
<path d="M92.9492 107.616H31.021L0.0620117 53.8067L31.021 0H92.9492L123.908 53.8067L92.9492 107.613V107.616ZM35.1336 100.483H88.8391L115.696 53.8092L88.8365 7.13279H35.1311L8.27707 53.8067L35.1336 100.481V100.483Z" fill="#DDE1E6"/>
<path d="M79.0024 45.9963L93.6558 20.2852H41.8109L15.8872 65.2829H32.9833L50.3564 35.1239H68.2989L36.158 90.9966H84.8282L110.752 45.9989H79.0024V45.9963ZM76.2801 76.1553H61.6521L70.4645 60.8351H85.1052L76.2801 76.1553Z" fill="#DDE1E6"/>
<path d="M22.2188 125.991H16.2583V149.812H12.9209V125.991H6.99854V123.512H22.2188V125.991Z" fill="#DDE1E6"/>
<path d="M26.5679 126.892C26.5679 125.766 27.4677 124.865 28.5911 124.865C29.7146 124.865 30.6144 125.766 30.6144 126.892C30.6144 128.018 29.7146 128.92 28.5911 128.92C27.4677 128.92 26.5679 128.018 26.5679 126.892ZM27.0559 130.874H30.1289V149.811H27.0559V130.874Z" fill="#DDE1E6"/>
<path d="M50.7098 123.512V149.811H48.0104L47.7105 147.97C46.737 149.172 45.311 149.997 43.3996 149.997C39.9504 149.997 37.2129 149.096 37.2129 144.398V136.208C37.2129 131.511 39.9504 130.647 43.1734 130.647C45.1611 130.647 46.6226 131.21 47.6342 132.3V123.509H50.7072L50.7098 123.512ZM47.6368 144.477V136.323C47.6368 134.519 46.4752 133.016 43.9639 133.016C41.4526 133.016 40.291 133.956 40.291 136.211V144.401C40.291 146.655 41.4526 147.595 43.9639 147.595C46.4752 147.595 47.6368 146.355 47.6368 144.477Z" fill="#DDE1E6"/>
<path d="M60.7191 141.283V144.362C60.7191 146.617 61.9188 147.557 64.4301 147.557C66.9414 147.557 68.0674 146.844 68.0674 144.964V144.136H71.1405V144.964C71.1405 149.284 68.4411 149.923 64.4301 149.923C60.4192 149.923 57.6436 149.06 57.6436 144.362V136.211C57.6436 131.513 60.3429 130.65 64.3539 130.65C68.3648 130.65 71.1405 131.513 71.1405 136.211V141.283H60.7191ZM60.7191 136.211V138.916H68.0674V136.211C68.0674 133.956 66.8677 133.016 64.3564 133.016C61.8451 133.016 60.7191 133.956 60.7191 136.211Z" fill="#DDE1E6"/>
<path d="M93.5591 141.395V144.513C93.5591 149.022 90.636 149.812 87.0724 149.812H78.4507V123.512H86.6988C90.2598 123.512 93.1854 124.302 93.1854 128.811V131.366C93.1854 134.522 92.0976 135.798 90.298 136.326C92.3212 136.776 93.5591 138.053 93.5591 141.397V141.395ZM86.6988 125.991H81.7881V135.082H86.6988C88.7602 135.082 89.8481 134.142 89.8481 132.265V128.808C89.8481 126.928 88.7602 125.991 86.6988 125.991ZM90.2217 140.269C90.2217 138.389 89.1338 137.451 87.0724 137.451H81.7855V147.333H87.0724C89.1338 147.333 90.2217 146.393 90.2217 144.515V140.269Z" fill="#DDE1E6"/>
<path d="M100.343 126.892C100.343 125.766 101.243 124.865 102.367 124.865C103.49 124.865 104.39 125.766 104.39 126.892C104.39 128.018 103.49 128.92 102.367 128.92C101.243 128.92 100.343 128.018 100.343 126.892ZM100.831 130.874H103.904V149.811H100.831V130.874Z" fill="#DDE1E6"/>
<path d="M119.424 133.243H116.201V149.812H113.128V133.243H109.867V130.877H113.128V125.015H116.201V130.877H119.424V133.243Z" fill="#DDE1E6"/>
</g>
<defs>
<clipPath id="clip0_17_9699">
<rect width="123.849" height="150" fill="white" transform="translate(0.0620117)"/>
</clipPath>
</defs>
</svg>
