<svg width="124" height="150" viewBox="0 0 124 150" fill="none" xmlns="http://www.w3.org/2000/svg">
<g clip-path="url(#clip0_17_9511)">
<path d="M92.8872 107.616H30.959L0 53.8067L30.959 0H92.8872L123.846 53.8067L92.8872 107.613V107.616ZM35.0716 100.483H88.7771L115.634 53.8092L88.7745 7.13279H35.0691L8.21506 53.8067L35.0716 100.481V100.483Z" fill="#51637B"/>
<path d="M78.9404 45.9963L93.5938 20.2851H41.7489L15.8252 65.2828H32.9213L50.2944 35.1239H68.2369L36.096 90.9965H84.7661L110.69 45.9988H78.9404V45.9963ZM76.2181 76.1553H61.5901L70.4025 60.835H85.0432L76.2181 76.1553Z" fill="url(#paint0_linear_17_9511)"/>
<path d="M22.1568 125.991H16.1963V149.811H12.8589V125.991H6.93652V123.512H22.1568V125.991Z" fill="#51637B"/>
<path d="M26.5058 126.892C26.5058 125.766 27.4056 124.865 28.5291 124.865C29.6525 124.865 30.5523 125.766 30.5523 126.892C30.5523 128.018 29.6525 128.92 28.5291 128.92C27.4056 128.92 26.5058 128.018 26.5058 126.892ZM26.9938 130.874H30.0668V149.811H26.9938V130.874Z" fill="#51637B"/>
<path d="M50.6477 123.512V149.811H47.9483L47.6484 147.97C46.6749 149.172 45.249 149.997 43.3375 149.997C39.8883 149.997 37.1508 149.096 37.1508 144.398V136.208C37.1508 131.511 39.8883 130.647 43.1113 130.647C45.099 130.647 46.5605 131.21 47.5722 132.3V123.509H50.6452L50.6477 123.512ZM47.5747 144.477V136.323C47.5747 134.519 46.4131 133.016 43.9018 133.016C41.3905 133.016 40.2289 133.956 40.2289 136.211V144.401C40.2289 146.655 41.3905 147.595 43.9018 147.595C46.4131 147.595 47.5747 146.355 47.5747 144.477Z" fill="#51637B"/>
<path d="M60.6572 141.283V144.363C60.6572 146.617 61.857 147.557 64.3682 147.557C66.8795 147.557 68.0055 146.844 68.0055 144.964V144.136H71.0786V144.964C71.0786 149.284 68.3792 149.924 64.3682 149.924C60.3573 149.924 57.5817 149.06 57.5817 144.363V136.211C57.5817 131.513 60.281 130.65 64.292 130.65C68.3029 130.65 71.0786 131.513 71.0786 136.211V141.283H60.6572ZM60.6572 136.211V138.916H68.0055V136.211C68.0055 133.956 66.8058 133.016 64.2945 133.016C61.7832 133.016 60.6572 133.956 60.6572 136.211Z" fill="#51637B"/>
<path d="M93.4972 141.395V144.513C93.4972 149.022 90.5741 149.811 87.0105 149.811H78.3888V123.512H86.6369C90.198 123.512 93.1235 124.302 93.1235 128.811V131.366C93.1235 134.522 92.0357 135.798 90.2361 136.325C92.2593 136.776 93.4972 138.053 93.4972 141.397V141.395ZM86.6369 125.991H81.7262V135.082H86.6369C88.6983 135.082 89.7862 134.142 89.7862 132.265V128.808C89.7862 126.928 88.6983 125.991 86.6369 125.991ZM90.1598 140.269C90.1598 138.389 89.0719 137.451 87.0105 137.451H81.7236V147.333H87.0105C89.0719 147.333 90.1598 146.393 90.1598 144.515V140.269Z" fill="url(#paint1_linear_17_9511)"/>
<path d="M100.281 126.892C100.281 125.766 101.181 124.865 102.304 124.865C103.428 124.865 104.328 125.766 104.328 126.892C104.328 128.018 103.428 128.92 102.304 128.92C101.181 128.92 100.281 128.018 100.281 126.892ZM100.769 130.874H103.842V149.811H100.769V130.874Z" fill="url(#paint2_linear_17_9511)"/>
<path d="M119.362 133.243H116.139V149.811H113.066V133.243H109.805V130.876H113.066V125.015H116.139V130.876H119.362V133.243Z" fill="url(#paint3_linear_17_9511)"/>
</g>
<defs>
<linearGradient id="paint0_linear_17_9511" x1="15.8252" y1="55.6383" x2="110.69" y2="55.6383" gradientUnits="userSpaceOnUse">
<stop stop-color="#29C1E1"/>
<stop offset="1" stop-color="#1AE2A0"/>
</linearGradient>
<linearGradient id="paint1_linear_17_9511" x1="78.3888" y1="136.662" x2="93.4972" y2="136.662" gradientUnits="userSpaceOnUse">
<stop stop-color="#29C1E1"/>
<stop offset="1" stop-color="#1AE2A0"/>
</linearGradient>
<linearGradient id="paint2_linear_17_9511" x1="100.281" y1="137.337" x2="104.33" y2="137.337" gradientUnits="userSpaceOnUse">
<stop stop-color="#29C1E1"/>
<stop offset="1" stop-color="#1AE2A0"/>
</linearGradient>
<linearGradient id="paint3_linear_17_9511" x1="109.803" y1="137.413" x2="119.362" y2="137.413" gradientUnits="userSpaceOnUse">
<stop stop-color="#29C1E1"/>
<stop offset="1" stop-color="#1AE2A0"/>
</linearGradient>
<clipPath id="clip0_17_9511">
<rect width="123.849" height="150" fill="white"/>
</clipPath>
</defs>
</svg>
