<svg width="109" height="150" viewBox="0 0 109 150" fill="none" xmlns="http://www.w3.org/2000/svg">
<g clip-path="url(#clip0_17_9702)">
<path d="M98.8762 9.75H44.4022C34.9872 9.75 26.4619 13.5551 20.2915 19.7089L27.1766 26.5756C31.7787 21.9858 37.8976 19.4576 44.4022 19.4576H89.1373V64.0728C89.1373 70.5651 86.6023 76.6625 82.0002 81.2523L88.8853 88.1189C95.0557 81.9651 98.871 73.4625 98.871 64.0728V9.75H98.8762Z" fill="#DDE1E6"/>
<path d="M44.402 0.0371094C38.4888 0.0371094 32.7452 1.19608 27.3358 3.47812C22.1167 5.67811 17.4273 8.83194 13.4062 12.8422L20.2913 19.7088C26.4617 13.555 34.9871 9.74989 44.402 9.74989H98.876V64.0779C98.876 73.4676 95.0607 81.9701 88.8903 88.1239L95.7754 94.9905C99.7964 90.9803 102.959 86.3034 105.165 81.0983C107.453 75.7035 108.615 69.9753 108.615 64.0779V0.0371094H44.402Z" fill="#DDE1E6"/>
<path d="M10.3057 98.0779H64.7797C74.1946 98.0779 82.72 94.2728 88.8903 88.1189L82.0052 81.2523C77.4032 85.842 71.2842 88.3702 64.7797 88.3702H20.0394V43.755C20.0394 37.2628 22.5744 31.1653 27.1765 26.5756L20.2914 19.709C14.121 25.8628 10.3057 34.3653 10.3057 43.755V98.083V98.0779Z" fill="#DDE1E6"/>
<path d="M64.7798 107.791C70.693 107.791 76.4366 106.632 81.846 104.35C87.0651 102.15 91.7545 98.9958 95.7756 94.9855L88.8905 88.1189C82.7201 94.2727 74.1947 98.0778 64.7798 98.0778H10.3058V43.7498C10.3058 34.3601 14.1211 25.8576 20.2915 19.7038L13.4064 12.8372C9.38537 16.8474 6.22306 21.5243 4.01715 26.7294C1.72898 32.1294 0.566895 37.8524 0.566895 43.7498V107.791H64.7798Z" fill="#DDE1E6"/>
<path d="M42.5352 41.9192C35.8815 48.5551 35.8815 59.3089 42.5352 65.9396C49.1889 72.5755 59.9716 72.5755 66.6202 65.9396L59.7351 59.073C58.357 60.4473 56.5265 61.2063 54.5777 61.2063C52.6289 61.2063 50.7983 60.4473 49.4203 59.073C46.5768 56.2371 46.5768 51.6217 49.4203 48.7807L42.5352 41.9089V41.9192Z" fill="#DDE1E6"/>
<path d="M34.9251 35.7653L34.8377 35.9038C30.2973 40.8371 27.8086 47.196 27.8086 53.9345C27.8086 61.0678 30.5904 67.7703 35.6501 72.8113C40.7046 77.8523 47.4303 80.6318 54.5777 80.6318C61.7302 80.6318 68.4507 77.8523 73.5053 72.8113L66.6202 65.9447C59.9665 72.5805 49.1838 72.5805 42.5352 65.9447C35.8815 59.3088 35.8815 48.555 42.5352 41.9243L35.645 35.0474L34.9199 35.7704L34.9251 35.7653Z" fill="#DDE1E6"/>
<path d="M42.561 41.8831L49.4461 48.7498C50.8242 47.3754 52.6547 46.6165 54.6035 46.6165C56.5523 46.6165 58.3829 47.3754 59.7609 48.7498C62.6044 51.5857 62.6044 56.201 59.7609 59.042L59.7352 59.0677L66.6254 65.9394L66.646 65.9087C73.2997 59.2728 73.2997 48.519 66.646 41.8883C59.9923 35.2524 49.2096 35.2524 42.561 41.8883V41.8831Z" fill="#DDE1E6"/>
<path d="M54.6034 27.196C47.4509 27.196 40.7303 29.9755 35.6758 35.0165L42.5609 41.8832C49.2146 35.2473 59.9973 35.2473 66.6458 41.8832C73.2995 48.519 73.2995 59.2728 66.6458 65.9036L66.6253 65.9343L73.5104 72.801L74.256 72.0574L74.3434 71.9189C78.8837 66.9856 81.3724 60.6267 81.3724 53.8882C81.3724 46.7549 78.5906 40.0524 73.5309 35.0114C68.4764 29.9704 61.7507 27.1909 54.6034 27.1909V27.196Z" fill="#DDE1E6"/>
<path d="M42.5611 41.8832L42.5405 41.914L49.4256 48.7806L49.9347 48.2729C58.9383 39.8012 73.1764 39.9601 81.9897 48.7498C90.9624 57.6985 90.9624 72.2574 81.9897 81.2061L88.8748 88.0728C101.663 75.319 101.663 54.637 88.8748 41.8832C76.0867 29.1294 55.3492 29.1294 42.5611 41.8832Z" fill="#DDE1E6"/>
<path d="M81.6967 25.709C76.6062 23.6475 71.2277 22.6064 65.7155 22.6064C60.2033 22.6064 54.8248 23.6526 49.7342 25.709C44.4586 27.8423 39.728 30.9756 35.6761 35.0166L35.6504 35.0423L42.5406 41.9141L42.5612 41.8833C55.3493 29.1295 76.0868 29.1295 88.8749 41.8833C101.663 54.6371 101.663 75.319 88.8749 88.0728L95.76 94.9395C99.8119 90.8985 102.954 86.1805 105.093 80.919C107.16 75.8421 108.204 70.478 108.204 64.9806C108.204 59.4832 107.155 54.1191 105.093 49.0422C102.954 43.7807 99.8119 39.0628 95.76 35.0218C91.7081 30.9808 86.9775 27.8474 81.7018 25.7141L81.6967 25.709Z" fill="#DDE1E6"/>
<path d="M59.247 59.5498C50.2434 68.0216 36.0053 67.8626 27.192 59.0729C18.2192 50.1242 18.2192 35.5653 27.192 26.6166L20.3069 19.75C7.5188 32.5038 7.5188 53.1857 20.3069 65.9395C33.0949 78.6933 53.8325 78.6933 66.6206 65.9395L59.7303 59.0627L59.2419 59.5498H59.247Z" fill="#DDE1E6"/>
<path d="M66.6204 65.9446C53.8323 78.6984 33.0947 78.6984 20.3067 65.9446C7.51861 53.1908 7.51861 32.5089 20.3067 19.7551L13.4216 12.8884C9.36972 16.9294 6.22797 21.6474 4.08892 26.9089C2.02699 31.9858 0.978027 37.3499 0.978027 42.8473C0.978027 48.3447 2.02699 53.7088 4.08892 58.7857C6.22797 64.0472 9.36972 68.7651 13.4216 72.8061C17.4735 76.8471 22.2041 79.9804 27.4797 82.1138C32.5703 84.1753 37.9488 85.2163 43.4609 85.2163C48.9731 85.2163 54.3516 84.1702 59.4422 82.1138C64.7178 79.9804 69.4484 76.8471 73.5003 72.8061L66.6152 65.9343L66.6204 65.9446Z" fill="#DDE1E6"/>
<path d="M21.2185 124.408V145.003H0.566895V124.408H21.2185ZM17.0879 128.528H4.69751V140.885H17.0879V136.766H8.82814V132.646H17.0879V128.526V128.528Z" fill="#DDE1E6"/>
<path d="M36.2733 145.005V140.885H40.2751L36.2733 130.588L30.6582 145.005H25.9468L34.2065 124.41H38.3371L46.5968 145.005H36.2718H36.2733Z" fill="#DDE1E6"/>
<path d="M55.9119 124.408V145.003H51.7812V124.408H55.9119Z" fill="#DDE1E6"/>
<path d="M64.998 124.408H85.6496V128.528H69.1287V132.648H85.6496V136.767H69.1287V145.005H64.998V124.408Z" fill="#DDE1E6"/>
<path d="M91.4209 145.005L97.6699 129.423L98.7253 132.053L102.098 140.462H96.6934V139.265H99.9263L97.6699 133.457L93.1723 145.005H91.4209Z" fill="#DDE1E6"/>
<path d="M96.6932 145.005V143.74H106.765L99.4515 125.509H95.8774L88.0681 145.005H86.7261L95.1086 124.103H100.232L108.615 145.005H96.6932Z" fill="#DDE1E6"/>
<path d="M103.333 141.297H96.6931V142.904H105.528L98.8858 126.344H96.4444L88.9702 145.005H90.52L97.2724 128.17H98.0685L103.333 141.297Z" fill="#DDE1E6"/>
</g>
<defs>
<clipPath id="clip0_17_9702">
<rect width="108.059" height="150" fill="white" transform="translate(0.555664)"/>
</clipPath>
</defs>
</svg>
