<svg width="124" height="150" viewBox="0 0 124 150" fill="none" xmlns="http://www.w3.org/2000/svg">
<g clip-path="url(#clip0_17_9700)">
<path d="M38.7671 39.7053L64.5214 13.9217L67.5333 16.937C68.2367 17.6412 69.391 17.6412 70.1124 16.937L76.1181 10.9244C76.8215 10.2203 76.8215 9.06471 76.1181 8.34248L70.1304 2.34799C67.0284 -0.757597 62.0145 -0.757597 58.9125 2.34799L27.2064 34.0899C24.1044 37.1955 24.1044 42.215 27.2064 45.3206L34.4747 52.597L43.0595 44.0025L38.7671 39.7053Z" fill="#DDE1E6"/>
<path d="M47.36 48.3207L38.7773 56.9131L47.36 65.5055L55.9427 56.9131L47.36 48.3207Z" fill="#DDE1E6"/>
<path d="M101.836 34.09L95.8486 28.0955C95.1452 27.3913 93.991 27.3913 93.2696 28.0955L87.2638 34.1081C86.5604 34.8122 86.5604 35.9678 87.2638 36.69L90.2757 39.7053L64.5213 65.4889L55.9365 74.0834L58.9123 77.0626C62.0144 80.1682 67.0282 80.1682 70.1303 77.0626L101.836 45.3207C104.938 42.2151 104.938 37.1956 101.836 34.09Z" fill="#DDE1E6"/>
<path d="M101.836 79.6986C104.938 76.593 104.938 71.5735 101.836 68.4679L95.8485 62.4734C95.1451 61.7693 93.9908 61.7693 93.2694 62.4734L87.2637 68.486C86.5603 69.1902 86.5603 70.3457 87.2637 71.068L90.2755 74.0833L73.106 91.2723L81.6908 99.8668L101.836 79.6986Z" fill="#DDE1E6"/>
<path d="M64.5214 99.867L38.767 74.0834L39.6327 73.2168L61.1308 51.6944L64.5034 48.3179L67.5152 51.3332C68.2186 52.0374 69.3729 52.0374 70.0943 51.3332L76.1 45.3207C76.8034 44.6165 76.8034 43.461 76.1 42.7387L70.1123 36.7442C67.0103 33.6386 61.9964 33.6386 58.8944 36.7442L49.6603 45.9888L36.7831 58.8805L27.1703 68.5042C24.0682 71.6098 24.0682 76.6293 27.1703 79.7349L58.8763 111.477C61.9784 114.582 66.9922 114.582 70.0943 111.477L73.0701 108.498L64.4853 99.9031L64.5214 99.867Z" fill="#DDE1E6"/>
<path d="M40.9706 148.734L33.6151 133.251C33.4643 132.966 33.1543 132.748 32.6684 132.605C32.1825 132.463 31.6547 132.387 31.0934 132.387C30.5321 132.387 30.0378 132.463 29.5519 132.605C29.066 132.748 28.7561 132.966 28.6053 133.251L21.2078 148.734C21.1827 148.826 21.1743 148.901 21.1743 148.952C21.1743 149.161 21.3 149.338 21.5429 149.488C21.7859 149.639 22.1126 149.765 22.5064 149.858C22.9001 149.95 23.2771 150 23.6206 150C23.9389 150 24.2321 149.958 24.4918 149.883C24.7516 149.807 24.9191 149.665 24.9945 149.48L26.4773 146.779H35.6927L37.2174 149.48C37.318 149.673 37.4855 149.807 37.7201 149.883C37.9547 149.967 38.2311 150 38.5579 150C38.9265 150 39.3035 149.95 39.6888 149.858C40.0742 149.765 40.3925 149.631 40.6523 149.472C40.912 149.312 41.046 149.136 41.046 148.943C41.046 148.893 41.0209 148.826 40.9706 148.725V148.734ZM27.3737 144.054L31.0934 135.859L34.8047 144.054H27.3737Z" fill="#DDE1E6"/>
<path d="M123.197 148.734L115.842 133.251C115.691 132.966 115.381 132.748 114.895 132.605C114.409 132.463 113.881 132.387 113.32 132.387C112.759 132.387 112.264 132.463 111.778 132.605C111.293 132.748 110.983 132.966 110.832 133.251L103.434 148.734C103.409 148.826 103.401 148.901 103.401 148.952C103.401 149.161 103.527 149.338 103.769 149.488C104.012 149.639 104.339 149.765 104.733 149.858C105.127 149.95 105.504 150 105.847 150C106.166 150 106.459 149.958 106.718 149.883C106.978 149.807 107.146 149.665 107.221 149.48L108.704 146.779H117.919L119.444 149.48C119.545 149.673 119.712 149.807 119.947 149.883C120.181 149.967 120.458 150 120.784 150C121.153 150 121.53 149.95 121.915 149.858C122.301 149.765 122.619 149.631 122.879 149.472C123.139 149.312 123.273 149.136 123.273 148.943C123.273 148.893 123.247 148.826 123.197 148.725V148.734ZM109.6 144.054L113.32 135.859L117.031 144.054H109.6Z" fill="#DDE1E6"/>
<path d="M46.8437 150C46.3495 150 45.8971 149.891 45.4866 149.681C45.0761 149.472 44.875 149.145 44.875 148.7V133.687C44.875 133.268 45.0593 132.941 45.4363 132.723C45.8049 132.496 46.207 132.387 46.6259 132.387H59.6699C60.1139 132.387 60.4406 132.572 60.6333 132.949C60.8343 133.318 60.9265 133.704 60.9265 134.098C60.9265 134.568 60.8176 134.987 60.6082 135.348C60.3987 135.708 60.0804 135.885 59.6615 135.885H48.8125V140.296H54.5679C54.9868 140.296 55.3051 140.456 55.5146 140.783C55.724 141.101 55.8329 141.479 55.8329 141.898C55.8329 142.242 55.7324 142.586 55.5397 142.921C55.3386 143.257 55.0203 143.425 54.5763 143.425H48.8209V148.7C48.8209 149.145 48.6198 149.472 48.2093 149.681C47.7988 149.891 47.3464 150 46.8521 150H46.8437Z" fill="#DDE1E6"/>
<path d="M66.246 150C65.8271 150 65.4333 149.891 65.0563 149.665C64.6794 149.438 64.5034 149.119 64.5034 148.7V133.687C64.5034 133.268 64.6877 132.941 65.0563 132.723C65.425 132.496 65.8187 132.387 66.246 132.387H79.4491C79.9182 132.387 80.2533 132.572 80.4544 132.941C80.6554 133.31 80.7476 133.696 80.7476 134.09C80.7476 134.559 80.6387 134.979 80.4125 135.331C80.1863 135.692 79.8679 135.868 79.4491 135.868H68.4325V140.305H74.146C74.5649 140.305 74.8917 140.464 75.1095 140.791C75.3357 141.11 75.4446 141.487 75.4446 141.907C75.4446 142.25 75.344 142.594 75.1514 142.93C74.9503 143.265 74.6236 143.433 74.146 143.433H68.4325V146.511H79.4491C79.8679 146.511 80.1947 146.687 80.4125 147.031C80.6387 147.375 80.7476 147.803 80.7476 148.298C80.7476 148.692 80.6471 149.078 80.4544 149.447C80.2533 149.816 79.9266 150 79.4491 150H66.246Z" fill="#DDE1E6"/>
<path d="M16.2149 150C17.4799 150 18.5104 148.969 18.5104 147.702V145.245C18.5104 144.951 18.2758 144.716 17.9826 144.716H15.5196C15.2264 144.716 14.9918 144.951 14.9918 145.245V146.478H7.95459V150H16.2149Z" fill="#DDE1E6"/>
<path d="M4.43608 146.478V135.91H4.79631H13.6096H14.9919V137.143C14.9919 137.436 15.2264 137.671 15.5197 137.671H17.9827C18.2759 137.671 18.5105 137.436 18.5105 137.143V134.685C18.5105 133.419 17.48 132.387 16.215 132.387H12.4283H7.15042H3.21294C1.94792 132.387 0.91748 133.419 0.91748 134.685V147.702C0.91748 148.968 1.94792 150 3.21294 150H4.43608V146.478Z" fill="#DDE1E6"/>
<path d="M98.9771 150C100.242 150 101.273 148.969 101.273 147.702V145.245C101.273 144.951 101.038 144.716 100.745 144.716H98.2818C97.9886 144.716 97.754 144.951 97.754 145.245V146.478H90.7168V150H98.9771Z" fill="#DDE1E6"/>
<path d="M87.1983 146.478V135.91H87.5585H96.3718H97.7541V137.143C97.7541 137.436 97.9886 137.671 98.2819 137.671H100.745C101.038 137.671 101.273 137.436 101.273 137.143V134.685C101.273 133.419 100.242 132.387 98.9772 132.387H95.1905H89.9126H85.9752C84.7101 132.387 83.6797 133.419 83.6797 134.685V147.702C83.6797 148.968 84.7101 150 85.9752 150H87.1983V146.478Z" fill="#DDE1E6"/>
</g>
<defs>
<clipPath id="clip0_17_9700">
<rect width="122.368" height="150" fill="white" transform="translate(0.910645)"/>
</clipPath>
</defs>
</svg>
